# Blender v2.78 (sub 0) OBJ File: ''
# www.blender.org
mtllib bauble_top.mtl
o Plane
v 0.000000 1.020274 0.351665
v 0.000000 1.020274 -0.351665
v 0.000000 0.830429 -0.510583
v -0.000000 1.023032 -0.510583
v 0.442178 0.830430 -0.255292
v 0.442178 1.023032 -0.255292
v 0.442178 0.830430 0.255292
v 0.442178 1.023032 0.255292
v -0.000000 0.830429 0.510583
v -0.000000 1.023032 0.510583
v -0.442178 0.830429 0.255292
v -0.442178 1.023032 0.255292
v -0.442178 0.830429 -0.255292
v -0.442178 1.023032 -0.255292
v -0.000000 1.371939 -0.252074
v -0.000000 1.371939 0.252074
v 0.000000 1.020274 0.252074
v 0.000000 1.020274 -0.252074
v -0.000000 1.278717 0.351665
v -0.000000 1.278717 -0.351665
v -0.000000 1.278717 0.252074
v -0.000000 1.278717 -0.252074
vt 0.2113 0.6314
vt 0.1874 0.5099
vt 0.2113 0.5099
vt 0.8976 0.1300
vt 0.9899 0.0099
vt 0.9899 0.1300
vt 0.1024 0.5099
vt 0.0101 0.6300
vt 0.0101 0.5099
vt 0.1024 0.6300
vt 0.0101 0.8700
vt 0.1024 0.8700
vt 0.0101 0.9901
vt 0.2219 0.0099
vt 0.4337 0.1300
vt 0.2219 0.4901
vt 0.8976 0.4901
vt 0.9899 0.3700
vt 0.9899 0.4901
vt 0.8976 0.3700
vt 0.6657 0.0099
vt 0.8774 0.3700
vt 0.4539 0.1300
vt 0.2553 0.6314
vt 0.2315 0.5099
vt 0.2553 0.5099
vt 0.1672 0.5099
vt 0.1226 0.6284
vt 0.1226 0.5099
vt 0.1874 0.6314
vt 0.8976 0.0099
vt 0.1024 0.9901
vt 0.0101 0.3700
vt 0.0101 0.1300
vt 0.4337 0.3700
vt 0.4539 0.3700
vt 0.8774 0.1300
vt 0.6657 0.4901
vt 0.2315 0.6314
vt 0.1672 0.6284
vn 1.0000 0.0000 -0.0000
vn 0.5000 0.0000 -0.8660
vn 0.5000 0.0000 0.8660
vn -0.5000 0.0000 0.8660
vn 0.0000 1.0000 0.0000
vn -1.0000 -0.0000 0.0000
vn -0.5000 -0.0000 -0.8660
vn 0.0000 -1.0000 -0.0000
usemtl Material.002
s off
f 18/1/1 20/2/1 22/3/1
f 4/4/2 5/5/2 3/6/2
f 6/7/1 7/8/1 5/9/1
f 8/10/3 9/11/3 7/8/3
f 10/12/4 11/13/4 9/11/4
f 14/14/5 12/15/5 8/16/5
f 12/17/6 13/18/6 11/19/6
f 14/20/7 3/6/7 13/18/7
f 5/21/8 9/22/8 3/23/8
f 1/24/1 21/25/1 19/26/1
f 21/27/1 15/28/1 16/29/1
f 18/1/1 2/30/1 20/2/1
f 4/4/2 6/31/2 5/5/2
f 6/7/1 8/10/1 7/8/1
f 8/10/3 10/12/3 9/11/3
f 10/12/4 12/32/4 11/13/4
f 8/16/5 6/33/5 4/34/5
f 4/34/5 14/14/5 8/16/5
f 12/15/5 10/35/5 8/16/5
f 12/17/6 14/20/6 13/18/6
f 14/20/7 4/4/7 3/6/7
f 13/36/8 3/23/8 9/22/8
f 5/21/8 7/37/8 9/22/8
f 9/22/8 11/38/8 13/36/8
f 1/24/1 17/39/1 21/25/1
f 21/27/1 22/40/1 15/28/1
