# Blender v2.75 (sub 0) OBJ File: 'extieror.blend'
# www.blender.org
mtllib copper_door.mtl
o TARDIS000_TARDIS7
v -0.227040 0.281747 0.101010
v -1.102040 0.281747 0.101010
v -1.102040 0.281747 -0.023990
v -0.227040 0.281747 -0.023990
v -0.227040 0.406747 0.101010
v -1.102040 0.406747 0.101010
v -1.102040 0.406747 -0.023990
v -0.227040 0.406747 -0.023990
v -0.826151 3.656747 0.064398
v -0.914540 3.656747 -0.023990
v -0.826151 3.656747 -0.112378
v -0.737763 3.656747 -0.023990
v -0.826151 4.656747 0.064398
v -0.914540 4.656747 -0.023990
v -0.826151 4.656747 -0.112378
v -0.737763 4.656747 -0.023990
v -1.077040 3.656747 0.076010
v -1.202040 3.656747 0.076010
v -1.202040 3.656747 -0.048990
v -1.077040 3.656747 -0.048990
v -1.077040 4.656747 0.076010
v -1.202040 4.656747 0.076010
v -1.202040 4.656747 -0.048990
v -1.077040 4.656747 -0.048990
v -0.501151 3.656747 0.064398
v -0.589540 3.656747 -0.023990
v -0.501151 3.656747 -0.112378
v -0.412763 3.656747 -0.023990
v -0.501151 4.656747 0.064398
v -0.589540 4.656747 -0.023990
v -0.501151 4.656747 -0.112378
v -0.412763 4.656747 -0.023990
v -0.127040 3.656747 0.076010
v -0.252040 3.656747 0.076010
v -0.252040 3.656747 -0.048990
v -0.127040 3.656747 -0.048990
v -0.127040 4.656747 0.076010
v -0.252040 4.656747 0.076010
v -0.252040 4.656747 -0.048990
v -0.127040 4.656747 -0.048990
v -0.227040 3.656747 0.038510
v -1.102040 3.656747 0.038510
v -1.102040 3.656747 -0.086490
v -0.227040 3.656747 -0.086490
v -0.227040 4.656747 0.038510
v -1.102040 4.656747 0.038510
v -1.102040 4.656747 -0.086490
v -0.227040 4.656747 -0.086490
v -0.227040 1.406747 0.101010
v -1.102040 1.406747 0.101010
v -1.102040 1.406747 -0.023990
v -0.227040 1.406747 -0.023990
v -0.227040 1.531747 0.101010
v -1.102040 1.531747 0.101010
v -1.102040 1.531747 -0.023990
v -0.227040 1.531747 -0.023990
v -0.227040 3.531747 0.101010
v -1.102040 3.531747 0.101010
v -1.102040 3.531747 -0.023990
v -0.227040 3.531747 -0.023990
v -0.227040 3.656747 0.101010
v -1.102040 3.656747 0.101010
v -1.102040 3.656747 -0.023990
v -0.227040 3.656747 -0.023990
v -0.227040 2.406747 0.101010
v -1.227040 2.406747 0.101010
v -1.227040 2.406747 -0.023990
v -0.227040 2.406747 -0.023990
v -0.227040 2.531747 0.101010
v -1.227040 2.531747 0.101010
v -1.227040 2.531747 -0.023990
v -0.227040 2.531747 -0.023990
v -0.138334 4.631747 0.076010
v -1.102040 4.631747 0.076010
v -1.102040 4.631747 -0.048990
v -0.138334 4.631747 -0.048990
v -0.138334 4.756747 0.076010
v -1.102040 4.756747 0.076010
v -1.102040 4.756747 -0.048990
v -0.138334 4.756747 -0.048990
v -0.138455 3.556747 0.076010
v -1.102040 3.556747 0.076010
v -1.102040 3.556747 -0.048990
v -0.138455 3.556747 -0.048990
v -0.138455 3.681747 0.076010
v -1.102040 3.681747 0.076010
v -1.102040 3.681747 -0.048990
v -0.138455 3.681747 -0.048990
v -0.227040 4.906747 0.101010
v -1.102040 0.156747 0.101010
v -1.352040 0.156747 0.101010
v -1.352040 0.156747 -0.023990
v -1.102040 0.156747 -0.023990
v -1.352040 4.906747 0.101010
v -1.352040 4.906747 -0.023990
v -0.227040 4.656747 0.101010
v -1.102040 4.656747 0.101010
v -1.102040 4.656747 -0.023990
v -0.227040 4.656747 -0.023990
v -1.102040 4.906747 0.101010
v -1.102040 4.906747 -0.023990
v -0.227040 4.906747 -0.023990
v -0.227890 4.068359 -0.024878
v -1.102040 4.068359 -0.024878
v -1.102040 4.156747 -0.113267
v -0.227890 4.156747 -0.113267
v -0.227890 4.156747 0.063510
v -1.102040 4.156747 0.063510
v -1.102040 4.245136 -0.024878
v -0.227890 4.245136 -0.024878
v -0.018334 0.156747 0.101010
v -0.227040 0.156747 0.101010
v -0.227040 0.156747 -0.148990
v -0.018334 0.156747 -0.148990
v -0.018334 4.906747 0.101010
v -0.227040 4.906747 0.101010
v -0.227040 4.906747 -0.148990
v -0.018334 4.906747 -0.148990
v -0.227040 0.382424 -0.007992
v -1.102040 0.382424 -0.007992
v -1.102040 0.382424 -0.032845
v -0.227040 0.382424 -0.032845
v -0.227040 3.577420 -0.007992
v -1.102040 3.577420 -0.007992
v -1.102040 3.577420 -0.032845
v -0.227040 3.577420 -0.032845
v -0.420065 2.781747 0.024390
v -0.920065 2.781747 0.024390
v -0.920065 2.781747 -0.100610
v -0.420065 2.781747 -0.100610
v -0.420065 3.281747 0.024390
v -0.920065 3.281747 0.024390
v -0.920065 3.281747 -0.100610
v -0.420065 3.281747 -0.100610
v -1.145065 2.406747 0.174390
v -1.270065 2.406747 0.174390
v -1.270065 2.406747 0.049390
v -1.145065 2.406747 0.049390
v -1.145065 2.531747 0.174390
v -1.270065 2.531747 0.174390
v -1.270065 2.531747 0.049390
v -1.145065 2.531747 0.049390
v -1.119177 2.781747 0.086002
v -1.207565 2.781747 0.174390
v -1.295954 2.781747 0.086002
v -1.207565 2.781747 -0.002387
v -1.119177 3.281747 0.086002
v -1.207565 3.281747 0.174390
v -1.295954 3.281747 0.086002
v -1.207565 3.281747 -0.002387
vt 0.147461 0.608398
vt 0.147461 0.629883
vt 0.153320 0.629883
vt 0.925781 0.973633
vt 0.925781 0.979492
vt 0.931641 0.979492
vt 0.131836 0.608398
vt 0.131836 0.629883
vt 0.137695 0.629883
vt 0.179688 0.608398
vt 0.179688 0.629883
vt 0.185547 0.629883
vt 0.941406 0.973633
vt 0.941406 0.979492
vt 0.947266 0.979492
vt 0.163086 0.608398
vt 0.163086 0.629883
vt 0.168945 0.629883
vt 0.084961 0.577148
vt 0.079102 0.577148
vt 0.079102 0.598633
vt 0.074219 0.577148
vt 0.068359 0.577148
vt 0.068359 0.598633
vt 0.597656 0.656250
vt 0.591797 0.656250
vt 0.591797 0.662109
vt 0.122070 0.577148
vt 0.116211 0.577148
vt 0.116211 0.598633
vt 0.110352 0.580078
vt 0.106445 0.580078
vt 0.106445 0.595703
vt 0.576172 0.656250
vt 0.576172 0.662109
vt 0.582031 0.662109
vt 0.089844 0.608398
vt 0.083984 0.608398
vt 0.083984 0.629883
vt 0.074219 0.608398
vt 0.068359 0.608398
vt 0.068359 0.629883
vt 0.591797 0.640625
vt 0.591797 0.646484
vt 0.597656 0.646484
vt 0.122070 0.608398
vt 0.116211 0.608398
vt 0.116211 0.629883
vt 0.111328 0.605469
vt 0.105469 0.605469
vt 0.105469 0.626953
vt 0.576172 0.640625
vt 0.576172 0.646484
vt 0.582031 0.646484
vt 0.021484 0.577148
vt 0.015625 0.577148
vt 0.015625 0.598633
vt 0.010742 0.577148
vt 0.004883 0.577148
vt 0.004883 0.598633
vt 0.629883 0.656250
vt 0.624023 0.656250
vt 0.624023 0.662109
vt 0.058594 0.577148
vt 0.052734 0.577148
vt 0.052734 0.598633
vt 0.047852 0.576172
vt 0.041992 0.576172
vt 0.041992 0.597656
vt 0.608398 0.656250
vt 0.608398 0.662109
vt 0.614258 0.662109
vt 0.026367 0.608398
vt 0.020508 0.608398
vt 0.020508 0.629883
vt 0.005859 0.606445
vt -0.000000 0.606445
vt -0.000000 0.627930
vt 0.624023 0.640625
vt 0.624023 0.646484
vt 0.629883 0.646484
vt 0.058594 0.608398
vt 0.052734 0.608398
vt 0.052734 0.629883
vt 0.041992 0.608398
vt 0.036133 0.608398
vt 0.036133 0.629883
vt 0.608398 0.640625
vt 0.608398 0.646484
vt 0.614258 0.646484
vt 0.893555 0.973633
vt 0.893555 0.995117
vt 0.915039 0.995117
vt 0.597656 0.004883
vt 0.591797 0.004883
vt 0.591797 0.027344
vt 0.576172 0.004883
vt 0.576172 0.027344
vt 0.582031 0.027344
vt 0.957031 0.958008
vt 0.957031 0.979492
vt 0.978516 0.979492
vt 0.629883 0.004883
vt 0.624023 0.004883
vt 0.624023 0.027344
vt 0.608398 0.004883
vt 0.608398 0.027344
vt 0.614258 0.027344
vt 0.591797 0.037109
vt 0.591797 0.058594
vt 0.597656 0.058594
vt 0.591797 0.687500
vt 0.591797 0.693359
vt 0.597656 0.693359
vt 0.576172 0.037109
vt 0.576172 0.058594
vt 0.582031 0.058594
vt 0.624023 0.037109
vt 0.624023 0.058594
vt 0.629883 0.058594
vt 0.576172 0.687500
vt 0.576172 0.693359
vt 0.582031 0.693359
vt 0.608398 0.037109
vt 0.608398 0.058594
vt 0.614258 0.058594
vt 0.464844 0.544922
vt 0.464844 0.566406
vt 0.470703 0.566406
vt 0.591797 0.671875
vt 0.591797 0.677734
vt 0.597656 0.677734
vt 0.449219 0.544922
vt 0.449219 0.566406
vt 0.455078 0.566406
vt 0.497070 0.544922
vt 0.497070 0.566406
vt 0.502930 0.566406
vt 0.576172 0.671875
vt 0.576172 0.677734
vt 0.582031 0.677734
vt 0.480469 0.544922
vt 0.480469 0.566406
vt 0.487305 0.566406
vt 0.464844 0.577148
vt 0.464844 0.598633
vt 0.470703 0.598633
vt 0.624023 0.687500
vt 0.624023 0.693359
vt 0.629883 0.693359
vt 0.449219 0.577148
vt 0.449219 0.598633
vt 0.455078 0.598633
vt 0.497070 0.577148
vt 0.497070 0.598633
vt 0.502930 0.598633
vt 0.608398 0.687500
vt 0.608398 0.693359
vt 0.614258 0.693359
vt 0.480469 0.577148
vt 0.480469 0.598633
vt 0.487305 0.598633
vt 0.401367 0.544922
vt 0.401367 0.566406
vt 0.407227 0.566406
vt 0.624023 0.671875
vt 0.624023 0.677734
vt 0.629883 0.677734
vt 0.385742 0.544922
vt 0.385742 0.566406
vt 0.391602 0.566406
vt 0.433594 0.544922
vt 0.433594 0.566406
vt 0.439453 0.566406
vt 0.608398 0.671875
vt 0.608398 0.677734
vt 0.614258 0.677734
vt 0.416992 0.544922
vt 0.416992 0.566406
vt 0.422852 0.566406
vt 0.401367 0.577148
vt 0.401367 0.598633
vt 0.407227 0.598633
vt 0.655273 0.592773
vt 0.655273 0.598633
vt 0.661133 0.598633
vt 0.385742 0.577148
vt 0.385742 0.598633
vt 0.391602 0.598633
vt 0.433594 0.577148
vt 0.433594 0.598633
vt 0.439453 0.598633
vt 0.639648 0.592773
vt 0.639648 0.598633
vt 0.645508 0.598633
vt 0.416992 0.577148
vt 0.416992 0.598633
vt 0.422852 0.598633
vt 0.122070 0.836914
vt 0.122070 0.831055
vt 0.004883 0.831055
vt 0.655273 0.577148
vt 0.655273 0.583008
vt 0.661133 0.583008
vt 0.639648 0.577148
vt 0.639648 0.583008
vt 0.645508 0.583008
vt 0.528320 0.449219
vt 0.528320 0.471680
vt 0.534180 0.471680
vt 0.512695 0.449219
vt 0.512695 0.471680
vt 0.518555 0.471680
vt 0.813477 0.258789
vt 0.809570 0.258789
vt 0.809570 0.375977
vt 0.687500 0.592773
vt 0.687500 0.598633
vt 0.693359 0.598633
vt 0.249023 0.836914
vt 0.249023 0.831055
vt 0.131836 0.831055
vt 0.820312 0.385742
vt 0.814453 0.385742
vt 0.814453 0.502930
vt 0.560547 0.449219
vt 0.560547 0.471680
vt 0.566406 0.471680
vt 0.544922 0.449219
vt 0.544922 0.471680
vt 0.550781 0.471680
vt 0.671875 0.592773
vt 0.671875 0.598633
vt 0.677734 0.598633
vt 0.528320 0.481445
vt 0.528320 0.502930
vt 0.534180 0.502930
vt 0.687500 0.577148
vt 0.687500 0.583008
vt 0.693359 0.583008
vt 0.512695 0.481445
vt 0.512695 0.502930
vt 0.518555 0.502930
vt 0.560547 0.481445
vt 0.560547 0.502930
vt 0.566406 0.502930
vt 0.677734 0.577148
vt 0.671875 0.577148
vt 0.671875 0.583008
vt 0.544922 0.481445
vt 0.544922 0.502930
vt 0.550781 0.502930
vt 0.375977 0.836914
vt 0.375977 0.831055
vt 0.258789 0.831055
vt 0.820312 0.512695
vt 0.814453 0.512695
vt 0.814453 0.629883
vt 0.655273 0.624023
vt 0.655273 0.629883
vt 0.661133 0.629883
vt 0.502930 0.836914
vt 0.502930 0.831055
vt 0.385742 0.831055
vt 0.820312 0.640625
vt 0.814453 0.640625
vt 0.814453 0.756836
vt 0.312500 0.725586
vt 0.312500 0.704102
vt 0.195312 0.704102
vt 0.835938 0.004883
vt 0.830078 0.004883
vt 0.830078 0.122070
vt 0.528320 0.385742
vt 0.528320 0.408203
vt 0.534180 0.408203
vt 0.629883 0.725586
vt 0.629883 0.704102
vt 0.512695 0.704102
vt 0.835938 0.131836
vt 0.830078 0.131836
vt 0.830078 0.249023
vt 0.512695 0.385742
vt 0.512695 0.408203
vt 0.518555 0.408203
vt 0.639648 0.624023
vt 0.639648 0.629883
vt 0.645508 0.629883
vt 0.655273 0.608398
vt 0.655273 0.614258
vt 0.661133 0.614258
vt 0.639648 0.608398
vt 0.639648 0.614258
vt 0.645508 0.614258
vt 0.687500 0.624023
vt 0.687500 0.629883
vt 0.693359 0.629883
vt 0.671875 0.624023
vt 0.671875 0.629883
vt 0.677734 0.629883
vt 0.687500 0.608398
vt 0.687500 0.614258
vt 0.693359 0.614258
vt 0.671875 0.608398
vt 0.671875 0.614258
vt 0.677734 0.614258
vt 0.528320 0.656250
vt 0.528320 0.662109
vt 0.534180 0.662109
vt 0.512695 0.656250
vt 0.512695 0.662109
vt 0.518555 0.662109
vt 0.528320 0.640625
vt 0.528320 0.646484
vt 0.534180 0.646484
vt 0.512695 0.640625
vt 0.512695 0.646484
vt 0.518555 0.646484
vt 0.560547 0.656250
vt 0.560547 0.662109
vt 0.566406 0.662109
vt 0.544922 0.656250
vt 0.544922 0.662109
vt 0.550781 0.662109
vt 0.560547 0.640625
vt 0.560547 0.646484
vt 0.566406 0.646484
vt 0.544922 0.640625
vt 0.544922 0.646484
vt 0.550781 0.646484
vt 0.528320 0.687500
vt 0.528320 0.693359
vt 0.534180 0.693359
vt 0.512695 0.687500
vt 0.512695 0.693359
vt 0.518555 0.693359
vt 0.534180 0.671875
vt 0.528320 0.671875
vt 0.528320 0.677734
vt 0.153320 0.608398
vt 0.931641 0.973633
vt 0.137695 0.608398
vt 0.185547 0.608398
vt 0.947266 0.973633
vt 0.168945 0.608398
vt 0.084961 0.598633
vt 0.074219 0.598633
vt 0.597656 0.662109
vt 0.122070 0.598633
vt 0.110352 0.595703
vt 0.582031 0.656250
vt 0.089844 0.629883
vt 0.074219 0.629883
vt 0.597656 0.640625
vt 0.122070 0.629883
vt 0.111328 0.626953
vt 0.582031 0.640625
vt 0.021484 0.598633
vt 0.010742 0.598633
vt 0.629883 0.662109
vt 0.058594 0.598633
vt 0.047852 0.597656
vt 0.614258 0.656250
vt 0.026367 0.629883
vt 0.005859 0.627930
vt 0.629883 0.640625
vt 0.058594 0.629883
vt 0.041992 0.629883
vt 0.614258 0.640625
vt 0.915039 0.973633
vt 0.597656 0.027344
vt 0.582031 0.004883
vt 0.978516 0.958008
vt 0.629883 0.027344
vt 0.614258 0.004883
vt 0.597656 0.037109
vt 0.597656 0.687500
vt 0.582031 0.037109
vt 0.629883 0.037109
vt 0.582031 0.687500
vt 0.614258 0.037109
vt 0.470703 0.544922
vt 0.597656 0.671875
vt 0.455078 0.544922
vt 0.502930 0.544922
vt 0.582031 0.671875
vt 0.487305 0.544922
vt 0.470703 0.577148
vt 0.629883 0.687500
vt 0.455078 0.577148
vt 0.502930 0.577148
vt 0.614258 0.687500
vt 0.487305 0.577148
vt 0.407227 0.544922
vt 0.629883 0.671875
vt 0.391602 0.544922
vt 0.439453 0.544922
vt 0.614258 0.671875
vt 0.422852 0.544922
vt 0.407227 0.577148
vt 0.661133 0.592773
vt 0.391602 0.577148
vt 0.439453 0.577148
vt 0.645508 0.592773
vt 0.422852 0.577148
vt 0.004883 0.836914
vt 0.661133 0.577148
vt 0.645508 0.577148
vt 0.534180 0.449219
vt 0.518555 0.449219
vt 0.813477 0.375977
vt 0.693359 0.592773
vt 0.131836 0.836914
vt 0.820312 0.502930
vt 0.566406 0.449219
vt 0.550781 0.449219
vt 0.677734 0.592773
vt 0.534180 0.481445
vt 0.693359 0.577148
vt 0.518555 0.481445
vt 0.566406 0.481445
vt 0.677734 0.583008
vt 0.550781 0.481445
vt 0.258789 0.836914
vt 0.820312 0.629883
vt 0.661133 0.624023
vt 0.385742 0.836914
vt 0.820312 0.756836
vt 0.195312 0.725586
vt 0.835938 0.122070
vt 0.534180 0.385742
vt 0.512695 0.725586
vt 0.835938 0.249023
vt 0.518555 0.385742
vt 0.645508 0.624023
vt 0.661133 0.608398
vt 0.645508 0.608398
vt 0.693359 0.624023
vt 0.677734 0.624023
vt 0.693359 0.608398
vt 0.677734 0.608398
vt 0.534180 0.656250
vt 0.518555 0.656250
vt 0.534180 0.640625
vt 0.518555 0.640625
vt 0.566406 0.656250
vt 0.550781 0.656250
vt 0.566406 0.640625
vt 0.550781 0.640625
vt 0.534180 0.687500
vt 0.518555 0.687500
vt 0.534180 0.677734
vn 0.000000 0.000000 1.000000
vn -1.000000 0.000000 0.000000
vn 0.000000 1.000000 0.000000
vn -0.000000 0.000000 -1.000000
vn 1.000000 0.000000 -0.000000
vn 0.000000 -1.000000 -0.000000
vn -0.707100 0.000000 0.707100
vn -0.707100 0.000000 -0.707100
vn 0.707100 0.000000 -0.707100
vn 0.707100 0.000000 0.707100
vn -0.000000 -0.707100 0.707100
vn -0.000000 0.707100 0.707100
vn 0.000000 0.707100 -0.707100
vn 0.000000 -0.707100 -0.707100
usemtl Material1
s off
f 2/1/1 1/2/1 5/3/1
f 3/4/2 2/5/2 6/6/2
f 6/7/3 5/8/3 8/9/3
f 4/10/4 3/11/4 7/12/4
f 1/13/5 4/14/5 8/15/5
f 3/16/6 4/17/6 1/18/6
f 10/19/7 9/20/7 13/21/7
f 11/22/8 10/23/8 14/24/8
f 15/25/3 14/26/3 13/27/3
f 12/28/9 11/29/9 15/30/9
f 9/31/10 12/32/10 16/33/10
f 11/34/6 12/35/6 9/36/6
f 18/37/1 17/38/1 21/39/1
f 19/40/2 18/41/2 22/42/2
f 22/43/3 21/44/3 24/45/3
f 20/46/4 19/47/4 23/48/4
f 17/49/5 20/50/5 24/51/5
f 19/52/6 20/53/6 17/54/6
f 26/55/7 25/56/7 29/57/7
f 27/58/8 26/59/8 30/60/8
f 31/61/3 30/62/3 29/63/3
f 28/64/9 27/65/9 31/66/9
f 25/67/10 28/68/10 32/69/10
f 27/70/6 28/71/6 25/72/6
f 34/73/1 33/74/1 37/75/1
f 35/76/2 34/77/2 38/78/2
f 38/79/3 37/80/3 40/81/3
f 36/82/4 35/83/4 39/84/4
f 33/85/5 36/86/5 40/87/5
f 35/88/6 36/89/6 33/90/6
f 42/91/1 41/92/1 45/93/1
f 43/94/2 42/95/2 46/96/2
f 46/97/3 45/98/3 48/99/3
f 44/100/4 43/101/4 47/102/4
f 41/103/5 44/104/5 48/105/5
f 43/106/6 44/107/6 41/108/6
f 50/109/1 49/110/1 53/111/1
f 51/112/2 50/113/2 54/114/2
f 54/115/3 53/116/3 56/117/3
f 52/118/4 51/119/4 55/120/4
f 49/121/5 52/122/5 56/123/5
f 51/124/6 52/125/6 49/126/6
f 58/127/1 57/128/1 61/129/1
f 59/130/2 58/131/2 62/132/2
f 62/133/3 61/134/3 64/135/3
f 60/136/4 59/137/4 63/138/4
f 57/139/5 60/140/5 64/141/5
f 59/142/6 60/143/6 57/144/6
f 66/145/1 65/146/1 69/147/1
f 67/148/2 66/149/2 70/150/2
f 70/151/3 69/152/3 72/153/3
f 68/154/4 67/155/4 71/156/4
f 65/157/5 68/158/5 72/159/5
f 67/160/6 68/161/6 65/162/6
f 74/163/1 73/164/1 77/165/1
f 75/166/2 74/167/2 78/168/2
f 78/169/3 77/170/3 80/171/3
f 76/172/4 75/173/4 79/174/4
f 73/175/5 76/176/5 80/177/5
f 75/178/6 76/179/6 73/180/6
f 82/181/1 81/182/1 85/183/1
f 83/184/2 82/185/2 86/186/2
f 86/187/3 85/188/3 88/189/3
f 84/190/4 83/191/4 87/192/4
f 81/193/5 84/194/5 88/195/5
f 83/196/6 84/197/6 81/198/6
f 92/199/2 91/200/2 94/201/2
f 92/202/6 93/203/6 90/204/6
f 98/205/2 97/206/2 100/207/2
f 99/208/4 98/209/4 101/210/4
f 98/211/6 99/212/6 96/213/6
f 91/214/1 90/215/1 100/216/1
f 94/217/3 100/218/3 101/219/3
f 93/220/4 92/221/4 95/222/4
f 90/223/5 93/224/5 101/225/5
f 97/226/1 96/227/1 89/228/1
f 100/229/3 89/230/3 102/231/3
f 96/232/5 99/233/5 102/234/5
f 104/235/11 103/236/11 107/237/11
f 105/238/2 104/239/2 108/240/2
f 108/241/12 107/242/12 110/243/12
f 106/244/13 105/245/13 109/246/13
f 107/247/5 103/248/5 106/249/5
f 105/250/14 106/251/14 103/252/14
f 112/253/1 111/254/1 115/255/1
f 113/256/2 112/257/2 116/258/2
f 116/259/3 115/260/3 118/261/3
f 114/262/4 113/263/4 117/264/4
f 111/265/5 114/266/5 118/267/5
f 120/268/1 119/269/1 123/270/1
f 121/271/2 120/272/2 124/273/2
f 124/274/3 123/275/3 126/276/3
f 122/277/4 121/278/4 125/279/4
f 119/280/5 122/281/5 126/282/5
f 121/283/6 122/284/6 119/285/6
f 128/286/1 127/287/1 131/288/1
f 129/289/2 128/290/2 132/291/2
f 132/292/3 131/293/3 134/294/3
f 130/295/4 129/296/4 133/297/4
f 127/298/5 130/299/5 134/300/5
f 129/301/6 130/302/6 127/303/6
f 136/304/1 135/305/1 139/306/1
f 137/307/2 136/308/2 140/309/2
f 140/310/3 139/311/3 142/312/3
f 138/313/4 137/314/4 141/315/4
f 135/316/5 138/317/5 142/318/5
f 137/319/6 138/320/6 135/321/6
f 144/322/10 143/323/10 147/324/10
f 145/325/7 144/326/7 148/327/7
f 148/328/3 147/329/3 150/330/3
f 146/331/8 145/332/8 149/333/8
f 143/334/9 146/335/9 150/336/9
f 144/337/6 145/338/6 146/339/6
f 6/340/1 2/1/1 5/3/1
f 7/341/2 3/4/2 6/6/2
f 7/342/3 6/7/3 8/9/3
f 8/343/4 4/10/4 7/12/4
f 5/344/5 1/13/5 8/15/5
f 2/345/6 3/16/6 1/18/6
f 14/346/7 10/19/7 13/21/7
f 15/347/8 11/22/8 14/24/8
f 16/348/3 15/25/3 13/27/3
f 16/349/9 12/28/9 15/30/9
f 13/350/10 9/31/10 16/33/10
f 10/351/6 11/34/6 9/36/6
f 22/352/1 18/37/1 21/39/1
f 23/353/2 19/40/2 22/42/2
f 23/354/3 22/43/3 24/45/3
f 24/355/4 20/46/4 23/48/4
f 21/356/5 17/49/5 24/51/5
f 18/357/6 19/52/6 17/54/6
f 30/358/7 26/55/7 29/57/7
f 31/359/8 27/58/8 30/60/8
f 32/360/3 31/61/3 29/63/3
f 32/361/9 28/64/9 31/66/9
f 29/362/10 25/67/10 32/69/10
f 26/363/6 27/70/6 25/72/6
f 38/364/1 34/73/1 37/75/1
f 39/365/2 35/76/2 38/78/2
f 39/366/3 38/79/3 40/81/3
f 40/367/4 36/82/4 39/84/4
f 37/368/5 33/85/5 40/87/5
f 34/369/6 35/88/6 33/90/6
f 46/370/1 42/91/1 45/93/1
f 47/371/2 43/94/2 46/96/2
f 47/372/3 46/97/3 48/99/3
f 48/373/4 44/100/4 47/102/4
f 45/374/5 41/103/5 48/105/5
f 42/375/6 43/106/6 41/108/6
f 54/376/1 50/109/1 53/111/1
f 55/377/2 51/112/2 54/114/2
f 55/378/3 54/115/3 56/117/3
f 56/379/4 52/118/4 55/120/4
f 53/380/5 49/121/5 56/123/5
f 50/381/6 51/124/6 49/126/6
f 62/382/1 58/127/1 61/129/1
f 63/383/2 59/130/2 62/132/2
f 63/384/3 62/133/3 64/135/3
f 64/385/4 60/136/4 63/138/4
f 61/386/5 57/139/5 64/141/5
f 58/387/6 59/142/6 57/144/6
f 70/388/1 66/145/1 69/147/1
f 71/389/2 67/148/2 70/150/2
f 71/390/3 70/151/3 72/153/3
f 72/391/4 68/154/4 71/156/4
f 69/392/5 65/157/5 72/159/5
f 66/393/6 67/160/6 65/162/6
f 78/394/1 74/163/1 77/165/1
f 79/395/2 75/166/2 78/168/2
f 79/396/3 78/169/3 80/171/3
f 80/397/4 76/172/4 79/174/4
f 77/398/5 73/175/5 80/177/5
f 74/399/6 75/178/6 73/180/6
f 86/400/1 82/181/1 85/183/1
f 87/401/2 83/184/2 86/186/2
f 87/402/3 86/187/3 88/189/3
f 88/403/4 84/190/4 87/192/4
f 85/404/5 81/193/5 88/195/5
f 82/405/6 83/196/6 81/198/6
f 95/406/2 92/199/2 94/201/2
f 91/407/6 92/202/6 90/204/6
f 101/408/2 98/205/2 100/207/2
f 102/409/4 99/208/4 101/210/4
f 97/410/6 98/211/6 96/213/6
f 94/411/1 91/214/1 100/216/1
f 95/412/3 94/217/3 101/219/3
f 101/413/4 93/220/4 95/222/4
f 100/414/5 90/223/5 101/225/5
f 100/415/1 97/226/1 89/228/1
f 101/416/3 100/229/3 102/231/3
f 89/417/5 96/232/5 102/234/5
f 108/418/11 104/235/11 107/237/11
f 109/419/2 105/238/2 108/240/2
f 109/420/12 108/241/12 110/243/12
f 110/421/13 106/244/13 109/246/13
f 110/422/5 107/247/5 106/249/5
f 104/423/14 105/250/14 103/252/14
f 116/424/1 112/253/1 115/255/1
f 117/425/2 113/256/2 116/258/2
f 117/426/3 116/259/3 118/261/3
f 118/427/4 114/262/4 117/264/4
f 115/428/5 111/265/5 118/267/5
f 124/429/1 120/268/1 123/270/1
f 125/430/2 121/271/2 124/273/2
f 125/431/3 124/274/3 126/276/3
f 126/432/4 122/277/4 125/279/4
f 123/433/5 119/280/5 126/282/5
f 120/434/6 121/283/6 119/285/6
f 132/435/1 128/286/1 131/288/1
f 133/436/2 129/289/2 132/291/2
f 133/437/3 132/292/3 134/294/3
f 134/438/4 130/295/4 133/297/4
f 131/439/5 127/298/5 134/300/5
f 128/440/6 129/301/6 127/303/6
f 140/441/1 136/304/1 139/306/1
f 141/442/2 137/307/2 140/309/2
f 141/443/3 140/310/3 142/312/3
f 142/444/4 138/313/4 141/315/4
f 139/445/5 135/316/5 142/318/5
f 136/446/6 137/319/6 135/321/6
f 148/447/10 144/322/10 147/324/10
f 149/448/7 145/325/7 148/327/7
f 149/449/3 148/328/3 150/330/3
f 150/450/8 146/331/8 149/333/8
f 147/451/9 143/334/9 150/336/9
f 143/452/6 144/337/6 146/339/6
