# Blender v2.79 (sub 1) OBJ File: 'untitled.blend'
# www.blender.org
mtllib dalek_gun.mtl
o dalek_gun
v -0.117243 -0.542525 -0.509155
v -0.125056 -0.550338 -0.009155
v -0.125056 -0.487838 -0.009155
v -0.117243 -0.495650 -0.509155
v -0.062556 -0.550338 -0.009155
v -0.070368 -0.542525 -0.509155
v -0.070368 -0.495650 -0.509155
v -0.062556 -0.487838 -0.009155
v -0.062556 -0.550338 -0.109155
v -0.062556 -0.487838 -0.109155
v -0.125056 -0.550338 -0.109155
v -0.125056 -0.487838 -0.109155
v -0.070368 -0.542525 -0.129155
v -0.117243 -0.495650 -0.129155
v -0.070368 -0.495650 -0.129155
v -0.117243 -0.542525 -0.129155
v -0.123257 -0.548539 -0.526247
v -0.064355 -0.548539 -0.526247
v -0.123257 -0.489636 -0.526247
v -0.064355 -0.489636 -0.526247
v -0.123257 -0.548539 -0.553808
v -0.064355 -0.548539 -0.553808
v -0.123257 -0.489636 -0.553808
v -0.064355 -0.489636 -0.553808
v -0.115054 -0.540336 -0.553588
v -0.072558 -0.540336 -0.553588
v -0.115054 -0.497840 -0.553588
v -0.072558 -0.497840 -0.553588
v -0.102531 -0.498583 -0.509155
v -0.085081 -0.498583 -0.509155
v -0.102531 -0.498583 -0.129155
v -0.085081 -0.498583 -0.129155
v -0.102531 -0.472592 -0.160822
v -0.102531 -0.472592 -0.477488
v -0.085081 -0.472592 -0.477488
v -0.085081 -0.472592 -0.160822
v -0.085081 -0.539592 -0.509155
v -0.102531 -0.539592 -0.509155
v -0.085081 -0.539592 -0.129155
v -0.102531 -0.539592 -0.129155
v -0.085081 -0.565583 -0.160822
v -0.085081 -0.565583 -0.477488
v -0.102531 -0.565583 -0.477488
v -0.102531 -0.565583 -0.160822
v -0.073301 -0.510363 -0.509155
v -0.073301 -0.527812 -0.509155
v -0.073301 -0.510363 -0.129155
v -0.073301 -0.527812 -0.129155
v -0.047311 -0.510363 -0.160822
v -0.047311 -0.510363 -0.477488
v -0.047311 -0.527812 -0.477488
v -0.047311 -0.527812 -0.160822
v -0.114311 -0.527812 -0.509155
v -0.114311 -0.510363 -0.509155
v -0.114311 -0.527812 -0.129155
v -0.114311 -0.510363 -0.129155
v -0.140301 -0.527812 -0.160822
v -0.140301 -0.527812 -0.477488
v -0.140301 -0.510363 -0.477488
v -0.140301 -0.510363 -0.160822
v -0.120514 -0.480041 -0.160822
v -0.120514 -0.480041 -0.477488
v -0.132852 -0.492380 -0.477488
v -0.132852 -0.492380 -0.160822
v -0.102136 -0.498419 -0.129155
v -0.114474 -0.510758 -0.129155
v -0.102136 -0.498419 -0.509155
v -0.114474 -0.510758 -0.509155
v -0.067098 -0.558134 -0.160822
v -0.067098 -0.558134 -0.477488
v -0.054760 -0.545795 -0.477488
v -0.054760 -0.545795 -0.160822
v -0.085476 -0.539756 -0.129155
v -0.073138 -0.527417 -0.129155
v -0.085476 -0.539756 -0.509155
v -0.073138 -0.527417 -0.509155
v -0.132852 -0.545795 -0.160822
v -0.132852 -0.545795 -0.477488
v -0.120514 -0.558134 -0.477488
v -0.120514 -0.558134 -0.160822
v -0.114474 -0.527417 -0.129155
v -0.102136 -0.539756 -0.129155
v -0.114474 -0.527417 -0.509155
v -0.102136 -0.539756 -0.509155
v -0.054760 -0.492380 -0.160822
v -0.054760 -0.492380 -0.477488
v -0.067098 -0.480041 -0.477488
v -0.067098 -0.480041 -0.160822
v -0.073138 -0.510758 -0.129155
v -0.085476 -0.498419 -0.129155
v -0.073138 -0.510758 -0.509155
v -0.085476 -0.498419 -0.509155
v -0.115054 -0.540336 -0.565342
v -0.072558 -0.540336 -0.565342
v -0.115054 -0.497840 -0.565342
v -0.072558 -0.497840 -0.565342
v -0.108817 -0.534099 -0.565342
v -0.078795 -0.534099 -0.565342
v -0.108817 -0.504076 -0.565342
v -0.078795 -0.504076 -0.565342
v -0.108817 -0.534099 -0.553785
v -0.078795 -0.534099 -0.553785
v -0.108817 -0.504076 -0.553785
v -0.078795 -0.504076 -0.553785
vt 0.278571 0.692857
vt 0.307143 0.692857
vt 0.307143 0.700000
vt 0.278571 0.700000
vt 0.357143 0.692857
vt 0.371429 0.692857
vt 0.371429 0.700000
vt 0.357143 0.700000
vt 0.307143 0.707143
vt 0.278571 0.707143
vt 0.335715 0.700000
vt 0.364286 0.700000
vt 0.364286 0.707143
vt 0.335715 0.707143
vt 0.371007 0.699556
vt 0.371007 0.693301
vt 0.371007 0.693301
vt 0.371007 0.699556
vt 0.314286 0.692857
vt 0.314286 0.700000
vt 0.321429 0.700000
vt 0.321429 0.707143
vt 0.264286 0.700000
vt 0.264286 0.707143
vt 0.342857 0.692857
vt 0.342857 0.700000
vt 0.264286 0.692857
vt 0.250000 0.692857
vt 0.250000 0.700000
vt 0.250000 0.707143
vt 0.307143 0.700000
vt 0.307143 0.707143
vt 0.371007 0.693301
vt 0.371007 0.699556
vt 0.250000 0.707143
vt 0.250000 0.700000
vt 0.307143 0.707143
vt 0.307143 0.700000
vt 0.250000 0.692857
vt 0.250000 0.692857
vt 0.250000 0.700000
vt 0.250000 0.700000
vt 0.250000 0.692857
vt 0.307143 0.707143
vt 0.307143 0.700000
vt 0.250000 0.707143
vt 0.250000 0.707143
vt 0.250000 0.707143
vt 0.250000 0.700000
vt 0.371007 0.693301
vt 0.371007 0.699556
vt 0.307143 0.707143
vt 0.307143 0.700000
vt 0.259524 0.700000
vt 0.264286 0.700000
vt 0.264286 0.707143
vt 0.259524 0.707143
vt 0.250000 0.700000
vt 0.254762 0.700000
vt 0.254762 0.707143
vt 0.250000 0.707143
vt 0.259524 0.700000
vt 0.264286 0.700000
vt 0.264286 0.707143
vt 0.259524 0.707143
vt 0.250000 0.700000
vt 0.254762 0.700000
vt 0.254762 0.707143
vt 0.250000 0.707143
vt 0.259524 0.700000
vt 0.264286 0.700000
vt 0.264286 0.707143
vt 0.259524 0.707143
vt 0.250000 0.700000
vt 0.254762 0.700000
vt 0.254762 0.707143
vt 0.250000 0.707143
vt 0.259524 0.700000
vt 0.264286 0.700000
vt 0.264286 0.707143
vt 0.259524 0.707143
vt 0.250000 0.700000
vt 0.254762 0.700000
vt 0.254762 0.707143
vt 0.250000 0.707143
vt 0.250000 0.700000
vt 0.254762 0.700000
vt 0.254762 0.707143
vt 0.250000 0.707143
vt 0.259524 0.700000
vt 0.259524 0.707143
vt 0.264286 0.700000
vt 0.264286 0.707143
vt 0.250000 0.700000
vt 0.254762 0.700000
vt 0.254762 0.707143
vt 0.250000 0.707143
vt 0.259524 0.700000
vt 0.259524 0.707143
vt 0.264286 0.700000
vt 0.264286 0.707143
vt 0.250000 0.700000
vt 0.254762 0.700000
vt 0.254762 0.707143
vt 0.250000 0.707143
vt 0.259524 0.700000
vt 0.259524 0.707143
vt 0.264286 0.700000
vt 0.264286 0.707143
vt 0.250000 0.700000
vt 0.254762 0.700000
vt 0.254762 0.707143
vt 0.250000 0.707143
vt 0.259524 0.700000
vt 0.259524 0.707143
vt 0.264286 0.700000
vt 0.264286 0.707143
vt 0.250000 0.707143
vt 0.250000 0.700000
vt 0.371007 0.693301
vt 0.371007 0.699556
vt 0.307143 0.707143
vt 0.307143 0.700000
vt 0.250000 0.692857
vt 0.371007 0.699556
vt 0.371007 0.693301
vt 0.371007 0.693301
vt 0.371007 0.699556
vt 0.307143 0.707143
vt 0.307143 0.700000
vt 0.250000 0.692857
vt 0.242857 0.692857
vt 0.250000 0.692857
vt 0.250000 0.700000
vt 0.242857 0.700000
vt 0.307143 0.707143
vt 0.307143 0.700000
vt 0.250000 0.707143
vn -1.0000 0.0000 0.0000
vn 1.0000 0.0000 0.0000
vn 0.0000 1.0000 0.0000
vn 0.0000 -1.0000 -0.0000
vn 0.9433 0.0000 0.3319
vn 0.0000 -0.0000 1.0000
vn 0.0000 -0.9315 -0.3639
vn 0.0000 0.9315 -0.3638
vn -0.9315 0.0000 -0.3639
vn 0.9315 0.0000 -0.3639
vn 0.0000 0.9433 0.3319
vn 0.0000 -0.9433 0.3319
vn -0.9433 0.0000 0.3319
vn 0.0268 0.0000 -0.9996
vn 0.0000 -0.0268 -0.9996
vn -0.0268 0.0000 -0.9996
vn 0.0000 0.0268 -0.9996
vn 0.0000 0.7730 0.6344
vn -0.0000 0.7730 -0.6344
vn -0.0000 -0.7730 0.6344
vn 0.0000 -0.7730 -0.6344
vn 0.7730 -0.0000 0.6344
vn 0.7730 0.0000 -0.6344
vn -0.7730 0.0000 0.6344
vn -0.7730 -0.0000 -0.6344
vn -0.5466 0.5466 -0.6344
vn -0.7071 0.7071 -0.0000
vn -0.5466 0.5466 0.6344
vn 0.5466 -0.5466 -0.6344
vn 0.7071 -0.7071 0.0000
vn 0.5466 -0.5466 0.6344
vn -0.5466 -0.5466 -0.6344
vn -0.7071 -0.7071 -0.0000
vn -0.5466 -0.5466 0.6344
vn 0.5466 0.5466 -0.6344
vn 0.7071 0.7071 0.0000
vn 0.5466 0.5466 0.6344
vn 0.0000 0.0000 -1.0000
usemtl Material.001
s off
f 11/1/1 2/2/1 3/3/1 12/4/1
f 13/5/2 6/6/2 7/7/2 15/8/2
f 12/4/3 3/3/3 8/9/3 10/10/3
f 9/11/4 5/12/4 2/13/4 11/14/4
f 7/15/5 6/16/5 18/17/5 20/18/5
f 2/2/6 5/19/6 8/20/6 3/3/6
f 13/21/7 9/11/7 11/14/7 16/22/7
f 14/23/8 12/4/8 10/10/8 15/24/8
f 5/19/2 9/25/2 10/26/2 8/20/2
f 16/27/9 11/1/9 12/4/9 14/23/9
f 1/28/1 16/27/1 14/23/1 4/29/1
f 4/29/3 14/23/3 15/24/3 7/30/3
f 6/31/4 13/21/4 16/22/4 1/32/4
f 9/25/10 13/5/10 15/8/10 10/26/10
f 20/18/2 18/17/2 22/33/2 24/34/2
f 4/29/11 7/30/11 20/35/11 19/36/11
f 6/31/12 1/32/12 17/37/12 18/38/12
f 1/28/13 4/29/13 19/36/13 17/39/13
f 21/40/14 23/41/14 27/42/14 25/43/14
f 18/38/4 17/37/4 21/44/4 22/45/4
f 17/39/1 19/36/1 23/41/1 21/40/1
f 19/36/3 20/35/3 24/46/3 23/41/3
f 27/42/3 28/47/3 96/48/3 95/49/3
f 23/41/15 24/46/15 28/47/15 27/42/15
f 24/34/16 22/33/16 26/50/16 28/51/16
f 22/45/17 21/44/17 25/52/17 26/53/17
f 33/54/18 31/55/18 32/56/18 36/57/18
f 29/58/19 34/59/19 35/60/19 30/61/19
f 34/59/3 33/54/3 36/57/3 35/60/3
f 41/62/20 39/63/20 40/64/20 44/65/20
f 37/66/21 42/67/21 43/68/21 38/69/21
f 42/67/4 41/62/4 44/65/4 43/68/4
f 49/70/22 47/71/22 48/72/22 52/73/22
f 45/74/23 50/75/23 51/76/23 46/77/23
f 50/75/2 49/70/2 52/73/2 51/76/2
f 57/78/24 55/79/24 56/80/24 60/81/24
f 53/82/25 58/83/25 59/84/25 54/85/25
f 58/83/1 57/78/1 60/81/1 59/84/1
f 68/86/26 63/87/26 62/88/26 67/89/26
f 63/87/27 64/90/27 61/91/27 62/88/27
f 64/90/28 66/92/28 65/93/28 61/91/28
f 76/94/29 71/95/29 70/96/29 75/97/29
f 71/95/30 72/98/30 69/99/30 70/96/30
f 72/98/31 74/100/31 73/101/31 69/99/31
f 84/102/32 79/103/32 78/104/32 83/105/32
f 79/103/33 80/106/33 77/107/33 78/104/33
f 80/106/34 82/108/34 81/109/34 77/107/34
f 92/110/35 87/111/35 86/112/35 91/113/35
f 87/111/36 88/114/36 85/115/36 86/112/36
f 88/114/37 90/116/37 89/117/37 85/115/37
f 95/49/38 96/48/38 100/118/38 99/119/38
f 28/51/2 26/50/2 94/120/2 96/121/2
f 26/53/4 25/52/4 93/122/4 94/123/4
f 25/43/1 27/42/1 95/49/1 93/124/1
f 100/125/1 98/126/1 102/127/1 104/128/1
f 96/121/38 94/120/38 98/126/38 100/125/38
f 94/123/38 93/122/38 97/129/38 98/130/38
f 93/124/38 95/49/38 99/119/38 97/131/38
f 102/132/38 101/133/38 103/134/38 104/135/38
f 98/130/3 97/129/3 101/136/3 102/137/3
f 97/131/2 99/119/2 103/134/2 101/133/2
f 99/119/4 100/118/4 104/138/4 103/134/4
