# Blender v2.79 (sub 1) OBJ File: 'untitled.blend'
# www.blender.org
mtllib dalek_head.mtl
o dalek_head
v 0.124944 -0.637974 -0.265155
v -0.312556 -0.637974 -0.265155
v -0.312556 -0.387974 -0.265155
v 0.124944 -0.387974 -0.265155
v -0.312556 -0.637974 0.234845
v 0.124944 -0.637974 0.234845
v 0.124944 -0.387974 0.234845
v -0.312556 -0.387974 0.234845
v -0.257892 -0.545173 -0.015155
v -0.257892 -0.545173 -0.077655
v -0.348794 -0.381182 -0.077655
v -0.348794 -0.381182 -0.015155
v -0.312556 -0.575474 -0.077655
v -0.312556 -0.575474 -0.015155
v -0.403458 -0.411483 -0.015155
v -0.403458 -0.411483 -0.077655
v 0.124944 -0.575474 -0.015155
v 0.124944 -0.575474 -0.077655
v 0.215846 -0.411483 -0.077655
v 0.215846 -0.411483 -0.015155
v 0.070280 -0.545173 -0.077655
v 0.070280 -0.545173 -0.015155
v 0.161182 -0.381182 -0.015155
v 0.161182 -0.381182 -0.077655
v 0.187444 -0.700474 -0.327655
v -0.375056 -0.700474 -0.327655
v -0.375056 -0.512974 -0.327655
v 0.187444 -0.512974 -0.327655
v -0.375056 -0.700474 0.297345
v 0.187444 -0.700474 0.297345
v 0.187444 -0.512974 0.297345
v -0.375056 -0.512974 0.297345
vt 0.057143 0.914286
vt 0.107143 0.914286
vt 0.107143 0.942857
vt 0.057143 0.942857
vt 0.164286 0.914286
vt 0.214286 0.914286
vt 0.214286 0.942857
vt 0.164286 0.942857
vt 0.107143 1.000000
vt 0.057143 1.000000
vt 0.107143 0.942857
vt 0.157143 0.942857
vt 0.157143 1.000000
vt 0.107143 1.000000
vt 0.000000 0.914286
vt 0.000000 0.942857
vt 0.042857 0.607143
vt 0.050000 0.607143
vt 0.050000 0.628571
vt 0.042857 0.628571
vt 0.057143 0.607143
vt 0.064286 0.607143
vt 0.064286 0.628571
vt 0.057143 0.628571
vt 0.050000 0.635714
vt 0.042857 0.635714
vt 0.050000 0.628571
vt 0.057143 0.628571
vt 0.057143 0.635714
vt 0.050000 0.635714
vt 0.035714 0.607143
vt 0.035714 0.628571
vt 0.007143 0.607143
vt 0.014286 0.607143
vt 0.014286 0.628571
vt 0.007143 0.628571
vt 0.021429 0.607143
vt 0.028571 0.607143
vt 0.028571 0.628571
vt 0.021429 0.628571
vt 0.014286 0.635714
vt 0.007143 0.635714
vt 0.014286 0.628571
vt 0.021429 0.628571
vt 0.021429 0.635714
vt 0.014286 0.635714
vt 0.000000 0.607143
vt 0.000000 0.628571
vt 0.071429 0.821429
vt 0.135714 0.821429
vt 0.135714 0.842857
vt 0.071429 0.842857
vt 0.207143 0.821429
vt 0.271429 0.821429
vt 0.271429 0.842857
vt 0.207143 0.842857
vt 0.135714 0.914286
vt 0.071429 0.914286
vt 0.135714 0.842857
vt 0.200000 0.842857
vt 0.200000 0.914286
vt 0.135714 0.914286
vt 0.000000 0.821429
vt 0.000000 0.842857
vn 0.0000 0.0000 -1.0000
vn 0.0000 -0.0000 1.0000
vn 0.0000 1.0000 0.0000
vn 0.0000 -1.0000 -0.0000
vn 1.0000 0.0000 0.0000
vn -1.0000 0.0000 0.0000
vn 0.8746 0.4848 0.0000
vn -0.8746 -0.4848 0.0000
vn -0.4848 0.8746 0.0000
vn 0.4848 -0.8746 0.0000
vn 0.8746 -0.4848 0.0000
vn -0.8746 0.4848 0.0000
vn 0.4848 0.8746 0.0000
vn -0.4848 -0.8746 0.0000
usemtl Material.001
s off
f 1/1/1 2/2/1 3/3/1 4/4/1
f 5/5/2 6/6/2 7/7/2 8/8/2
f 4/4/3 3/3/3 8/9/3 7/10/3
f 6/11/4 5/12/4 2/13/4 1/14/4
f 6/15/5 1/1/5 4/4/5 7/16/5
f 2/2/6 5/5/6 8/8/6 3/3/6
f 9/17/7 10/18/7 11/19/7 12/20/7
f 13/21/8 14/22/8 15/23/8 16/24/8
f 12/20/9 11/19/9 16/25/9 15/26/9
f 14/27/10 13/28/10 10/29/10 9/30/10
f 14/31/2 9/17/2 12/20/2 15/32/2
f 10/18/1 13/21/1 16/24/1 11/19/1
f 17/33/11 18/34/11 19/35/11 20/36/11
f 21/37/12 22/38/12 23/39/12 24/40/12
f 20/36/13 19/35/13 24/41/13 23/42/13
f 22/43/14 21/44/14 18/45/14 17/46/14
f 22/47/2 17/33/2 20/36/2 23/48/2
f 18/34/1 21/37/1 24/40/1 19/35/1
f 25/49/1 26/50/1 27/51/1 28/52/1
f 29/53/2 30/54/2 31/55/2 32/56/2
f 28/52/3 27/51/3 32/57/3 31/58/3
f 30/59/4 29/60/4 26/61/4 25/62/4
f 30/63/5 25/49/5 28/52/5 31/64/5
f 26/50/6 29/53/6 32/56/6 27/51/6
