# Blender v2.75 (sub 0) OBJ File: 'Monitor.blend'
# www.blender.org
mtllib 2010_copper_monitor.mtl
o 2010Monitor
v 0.625000 0.375000 0.225000
v -0.625000 0.375000 0.225000
v -0.625000 0.375000 -0.225000
v 0.625000 0.375000 -0.225000
v 0.625000 0.625000 0.225000
v -0.625000 0.625000 0.225000
v -0.625000 0.625000 -0.225000
v 0.625000 0.625000 -0.225000
v -0.500000 0.625114 0.225000
v -0.750000 0.625114 0.225000
v -0.750000 0.625114 -0.225000
v -0.500000 0.625114 -0.225000
v -0.500000 1.375215 0.225000
v -0.750000 1.375215 0.225000
v -0.750000 1.375215 -0.225000
v -0.500000 1.375215 -0.225000
v 0.750000 0.625114 0.225000
v 0.500000 0.625114 0.225000
v 0.500000 0.625114 -0.225000
v 0.750000 0.625114 -0.225000
v 0.750000 1.375215 0.225000
v 0.500000 1.375215 0.225000
v 0.500000 1.375215 -0.225000
v 0.750000 1.375215 -0.225000
v 0.625000 1.375000 0.225000
v -0.625000 1.375000 0.225000
v -0.625000 1.375000 -0.225000
v 0.625000 1.375000 -0.225000
v 0.625000 1.625000 0.225000
v -0.625000 1.625000 0.225000
v -0.625000 1.625000 -0.225000
v 0.625000 1.625000 -0.225000
v 0.500000 0.625000 0.168750
v -0.500000 0.625000 0.168750
v -0.500000 0.625000 -0.168750
v 0.500000 0.625000 -0.168750
v 0.500000 1.375000 0.168750
v -0.500000 1.375000 0.168750
v -0.500000 1.375000 -0.168750
v 0.500000 1.375000 -0.168750
v 0.687500 0.668011 0.281250
v 0.562500 0.668011 0.281250
v 0.562500 0.668011 0.168750
v 0.687500 0.668011 0.168750
v 0.687500 0.793011 0.281250
v 0.562500 0.793011 0.281250
v 0.562500 0.793011 0.168750
v 0.687500 0.793011 0.168750
v 0.687500 1.212451 0.281250
v 0.562500 1.212451 0.281250
v 0.562500 1.212451 0.168750
v 0.687500 1.212451 0.168750
v 0.687500 1.337451 0.281250
v 0.562500 1.337451 0.281250
v 0.562500 1.337451 0.168750
v 0.687500 1.337451 0.168750
v 0.125000 1.437500 0.281250
v -0.125000 1.437500 0.281250
v -0.125000 1.437500 0.168750
v 0.125000 1.437500 0.168750
v 0.125000 1.562500 0.281250
v -0.125000 1.562500 0.281250
v -0.125000 1.562500 0.168750
v 0.125000 1.562500 0.168750
v 0.375000 1.875000 0.034094
v -0.375000 1.875000 0.034093
v -0.375000 1.875000 0.034093
v 0.375000 1.875000 0.034094
v 0.375000 3.125000 0.034094
v -0.375000 3.125000 0.034093
v -0.375000 3.125000 0.034093
v 0.375000 3.125000 0.034094
v 1.000000 1.750000 0.056250
v -1.000000 1.750000 0.056250
v -1.000000 1.750000 -0.056250
v 1.000000 1.750000 -0.056250
v 1.000000 1.875000 0.056250
v -1.000000 1.875000 0.056250
v -1.000000 1.875000 -0.056250
v 1.000000 1.875000 -0.056250
v 1.000000 0.125000 0.056250
v -1.000000 0.125000 0.056250
v -1.000000 0.125000 -0.056250
v 1.000000 0.125000 -0.056250
v 1.000000 0.250000 0.056250
v -1.000000 0.250000 0.056250
v -1.000000 0.250000 -0.056250
v 1.000000 0.250000 -0.056250
v 1.000000 0.250000 0.056250
v 0.875000 0.250000 0.056250
v 0.875000 0.250000 -0.056250
v 1.000000 0.250000 -0.056250
v 1.000000 1.750000 0.056250
v 0.875000 1.750000 0.056250
v 0.875000 1.750000 -0.056250
v 1.000000 1.750000 -0.056250
v -0.875000 0.250000 0.056250
v -1.000000 0.250000 0.056250
v -1.000000 0.250000 -0.056250
v -0.875000 0.250000 -0.056250
v -0.875000 1.750000 0.056250
v -1.000000 1.750000 0.056250
v -1.000000 1.750000 -0.056250
v -0.875000 1.750000 -0.056250
v 0.875000 0.937500 0.056250
v -0.875000 0.937500 0.056250
v -0.875000 0.937500 -0.056250
v 0.875000 0.937500 -0.056250
v 0.875000 1.062500 0.056250
v -0.875000 1.062500 0.056250
v -0.875000 1.062500 -0.056250
v 0.875000 1.062500 -0.056250
v 0.500000 0.062500 0.112500
v -0.500000 0.062500 0.112500
v -0.500000 0.062500 -0.112500
v 0.500000 0.062500 -0.112500
v 0.500000 0.312500 0.112500
v -0.500000 0.312500 0.112500
v -0.500000 0.312500 -0.112500
v 0.500000 0.312500 -0.112500
v 0.375000 3.125000 0.034094
v -0.375000 3.125000 0.034093
v -0.375000 3.125000 0.034093
v 0.375000 3.125000 0.034094
v 0.375000 4.375000 0.034094
v -0.375000 4.375000 0.034093
v -0.375000 4.375000 0.034093
v 0.375000 4.375000 0.034094
v -0.375000 3.125000 -0.027945
v -0.375000 1.875000 -0.027945
v 0.375000 3.125000 -0.027945
v 0.375000 1.875000 -0.027945
v -0.375000 4.375000 -0.027945
v -0.375000 3.125000 -0.027945
v 0.375000 4.375000 -0.027945
v 0.375000 3.125000 -0.027945
vt 0.781250 0.218750
vt 0.781250 0.429688
vt 0.828125 0.429688
vt 0.937500 0.921875
vt 0.835938 0.921875
vt 0.835938 0.968750
vt 0.671875 0.007812
vt 0.671875 0.210938
vt 0.773438 0.210938
vt 0.218750 0.656250
vt 0.007812 0.656250
vt 0.007812 0.695312
vt 0.953125 0.765625
vt 0.953125 0.859375
vt 0.992188 0.859375
vt 0.664062 0.437500
vt 0.453125 0.437500
vt 0.453125 0.539062
vt 0.773438 0.437500
vt 0.726562 0.437500
vt 0.726562 0.640625
vt 0.437500 0.539062
vt 0.437500 0.437500
vt 0.226562 0.437500
vt 0.992188 0.656250
vt 0.953125 0.656250
vt 0.953125 0.750000
vt 0.437500 0.695312
vt 0.437500 0.656250
vt 0.226562 0.656250
vt 0.546875 0.218750
vt 0.453125 0.218750
vt 0.453125 0.429688
vt 0.773438 0.914062
vt 0.773438 0.867188
vt 0.671875 0.867188
vt 0.828125 0.007812
vt 0.789062 0.007812
vt 0.789062 0.210938
vt 0.437500 0.640625
vt 0.437500 0.546875
vt 0.226562 0.546875
vt 0.984375 0.867188
vt 0.945312 0.867188
vt 0.945312 0.968750
vt 0.664062 0.695312
vt 0.664062 0.656250
vt 0.453125 0.656250
vt 0.664062 0.218750
vt 0.562500 0.218750
vt 0.562500 0.429688
vt 0.773438 0.968750
vt 0.773438 0.921875
vt 0.671875 0.921875
vt 0.671875 0.445312
vt 0.671875 0.640625
vt 0.710938 0.640625
vt 0.937500 0.867188
vt 0.835938 0.867188
vt 0.835938 0.914062
vt 0.671875 0.218750
vt 0.671875 0.429688
vt 0.773438 0.429688
vt 0.218750 0.710938
vt 0.007812 0.710938
vt 0.007812 0.750000
vt 0.781250 0.867188
vt 0.781250 0.968750
vt 0.828125 0.968750
vt 0.664062 0.546875
vt 0.453125 0.546875
vt 0.453125 0.640625
vt 0.226562 0.007812
vt 0.226562 0.210938
vt 0.437500 0.210938
vt 0.828125 0.437500
vt 0.781250 0.437500
vt 0.781250 0.640625
vt 0.437500 0.710938
vt 0.226562 0.710938
vt 0.226562 0.750000
vt 0.453125 0.007812
vt 0.453125 0.210938
vt 0.664062 0.210938
vt 0.882812 0.007812
vt 0.835938 0.007812
vt 0.835938 0.210938
vt 0.664062 0.710938
vt 0.453125 0.710938
vt 0.453125 0.750000
vt 0.703125 0.679688
vt 0.703125 0.695312
vt 0.718750 0.695312
vt 0.671875 0.679688
vt 0.671875 0.695312
vt 0.687500 0.695312
vt 0.703125 0.656250
vt 0.703125 0.671875
vt 0.718750 0.671875
vt 0.671875 0.656250
vt 0.671875 0.671875
vt 0.687500 0.671875
vt 0.757812 0.679688
vt 0.757812 0.695312
vt 0.773438 0.695312
vt 0.726562 0.679688
vt 0.726562 0.695312
vt 0.742188 0.695312
vt 0.757812 0.656250
vt 0.757812 0.671875
vt 0.773438 0.671875
vt 0.726562 0.656250
vt 0.726562 0.671875
vt 0.742188 0.671875
vt 0.703125 0.734375
vt 0.703125 0.750000
vt 0.718750 0.750000
vt 0.671875 0.734375
vt 0.671875 0.750000
vt 0.687500 0.750000
vt 0.703125 0.710938
vt 0.703125 0.726562
vt 0.718750 0.726562
vt 0.671875 0.710938
vt 0.671875 0.726562
vt 0.687500 0.726562
vt 0.476562 0.812500
vt 0.476562 0.859375
vt 0.492188 0.859375
vt 0.757812 0.734375
vt 0.757812 0.750000
vt 0.773438 0.750000
vt 0.453125 0.812500
vt 0.453125 0.859375
vt 0.468750 0.859375
vt 0.531250 0.812500
vt 0.531250 0.859375
vt 0.546875 0.859375
vt 0.726562 0.734375
vt 0.726562 0.750000
vt 0.742188 0.750000
vt 0.507812 0.812500
vt 0.507812 0.859375
vt 0.523438 0.859375
vt 0.226562 0.218750
vt 0.226562 0.429688
vt 0.437500 0.429688
vt 0.796875 0.859375
vt 0.796875 0.656250
vt 0.781250 0.656250
vt 0.218750 0.914062
vt 0.218750 0.898438
vt 0.007812 0.898438
vt 0.828125 0.656250
vt 0.812500 0.656250
vt 0.812500 0.859375
vt 0.562500 0.781250
vt 0.773438 0.781250
vt 0.773438 0.765625
vt 0.859375 0.656250
vt 0.835938 0.656250
vt 0.835938 0.859375
vt 0.625000 0.781250
vt 0.593750 0.781250
vt 0.593750 0.796875
vt 0.757812 0.710938
vt 0.757812 0.726562
vt 0.773438 0.726562
vt 0.867188 0.812500
vt 0.867188 0.851562
vt 0.882812 0.851562
vt 0.218750 0.812500
vt 0.007812 0.812500
vt 0.007812 0.835938
vt 0.726562 0.710938
vt 0.726562 0.726562
vt 0.742188 0.726562
vt 0.890625 0.007812
vt 0.890625 0.210938
vt 0.914062 0.210938
vt 0.437500 0.812500
vt 0.226562 0.812500
vt 0.226562 0.835938
vt 0.476562 0.789062
vt 0.476562 0.804688
vt 0.492188 0.804688
vt 0.890625 0.226562
vt 0.890625 0.421875
vt 0.914062 0.421875
vt 0.773438 0.812500
vt 0.562500 0.812500
vt 0.562500 0.835938
vt 0.453125 0.789062
vt 0.453125 0.804688
vt 0.468750 0.804688
vt 0.890625 0.437500
vt 0.890625 0.640625
vt 0.914062 0.640625
vt 0.218750 0.859375
vt 0.218750 0.843750
vt 0.007812 0.843750
vt 0.914062 0.656250
vt 0.890625 0.656250
vt 0.890625 0.859375
vt 0.476562 0.765625
vt 0.476562 0.781250
vt 0.492188 0.781250
vt 0.437500 0.859375
vt 0.437500 0.843750
vt 0.226562 0.843750
vt 0.937500 0.007812
vt 0.921875 0.007812
vt 0.921875 0.210938
vt 0.453125 0.765625
vt 0.453125 0.781250
vt 0.468750 0.781250
vt 0.773438 0.859375
vt 0.773438 0.843750
vt 0.562500 0.843750
vt 0.937500 0.218750
vt 0.921875 0.218750
vt 0.921875 0.429688
vt 0.531250 0.789062
vt 0.531250 0.804688
vt 0.546875 0.804688
vt 0.218750 0.890625
vt 0.218750 0.867188
vt 0.007812 0.867188
vt 0.937500 0.437500
vt 0.921875 0.437500
vt 0.921875 0.640625
vt 0.507812 0.789062
vt 0.507812 0.804688
vt 0.523438 0.804688
vt 0.437500 0.867188
vt 0.226562 0.867188
vt 0.226562 0.890625
vt 0.531250 0.765625
vt 0.531250 0.781250
vt 0.546875 0.781250
vt 0.921875 0.656250
vt 0.921875 0.859375
vt 0.937500 0.859375
vt 0.664062 0.867188
vt 0.445312 0.867188
vt 0.445312 0.890625
vt 0.507812 0.765625
vt 0.507812 0.781250
vt 0.523438 0.781250
vt 0.953125 0.007812
vt 0.953125 0.210938
vt 0.968750 0.210938
vt 0.218750 0.765625
vt 0.007812 0.765625
vt 0.007812 0.804688
vt 0.226562 0.953125
vt 0.226562 0.992188
vt 0.273438 0.992188
vt 0.835938 0.218750
vt 0.835938 0.429688
vt 0.882812 0.429688
vt 0.437500 0.765625
vt 0.226562 0.765625
vt 0.226562 0.804688
vt 0.281250 0.953125
vt 0.281250 0.992188
vt 0.328125 0.992188
vt 0.835938 0.437500
vt 0.835938 0.640625
vt 0.882812 0.640625
vt 0.007812 0.007812
vt 0.007812 0.210938
vt 0.218750 0.210938
vt 0.007812 0.937500
vt 0.218750 0.937500
vt 0.218750 0.921875
vt 0.992188 0.007812
vt 0.976562 0.007812
vt 0.976562 0.210938
vt 0.421875 0.390625
vt 0.421875 0.375000
vt 0.210938 0.375000
vt 0.992188 0.429688
vt 0.992188 0.218750
vt 0.976562 0.218750
vt 0.664062 0.937500
vt 0.664062 0.921875
vt 0.453125 0.921875
vt 0.226562 0.421875
vt 0.437500 0.421875
vt 0.007812 0.218750
vt 0.007812 0.429688
vt 0.218750 0.429688
vt 0.234375 0.242188
vt 0.234375 0.226562
vt 0.023438 0.226562
vt 0.437500 0.328125
vt 0.437500 0.312500
vt 0.226562 0.312500
vt 0.398438 0.218750
vt 0.382812 0.218750
vt 0.382812 0.429688
vt 0.218750 0.195312
vt 0.218750 0.179688
vt 0.007812 0.179688
vt 0.968750 0.437500
vt 0.953125 0.437500
vt 0.953125 0.640625
vt 0.664062 0.914062
vt 0.664062 0.898438
vt 0.453125 0.898438
vt 0.828125 0.218750
vt 0.937500 0.968750
vt 0.773438 0.007812
vt 0.218750 0.695312
vt 0.992188 0.765625
vt 0.664062 0.539062
vt 0.773438 0.640625
vt 0.226562 0.539062
vt 0.992188 0.750000
vt 0.226562 0.695312
vt 0.546875 0.429688
vt 0.671875 0.914062
vt 0.828125 0.210938
vt 0.226562 0.640625
vt 0.984375 0.968750
vt 0.453125 0.695312
vt 0.664062 0.429688
vt 0.671875 0.968750
vt 0.710938 0.445312
vt 0.937500 0.914062
vt 0.773438 0.218750
vt 0.218750 0.750000
vt 0.828125 0.867188
vt 0.664062 0.640625
vt 0.437500 0.007812
vt 0.828125 0.640625
vt 0.437500 0.750000
vt 0.664062 0.007812
vt 0.882812 0.210938
vt 0.664062 0.750000
vt 0.718750 0.679688
vt 0.687500 0.679688
vt 0.718750 0.656250
vt 0.687500 0.656250
vt 0.773438 0.679688
vt 0.742188 0.679688
vt 0.773438 0.656250
vt 0.742188 0.656250
vt 0.718750 0.734375
vt 0.687500 0.734375
vt 0.718750 0.710938
vt 0.687500 0.710938
vt 0.492188 0.812500
vt 0.773438 0.734375
vt 0.468750 0.812500
vt 0.546875 0.812500
vt 0.742188 0.734375
vt 0.523438 0.812500
vt 0.437500 0.218750
vt 0.781250 0.859375
vt 0.007812 0.914062
vt 0.828125 0.859375
vt 0.562500 0.765625
vt 0.859375 0.859375
vt 0.625000 0.796875
vt 0.773438 0.710938
vt 0.882812 0.812500
vt 0.218750 0.835938
vt 0.742188 0.710938
vt 0.914062 0.007812
vt 0.437500 0.835938
vt 0.492188 0.789062
vt 0.914062 0.226562
vt 0.773438 0.835938
vt 0.468750 0.789062
vt 0.914062 0.437500
vt 0.007812 0.859375
vt 0.914062 0.859375
vt 0.492188 0.765625
vt 0.226562 0.859375
vt 0.937500 0.210938
vt 0.468750 0.765625
vt 0.562500 0.859375
vt 0.937500 0.429688
vt 0.546875 0.789062
vt 0.007812 0.890625
vt 0.937500 0.640625
vt 0.523438 0.789062
vt 0.437500 0.890625
vt 0.546875 0.765625
vt 0.937500 0.656250
vt 0.664062 0.890625
vt 0.523438 0.765625
vt 0.968750 0.007812
vt 0.218750 0.804688
vt 0.273438 0.953125
vt 0.882812 0.218750
vt 0.437500 0.804688
vt 0.328125 0.953125
vt 0.882812 0.437500
vt 0.218750 0.007812
vt 0.007812 0.921875
vt 0.992188 0.210938
vt 0.210938 0.390625
vt 0.976562 0.429688
vt 0.453125 0.937500
vt 0.218750 0.218750
vt 0.023438 0.242188
vt 0.226562 0.328125
vt 0.398438 0.429688
vt 0.007812 0.195312
vt 0.968750 0.640625
vt 0.453125 0.914062
vn -0.000000 0.000000 1.000000
vn -1.000000 0.000000 -0.000000
vn 0.000000 1.000000 -0.000000
vn 0.000000 0.000000 -1.000000
vn 1.000000 0.000000 0.000000
vn 0.000000 -1.000000 -0.000000
usemtl Material
s off
f 2/1/1 1/2/1 5/3/1
f 3/4/2 2/5/2 6/6/2
f 6/7/3 5/8/3 8/9/3
f 4/10/4 3/11/4 7/12/4
f 1/13/5 4/14/5 8/15/5
f 3/16/6 4/17/6 1/18/6
f 10/19/1 9/20/1 13/21/1
f 11/22/2 10/23/2 14/24/2
f 14/25/3 13/26/3 16/27/3
f 12/28/4 11/29/4 15/30/4
f 9/31/5 12/32/5 16/33/5
f 11/34/6 12/35/6 9/36/6
f 18/37/1 17/38/1 21/39/1
f 19/40/2 18/41/2 22/42/2
f 22/43/3 21/44/3 24/45/3
f 20/46/4 19/47/4 23/48/4
f 17/49/5 20/50/5 24/51/5
f 19/52/6 20/53/6 17/54/6
f 26/55/1 25/56/1 29/57/1
f 27/58/2 26/59/2 30/60/2
f 30/61/3 29/62/3 32/63/3
f 28/64/4 27/65/4 31/66/4
f 25/67/5 28/68/5 32/69/5
f 27/70/6 28/71/6 25/72/6
f 34/73/1 33/74/1 37/75/1
f 35/76/2 34/77/2 38/78/2
f 38/79/3 37/80/3 40/81/3
f 36/82/4 35/83/4 39/84/4
f 33/85/5 36/86/5 40/87/5
f 35/88/6 36/89/6 33/90/6
f 42/91/1 41/92/1 45/93/1
f 43/94/2 42/95/2 46/96/2
f 46/97/3 45/98/3 48/99/3
f 44/100/4 43/101/4 47/102/4
f 41/103/5 44/104/5 48/105/5
f 43/106/6 44/107/6 41/108/6
f 50/109/1 49/110/1 53/111/1
f 51/112/2 50/113/2 54/114/2
f 54/115/3 53/116/3 56/117/3
f 52/118/4 51/119/4 55/120/4
f 49/121/5 52/122/5 56/123/5
f 51/124/6 52/125/6 49/126/6
f 58/127/1 57/128/1 61/129/1
f 59/130/2 58/131/2 62/132/2
f 62/133/3 61/134/3 64/135/3
f 60/136/4 59/137/4 63/138/4
f 57/139/5 60/140/5 64/141/5
f 59/142/6 60/143/6 57/144/6
f 66/145/1 65/146/1 69/147/1
f 71/148/1 67/149/1 66/150/1
f 71/151/1 70/152/1 69/153/1
f 72/154/3 131/155/3 129/156/3
f 69/157/1 65/158/1 68/159/1
f 66/160/1 67/161/1 68/162/1
f 74/163/1 73/164/1 77/165/1
f 75/166/2 74/167/2 78/168/2
f 78/169/3 77/170/3 80/171/3
f 76/172/4 75/173/4 79/174/4
f 73/175/5 76/176/5 80/177/5
f 75/178/6 76/179/6 73/180/6
f 82/181/1 81/182/1 85/183/1
f 83/184/2 82/185/2 86/186/2
f 86/187/3 85/188/3 88/189/3
f 84/190/4 83/191/4 87/192/4
f 81/193/5 84/194/5 88/195/5
f 83/196/6 84/197/6 81/198/6
f 90/199/1 89/200/1 93/201/1
f 91/202/2 90/203/2 94/204/2
f 94/205/3 93/206/3 96/207/3
f 92/208/4 91/209/4 95/210/4
f 89/211/5 92/212/5 96/213/5
f 91/214/6 92/215/6 89/216/6
f 98/217/1 97/218/1 101/219/1
f 99/220/2 98/221/2 102/222/2
f 102/223/3 101/224/3 104/225/3
f 100/226/4 99/227/4 103/228/4
f 97/229/5 100/230/5 104/231/5
f 99/232/6 100/233/6 97/234/6
f 106/235/1 105/236/1 109/237/1
f 107/238/2 106/239/2 110/240/2
f 110/241/3 109/242/3 112/243/3
f 108/244/4 107/245/4 111/246/4
f 105/247/5 108/248/5 112/249/5
f 107/250/6 108/251/6 105/252/6
f 114/253/1 113/254/1 117/255/1
f 115/256/2 114/257/2 118/258/2
f 118/259/3 117/260/3 120/261/3
f 116/262/4 115/263/4 119/264/4
f 113/265/5 116/266/5 120/267/5
f 115/268/6 116/269/6 113/270/6
f 122/271/1 121/272/1 125/273/1
f 127/274/1 123/275/1 122/276/1
f 127/277/1 126/278/1 125/279/1
f 68/280/5 132/281/5 131/282/5
f 125/283/1 121/284/1 124/285/1
f 122/286/1 123/287/1 124/288/1
f 132/145/4 130/289/4 129/290/4
f 136/291/4 134/292/4 133/293/4
f 124/294/5 136/295/5 135/296/5
f 71/297/2 129/298/2 130/299/2
f 128/300/3 135/301/3 133/302/3
f 127/303/2 133/304/2 134/305/2
f 67/306/6 130/307/6 132/308/6
f 123/309/6 134/310/6 136/311/6
f 6/312/1 2/1/1 5/3/1
f 7/313/2 3/4/2 6/6/2
f 7/314/3 6/7/3 8/9/3
f 8/315/4 4/10/4 7/12/4
f 5/316/5 1/13/5 8/15/5
f 2/317/6 3/16/6 1/18/6
f 14/318/1 10/19/1 13/21/1
f 15/319/2 11/22/2 14/24/2
f 15/320/3 14/25/3 16/27/3
f 16/321/4 12/28/4 15/30/4
f 13/322/5 9/31/5 16/33/5
f 10/323/6 11/34/6 9/36/6
f 22/324/1 18/37/1 21/39/1
f 23/325/2 19/40/2 22/42/2
f 23/326/3 22/43/3 24/45/3
f 24/327/4 20/46/4 23/48/4
f 21/328/5 17/49/5 24/51/5
f 18/329/6 19/52/6 17/54/6
f 30/330/1 26/55/1 29/57/1
f 31/331/2 27/58/2 30/60/2
f 31/332/3 30/61/3 32/63/3
f 32/333/4 28/64/4 31/66/4
f 29/334/5 25/67/5 32/69/5
f 26/335/6 27/70/6 25/72/6
f 38/336/1 34/73/1 37/75/1
f 39/337/2 35/76/2 38/78/2
f 39/338/3 38/79/3 40/81/3
f 40/339/4 36/82/4 39/84/4
f 37/340/5 33/85/5 40/87/5
f 34/341/6 35/88/6 33/90/6
f 46/342/1 42/91/1 45/93/1
f 47/343/2 43/94/2 46/96/2
f 47/344/3 46/97/3 48/99/3
f 48/345/4 44/100/4 47/102/4
f 45/346/5 41/103/5 48/105/5
f 42/347/6 43/106/6 41/108/6
f 54/348/1 50/109/1 53/111/1
f 55/349/2 51/112/2 54/114/2
f 55/350/3 54/115/3 56/117/3
f 56/351/4 52/118/4 55/120/4
f 53/352/5 49/121/5 56/123/5
f 50/353/6 51/124/6 49/126/6
f 62/354/1 58/127/1 61/129/1
f 63/355/2 59/130/2 62/132/2
f 63/356/3 62/133/3 64/135/3
f 64/357/4 60/136/4 63/138/4
f 61/358/5 57/139/5 64/141/5
f 58/359/6 59/142/6 57/144/6
f 70/360/1 66/145/1 69/147/1
f 70/361/1 71/148/1 66/150/1
f 72/362/1 71/151/1 69/153/1
f 71/363/3 72/154/3 129/156/3
f 72/364/1 69/157/1 68/159/1
f 65/365/1 66/160/1 68/162/1
f 78/366/1 74/163/1 77/165/1
f 79/367/2 75/166/2 78/168/2
f 79/368/3 78/169/3 80/171/3
f 80/369/4 76/172/4 79/174/4
f 77/370/5 73/175/5 80/177/5
f 74/371/6 75/178/6 73/180/6
f 86/372/1 82/181/1 85/183/1
f 87/373/2 83/184/2 86/186/2
f 87/374/3 86/187/3 88/189/3
f 88/375/4 84/190/4 87/192/4
f 85/376/5 81/193/5 88/195/5
f 82/377/6 83/196/6 81/198/6
f 94/378/1 90/199/1 93/201/1
f 95/379/2 91/202/2 94/204/2
f 95/380/3 94/205/3 96/207/3
f 96/381/4 92/208/4 95/210/4
f 93/382/5 89/211/5 96/213/5
f 90/383/6 91/214/6 89/216/6
f 102/384/1 98/217/1 101/219/1
f 103/385/2 99/220/2 102/222/2
f 103/386/3 102/223/3 104/225/3
f 104/387/4 100/226/4 103/228/4
f 101/388/5 97/229/5 104/231/5
f 98/389/6 99/232/6 97/234/6
f 110/390/1 106/235/1 109/237/1
f 111/391/2 107/238/2 110/240/2
f 111/392/3 110/241/3 112/243/3
f 112/393/4 108/244/4 111/246/4
f 109/394/5 105/247/5 112/249/5
f 106/395/6 107/250/6 105/252/6
f 118/396/1 114/253/1 117/255/1
f 119/397/2 115/256/2 118/258/2
f 119/398/3 118/259/3 120/261/3
f 120/399/4 116/262/4 119/264/4
f 117/400/5 113/265/5 120/267/5
f 114/401/6 115/268/6 113/270/6
f 126/402/1 122/271/1 125/273/1
f 126/403/1 127/274/1 122/276/1
f 128/404/1 127/277/1 125/279/1
f 72/405/5 68/280/5 131/282/5
f 128/406/1 125/283/1 124/285/1
f 121/407/1 122/286/1 124/288/1
f 131/360/4 132/145/4 129/290/4
f 135/408/4 136/291/4 133/293/4
f 128/409/5 124/294/5 135/296/5
f 67/410/2 71/297/2 130/299/2
f 127/411/3 128/300/3 133/302/3
f 123/412/2 127/303/2 134/305/2
f 68/413/6 67/306/6 132/308/6
f 124/414/6 123/309/6 136/311/6
