# Blender v2.75 (sub 0) OBJ File: 'Pillar.blend'
# www.blender.org
mtllib coral_pillar.mtl
o CoralPillar
v -1.000000 1.750000 -1.000000
v 1.000000 1.750000 -1.000000
v 1.000000 1.750000 0.375000
v -1.000000 1.750000 0.375000
v -1.000000 4.192244 -1.000000
v 1.000000 4.192244 -1.000000
v 1.000000 4.192244 0.375000
v -1.000000 4.192244 0.375000
v 1.000000 5.125586 0.375505
v -1.000000 5.125586 0.375505
v -1.000000 8.742263 -4.454183
v 1.000000 8.742263 -4.454183
v 1.000000 9.626096 -3.400872
v -1.000000 9.626096 -3.400872
v -1.000000 6.492263 4.004772
v 1.000000 6.492263 4.004772
v 1.000000 6.492263 11.720817
v -1.000000 6.492263 11.720817
v -1.000000 7.867263 3.595817
v 1.000000 7.867263 3.595817
v 1.000000 7.867263 11.720817
v -1.000000 7.867263 11.720817
v -1.000000 11.251570 -4.445166
v 1.000000 11.251570 -4.445166
v 1.000000 10.305082 -3.447776
v -1.000000 10.305082 -3.447776
v -1.000000 23.492264 7.170817
v 1.000000 23.492264 7.170817
v 1.000000 22.545776 8.168206
v -1.000000 22.545776 8.168206
v -1.000000 19.284889 8.518499
v 1.000000 19.284889 8.518499
v 1.000000 18.796476 9.669130
v -1.000000 18.796476 9.669130
v -1.000000 14.242263 2.858317
v 1.000000 14.242263 2.858317
v 1.000000 14.664446 4.034863
v -1.000000 14.664446 4.034863
v -1.000000 10.925765 6.328214
v 1.000000 10.925765 6.328214
v -1.000000 11.414180 5.177583
v 1.000000 11.414180 5.177583
v -1.000000 1.250000 -1.062500
v 1.000000 1.250000 -1.062500
v 1.000000 1.250000 0.437500
v -1.000000 1.250000 0.437500
v -1.000000 1.750000 -1.062500
v 1.000000 1.750000 -1.062500
v 1.000000 1.750000 0.437500
v -1.000000 1.750000 0.437500
v -1.000000 0.000000 -1.125000
v 1.000000 0.000000 -1.125000
v 1.000000 0.000000 0.500000
v -1.000000 0.000000 0.500000
v -1.000000 1.250000 -1.125000
v 1.000000 1.250000 -1.125000
v 1.000000 1.250000 0.500000
v -1.000000 1.250000 0.500000
v 1.000000 17.201403 1.200642
v -1.000000 17.201403 1.200642
v 1.000000 16.294821 2.234438
v -1.000000 16.294821 2.234438
v 1.000000 16.308203 0.353082
v 1.000000 15.395629 1.381413
v -1.000000 15.395629 1.381413
v -1.000000 16.308203 0.353082
v 1.000000 9.726991 4.461414
v 1.000000 9.238576 5.612045
v -1.000000 9.238576 5.612045
v -1.000000 9.726991 4.461414
v 1.000000 7.867263 5.036420
v 1.000000 6.492263 5.036420
v -1.000000 7.867263 5.036420
v -1.000000 6.492263 5.036420
v 1.000000 5.344421 -1.571523
v -1.000000 5.344421 -1.571523
v 1.000000 6.209743 -0.526833
v -1.000000 6.209743 -0.526833
v 1.000000 4.637985 -0.998954
v 1.000000 5.515167 0.051260
v -1.000000 5.515167 0.051260
v 1.000000 6.986355 3.857818
v -1.000000 6.986355 3.857818
v 1.000000 6.986355 11.720817
v -1.000000 6.986355 11.720817
v -1.000000 6.986355 5.036420
v 1.000000 6.986355 5.036420
v -1.000000 4.637985 -0.998954
vt 0.585938 0.718750
vt 0.531250 0.718750
vt 0.531250 0.648438
vt 0.554688 0.507812
vt 0.515625 0.492188
vt 0.539062 0.429688
vt 0.585938 0.640625
vt 0.648438 0.640625
vt 0.648438 0.664062
vt 0.648438 0.734375
vt 0.585938 0.734375
vt 0.585938 0.664062
vt 0.484375 0.492188
vt 0.445312 0.507812
vt 0.421875 0.445312
vt 0.687500 0.718750
vt 0.687500 0.781250
vt 0.648438 0.781250
vt 0.531250 0.640625
vt 0.585938 0.648438
vt 0.351562 0.734375
vt 0.351562 0.789062
vt 0.328125 0.789062
vt 0.585938 0.507812
vt 0.648438 0.507812
vt 0.546875 0.414062
vt 0.585938 0.406250
vt 0.578125 0.445312
vt 0.648438 0.625000
vt 0.710938 0.507812
vt 0.734375 0.421875
vt 0.734375 0.429688
vt 0.703125 0.421875
vt 0.296875 0.742188
vt 0.234375 0.742188
vt 0.234375 0.703125
vt 0.414062 0.773438
vt 0.414062 0.718750
vt 0.429688 0.718750
vt 0.265625 0.429688
vt 0.085938 0.507812
vt 0.078125 0.492188
vt 0.296875 0.734375
vt 0.296875 0.539062
vt 0.062500 1.000000
vt 0.000000 1.000000
vt 0.000000 0.796875
vt 0.546875 0.234375
vt 0.531250 0.195312
vt 0.718750 0.117188
vt 0.570312 0.718750
vt 0.570312 0.781250
vt 0.531250 0.781250
vt 0.414062 0.710938
vt 0.351562 0.710938
vt 0.351562 0.507812
vt 0.281250 0.117188
vt 0.468750 0.195312
vt 0.453125 0.234375
vt 0.468750 0.640625
vt 0.531250 0.710938
vt 0.500000 0.265625
vt 0.789062 0.687500
vt 0.789062 0.742188
vt 0.757812 0.742188
vt 0.062500 0.851562
vt 0.062500 0.812500
vt 0.117188 0.812500
vt 0.210938 0.304688
vt 0.203125 0.203125
vt 0.242188 0.203125
vt 0.765625 0.625000
vt 0.710938 0.625000
vt 0.710938 0.570312
vt 0.468750 0.507812
vt 0.468750 0.648438
vt 0.414062 0.648438
vt 0.789062 0.304688
vt 0.750000 0.335938
vt 0.757812 0.203125
vt 0.734375 0.156250
vt 0.765625 0.140625
vt 0.398438 0.773438
vt 0.468750 0.718750
vt 0.468750 0.765625
vt 0.453125 0.765625
vt 0.718750 0.617188
vt 0.718750 0.554688
vt 0.765625 0.554688
vt 0.515625 0.773438
vt 0.515625 0.710938
vt 0.703125 0.718750
vt 0.703125 0.765625
vt 0.687500 0.765625
vt 0.398438 0.710938
vt 0.351562 0.773438
vt 0.796875 0.570312
vt 0.796875 0.625000
vt 0.328125 0.734375
vt 0.328125 0.781250
vt 0.296875 0.781250
vt 0.750000 0.625000
vt 0.750000 0.562500
vt 0.757812 0.562500
vt 0.757812 0.687500
vt 0.757812 0.625000
vt 0.789062 0.625000
vt 0.625000 0.734375
vt 0.625000 0.781250
vt 0.585938 0.781250
vt 0.710938 0.742188
vt 0.015625 0.000000
vt 0.250000 0.101562
vt 0.234375 0.140625
vt 0.179688 0.757812
vt 0.117188 0.757812
vt 0.117188 0.507812
vt 0.750000 0.101562
vt 0.984375 0.000000
vt 0.062500 0.757812
vt 0.000000 0.757812
vt 0.000000 0.507812
vt 0.265625 0.156250
vt 0.062500 0.796875
vt 0.179688 0.328125
vt 0.000000 0.156250
vt 0.062500 0.507812
vt 0.820312 0.328125
vt 0.968750 0.125000
vt 0.234375 0.757812
vt 0.179688 0.507812
vt 0.250000 0.335938
vt 0.218750 0.367188
vt 0.781250 0.367188
vt 0.710938 0.718750
vt 0.351562 0.539062
vt 0.296875 0.507812
vt 0.296875 0.421875
vt 0.265625 0.421875
vt 0.296875 0.703125
vt 0.234375 0.507812
vt 0.914062 0.507812
vt 0.765625 0.570312
vt 0.289062 0.382812
vt 0.250000 0.398438
vt 0.750000 0.398438
vt 0.460938 0.390625
vt 0.421875 0.375000
vt 0.460938 0.257812
vt 0.539062 0.257812
vt 0.578125 0.375000
vt 0.539062 0.390625
vt 0.531250 0.507812
vt 0.710938 0.382812
vt 0.406250 0.414062
vt 0.296875 0.406250
vt 0.414062 0.406250
vt 0.593750 0.414062
vt 0.703125 0.406250
vt 0.921875 0.492188
vt 0.070312 0.468750
vt 0.429688 0.773438
vt 0.453125 0.718750
vt 0.453125 0.414062
vt 0.765625 0.507812
vt 0.789062 0.507812
vt 0.460938 0.429688
vt 0.648438 0.718750
vt 0.414062 0.507812
vt 0.468750 0.710938
vt 0.117188 0.851562
vt 0.796875 0.203125
vt 0.765625 0.617188
vt 0.531250 0.773438
vt 0.710938 0.687500
vt 0.000000 0.039062
vt 1.000000 0.039062
vt 0.031250 0.125000
vt 1.000000 0.156250
vt 0.929688 0.468750
vt 0.453125 0.773438
vt 0.789062 0.570312
vn 0.000000 0.000000 -1.000000
vn 1.000000 0.000000 0.000000
vn 0.000000 -0.000500 1.000000
vn 0.000000 0.000000 1.000000
vn -1.000000 0.000000 0.000000
vn 0.000000 -1.000000 0.000000
vn 0.000000 0.002300 -1.000000
vn 0.000000 0.068900 0.997600
vn 0.000000 0.927800 -0.373000
vn 0.000000 -0.935800 0.352400
vn 0.000000 1.000000 0.000000
vn 0.000000 0.688300 -0.725400
vn 0.000000 0.725400 0.688400
vn 0.000000 -0.688200 0.725500
vn 0.000000 0.003600 -1.000000
vn 0.000000 0.920500 0.390700
vn 0.000000 -0.387000 0.922100
vn 0.000000 -0.788100 -0.615500
vn 0.000000 -0.334600 -0.942400
vn 0.000000 -0.688500 0.725300
vn 0.000000 0.688400 -0.725400
vn 0.000000 0.741200 0.671200
vn 0.000000 -0.390700 0.920500
vn 0.000000 0.390700 -0.920500
vn 0.000000 0.331700 0.943400
vn 0.000000 0.422000 -0.906600
vn 0.000000 0.643800 0.765200
vn 0.000000 -0.646900 -0.762500
vn 0.000000 -0.629700 -0.776900
usemtl Material.001
s off
f 2/1/1 1/2/1 5/3/1
f 3/4/2 2/5/2 6/6/2
f 9/7/3 10/8/3 8/9/3
f 4/10/4 3/11/4 7/12/4
f 1/13/5 4/14/5 8/15/5
f 3/16/6 4/17/6 1/18/6
f 88/19/7 79/7/7 6/20/7
f 25/21/8 26/22/8 14/23/8
f 78/7/9 19/24/9 20/25/9
f 79/26/2 80/27/2 7/28/2
f 9/29/10 16/25/10 15/30/10
f 87/31/2 72/32/2 16/33/2
f 20/34/11 19/35/11 73/36/11
f 18/37/4 17/38/4 84/39/4
f 74/40/5 18/41/5 85/42/5
f 17/21/6 18/43/6 74/44/6
f 24/45/12 23/46/12 66/47/12
f 25/48/2 24/49/2 63/50/2
f 28/51/13 27/52/13 30/53/13
f 26/54/14 25/55/14 64/56/14
f 66/57/5 23/58/5 26/59/5
f 23/60/15 24/19/15 12/61/15
f 26/59/5 23/58/5 11/62/5
f 12/62/2 24/49/2 25/48/2
f 32/63/16 31/64/16 34/65/16
f 71/66/17 68/67/17 69/68/17
f 41/69/5 38/70/5 35/71/5
f 35/72/18 65/73/18 64/74/18
f 36/75/19 67/76/19 70/77/19
f 42/78/2 67/79/2 36/80/2
f 36/80/2 64/81/2 61/82/2
f 44/54/1 43/37/1 47/83/1
f 45/84/2 44/85/2 48/86/2
f 48/87/11 47/88/11 50/89/11
f 46/90/4 45/91/4 49/61/4
f 43/92/5 46/93/5 50/94/5
f 45/95/6 46/83/6 43/96/6
f 52/97/1 51/98/1 55/72/1
f 53/99/2 52/100/2 56/101/2
f 56/102/11 55/103/11 58/104/11
f 54/105/4 53/106/4 57/107/4
f 51/108/5 54/109/5 58/110/5
f 53/105/6 54/65/6 51/111/6
f 27/112/5 60/113/5 62/114/5
f 62/115/20 61/116/20 29/117/20
f 61/82/2 59/118/2 28/119/2
f 59/120/21 60/121/21 27/122/21
f 60/113/5 66/57/5 65/123/5
f 61/77/22 62/76/22 38/84/22
f 64/81/2 63/50/2 59/118/2
f 63/124/12 66/47/12 60/121/12
f 35/71/5 38/70/5 62/114/5
f 41/69/5 39/125/5 34/126/5
f 39/116/23 40/120/23 33/127/23
f 40/128/2 42/78/2 32/129/2
f 42/130/24 41/115/24 31/131/24
f 70/132/5 69/133/5 39/125/5
f 69/68/23 68/67/23 40/120/23
f 40/128/2 68/134/2 67/79/2
f 37/29/25 38/73/25 41/135/25
f 72/136/6 74/44/6 15/137/6
f 15/138/5 74/40/5 86/139/5
f 71/140/11 73/36/11 22/141/11
f 17/142/2 72/32/2 87/31/2
f 20/143/26 19/74/26 70/30/26
f 70/132/5 19/144/5 73/145/5
f 67/79/2 68/134/2 71/146/2
f 76/147/5 78/148/5 14/149/5
f 78/19/27 77/60/27 13/75/27
f 13/150/2 77/151/2 75/152/2
f 75/7/28 76/19/28 11/153/28
f 80/27/2 77/151/2 20/154/2
f 10/155/5 15/138/5 83/156/5
f 81/157/5 83/156/5 19/144/5
f 9/158/2 80/27/2 82/159/2
f 84/160/2 87/31/2 71/146/2
f 83/156/5 86/139/5 73/145/5
f 86/139/5 85/42/5 22/161/5
f 85/162/4 84/39/4 21/163/4
f 71/146/2 87/31/2 82/159/2
f 76/147/5 88/164/5 81/157/5
f 80/27/2 79/26/2 75/152/2
f 79/143/29 88/165/29 76/166/29
f 9/158/2 7/28/2 80/27/2
f 8/15/5 81/157/5 88/164/5
f 10/155/5 81/157/5 8/15/5
f 6/20/1 2/1/1 5/3/1
f 7/28/2 3/4/2 6/6/2
f 7/12/3 9/7/3 8/9/3
f 8/9/4 4/10/4 7/12/4
f 5/167/5 1/13/5 8/15/5
f 2/168/6 3/16/6 1/18/6
f 5/3/7 88/19/7 6/20/7
f 13/99/8 25/21/8 14/23/8
f 77/8/9 78/7/9 20/25/9
f 6/6/2 79/26/2 7/28/2
f 10/73/10 9/29/10 15/30/10
f 82/159/2 87/31/2 16/33/2
f 71/140/11 20/34/11 73/36/11
f 85/162/4 18/37/4 84/39/4
f 86/139/5 74/40/5 85/42/5
f 72/136/6 17/21/6 74/44/6
f 63/124/12 24/45/12 66/47/12
f 64/81/2 25/48/2 63/50/2
f 29/2/13 28/51/13 30/53/13
f 65/169/14 26/54/14 64/56/14
f 65/123/5 66/57/5 26/59/5
f 11/170/15 23/60/15 12/61/15
f 14/149/5 26/59/5 11/62/5
f 13/150/2 12/62/2 25/48/2
f 33/105/16 32/63/16 34/65/16
f 73/171/17 71/66/17 69/68/17
f 70/132/5 41/69/5 35/71/5
f 36/143/18 35/72/18 64/74/18
f 35/169/19 36/75/19 70/77/19
f 37/172/2 42/78/2 36/80/2
f 37/172/2 36/80/2 61/82/2
f 48/95/1 44/54/1 47/83/1
f 49/163/2 45/84/2 48/86/2
f 49/173/11 48/87/11 50/89/11
f 50/174/4 46/90/4 49/61/4
f 47/16/5 43/92/5 50/94/5
f 44/55/6 45/95/6 43/96/6
f 56/143/1 52/97/1 55/72/1
f 57/43/2 53/99/2 56/101/2
f 57/106/11 56/102/11 58/104/11
f 58/63/4 54/105/4 57/107/4
f 55/11/5 51/108/5 58/110/5
f 52/175/6 53/105/6 51/111/6
f 30/176/5 27/112/5 62/114/5
f 30/131/20 62/115/20 29/117/20
f 29/177/2 61/82/2 28/119/2
f 28/127/21 59/120/21 27/122/21
f 62/114/5 60/113/5 65/123/5
f 37/38/22 61/77/22 38/84/22
f 61/82/2 64/81/2 59/118/2
f 59/120/12 63/124/12 60/121/12
f 65/123/5 35/71/5 62/114/5
f 31/178/5 41/69/5 34/126/5
f 34/117/23 39/116/23 33/127/23
f 33/179/2 40/128/2 32/129/2
f 32/141/24 42/130/24 31/131/24
f 41/69/5 70/132/5 39/125/5
f 39/116/23 69/68/23 40/120/23
f 42/78/2 40/128/2 67/79/2
f 42/168/25 37/29/25 41/135/25
f 16/56/6 72/136/6 15/137/6
f 83/156/5 15/138/5 86/139/5
f 21/137/11 71/140/11 22/141/11
f 84/160/2 17/142/2 87/31/2
f 67/165/26 20/143/26 70/30/26
f 69/133/5 70/132/5 73/145/5
f 20/154/2 67/79/2 71/146/2
f 11/62/5 76/147/5 14/149/5
f 14/153/27 78/19/27 13/75/27
f 12/62/2 13/150/2 75/152/2
f 12/24/28 75/7/28 11/153/28
f 82/159/2 80/27/2 20/154/2
f 81/157/5 10/155/5 83/156/5
f 78/148/5 81/157/5 19/144/5
f 16/33/2 9/158/2 82/159/2
f 21/180/2 84/160/2 71/146/2
f 19/144/5 83/156/5 73/145/5
f 73/145/5 86/139/5 22/161/5
f 22/181/4 85/162/4 21/163/4
f 20/154/2 71/146/2 82/159/2
f 78/148/5 76/147/5 81/157/5
f 77/151/2 80/27/2 75/152/2
f 75/182/29 79/143/29 76/166/29
f 5/167/5 8/15/5 88/164/5
