# Blender v2.76 (sub 0) OBJ File: ''
# www.blender.org
mtllib InteriorDoors.mtl
o TardisDoorway1
v 3.000000 7.000000 0.000001
v 2.500000 -1.125000 -0.000000
v 3.000000 -1.125000 -0.000000
v 2.500000 7.000000 0.000001
v 2.500000 7.000000 -1.999999
v 3.000000 -1.125000 -2.000000
v 2.500000 -1.125000 -2.000000
v 3.000000 7.000000 -1.999999
v 3.000000 7.000000 -1.999999
v 3.000000 -1.125000 -0.000000
v 3.000000 -1.125000 -2.000000
v 3.000000 7.000000 0.000001
v 3.000000 -1.125000 -0.000000
v 2.500000 -1.125000 -2.000000
v 3.000000 -1.125000 -2.000000
v 2.500000 -1.125000 -0.000000
v 2.500000 7.000000 0.000001
v 2.500000 -1.125000 -2.000000
v 2.500000 -1.125000 -0.000000
v 2.500000 7.000000 -1.999999
v 3.000000 7.000000 -1.999999
v 2.500000 7.000000 0.000001
v 3.000000 7.000000 0.000001
v 2.500000 7.000000 -1.999999
v -2.500000 7.000000 0.000001
v -3.000000 -1.125000 -0.000000
v -2.500000 -1.125000 -0.000000
v -3.000000 7.000000 0.000001
v -3.000000 7.000000 -1.999999
v -2.500000 -1.125000 -2.000000
v -3.000000 -1.125000 -2.000000
v -2.500000 7.000000 -1.999999
v -2.500000 7.000000 -1.999999
v -2.500000 -1.125000 -0.000000
v -2.500000 -1.125000 -2.000000
v -2.500000 7.000000 0.000001
v -2.500000 -1.125000 -0.000000
v -3.000000 -1.125000 -2.000000
v -2.500000 -1.125000 -2.000000
v -3.000000 -1.125000 -0.000000
v -3.000000 7.000000 0.000001
v -3.000000 -1.125000 -2.000000
v -3.000000 -1.125000 -0.000000
v -3.000000 7.000000 -1.999999
v -2.500000 7.000000 -1.999999
v -3.000000 7.000000 0.000001
v -2.500000 7.000000 0.000001
v -3.000000 7.000000 -1.999999
v 1.875000 5.875000 -1.812499
v -1.875000 0.000000 -1.812500
v 1.875000 0.000000 -1.812500
v -1.875000 5.875000 -1.812499
v -1.875000 5.875000 -2.187499
v 1.875000 0.000000 -2.187500
v -1.875000 0.000000 -2.187500
v 1.875000 5.875000 -2.187499
v 1.875000 5.875000 -2.187499
v 1.875000 0.000000 -1.812500
v 1.875000 0.000000 -2.187500
v 1.875000 5.875000 -1.812499
v 1.875000 0.000000 -1.812500
v -1.875000 0.000000 -2.187500
v 1.875000 0.000000 -2.187500
v -1.875000 0.000000 -1.812500
v -1.875000 5.875000 -1.812499
v -1.875000 0.000000 -2.187500
v -1.875000 0.000000 -1.812500
v -1.875000 5.875000 -2.187499
v 1.875000 5.875000 -2.187499
v -1.875000 5.875000 -1.812499
v 1.875000 5.875000 -1.812499
v -1.875000 5.875000 -2.187499
v -1.856787 6.937500 -2.000563
v -2.540828 -1.062500 -0.121179
v -1.856787 -1.062500 -2.000564
v -2.540828 6.937500 -0.121177
v -2.893212 6.937500 -0.249435
v -2.209172 -1.062500 -2.128822
v -2.893212 -1.062500 -0.249436
v -2.209172 6.937500 -2.128821
v -2.209172 6.937500 -2.128821
v -1.856787 -1.062500 -2.000564
v -2.209172 -1.062500 -2.128822
v -1.856787 6.937500 -2.000563
v -1.856787 -1.062500 -2.000564
v -2.893212 -1.062500 -0.249436
v -2.209172 -1.062500 -2.128822
v -2.540828 -1.062500 -0.121179
v -2.540828 6.937500 -0.121177
v -2.893212 -1.062500 -0.249436
v -2.540828 -1.062500 -0.121179
v -2.893212 6.937500 -0.249435
v -2.209172 6.937500 -2.128821
v -2.540828 6.937500 -0.121177
v -1.856787 6.937500 -2.000563
v -2.893212 6.937500 -0.249435
v 2.540828 6.937500 -0.121177
v 1.856787 -1.062500 -2.000564
v 2.540828 -1.062500 -0.121179
v 1.856787 6.937500 -2.000563
v 2.209172 6.937500 -2.128821
v 2.893212 -1.062500 -0.249436
v 2.209172 -1.062500 -2.128822
v 2.893212 6.937500 -0.249435
v 2.893212 6.937500 -0.249435
v 2.540828 -1.062500 -0.121179
v 2.893212 -1.062500 -0.249436
v 2.540828 6.937500 -0.121177
v 2.540828 -1.062500 -0.121179
v 2.209172 -1.062500 -2.128822
v 2.893212 -1.062500 -0.249436
v 1.856787 -1.062500 -2.000564
v 1.856787 6.937500 -2.000563
v 2.209172 -1.062500 -2.128822
v 1.856787 -1.062500 -2.000564
v 2.209172 6.937500 -2.128821
v 2.893212 6.937500 -0.249435
v 1.856787 6.937500 -2.000563
v 2.540828 6.937500 -0.121177
v 2.209172 6.937500 -2.128821
v 1.562500 4.125000 -1.124999
v 0.437500 3.125000 -1.125000
v 1.562500 3.125000 -1.125000
v 0.437500 4.125000 -1.124999
v 0.437500 4.125000 -2.124999
v 1.562500 3.125000 -2.125000
v 0.437500 3.125000 -2.125000
v 1.562500 4.125000 -2.124999
v 1.562500 4.125000 -2.124999
v 1.562500 3.125000 -1.125000
v 1.562500 3.125000 -2.125000
v 1.562500 4.125000 -1.124999
v 1.562500 3.125000 -1.125000
v 0.437500 3.125000 -2.125000
v 1.562500 3.125000 -2.125000
v 0.437500 3.125000 -1.125000
v 0.437500 4.125000 -1.124999
v 0.437500 3.125000 -2.125000
v 0.437500 3.125000 -1.125000
v 0.437500 4.125000 -2.124999
v 1.562500 4.125000 -2.124999
v 0.437500 4.125000 -1.124999
v 1.562500 4.125000 -1.124999
v 0.437500 4.125000 -2.124999
v -3.000000 -1.625000 -0.000000
v 3.000000 -1.125000 -0.000000
v -3.000000 -1.125000 -0.000000
v 3.000000 -1.625000 -0.000000
v 3.000000 -1.625000 -2.000000
v -3.000000 -1.124999 -2.000000
v 3.000000 -1.125000 -2.000000
v -3.000000 -1.624999 -2.000000
v -3.000000 -1.624999 -2.000000
v -3.000000 -1.125000 -0.000000
v -3.000000 -1.124999 -2.000000
v -3.000000 -1.625000 -0.000000
v -3.000000 -1.125000 -0.000000
v 3.000000 -1.125000 -2.000000
v -3.000000 -1.124999 -2.000000
v 3.000000 -1.125000 -0.000000
v 3.000000 -1.625000 -0.000000
v 3.000000 -1.125000 -2.000000
v 3.000000 -1.125000 -0.000000
v 3.000000 -1.625000 -2.000000
v -3.000000 -1.624999 -2.000000
v 3.000000 -1.625000 -0.000000
v -3.000000 -1.625000 -0.000000
v 3.000000 -1.625000 -2.000000
v -2.625000 -1.158294 -0.150803
v 2.625000 -0.688449 -0.321813
v -2.625000 -0.688448 -0.321813
v 2.625000 -1.158295 -0.150803
v 2.625000 -1.286552 -0.503187
v -2.625000 -0.816705 -0.674197
v 2.625000 -0.816706 -0.674197
v -2.625000 -1.286552 -0.503188
v -2.625000 -1.286552 -0.503188
v -2.625000 -0.688448 -0.321813
v -2.625000 -0.816705 -0.674197
v -2.625000 -1.158294 -0.150803
v -2.625000 -0.688448 -0.321813
v 2.625000 -0.816706 -0.674197
v -2.625000 -0.816705 -0.674197
v 2.625000 -0.688449 -0.321813
v 2.625000 -1.158295 -0.150803
v 2.625000 -0.816706 -0.674197
v 2.625000 -0.688449 -0.321813
v 2.625000 -1.286552 -0.503187
v -2.625000 -1.286552 -0.503188
v 2.625000 -1.158295 -0.150803
v -2.625000 -1.158294 -0.150803
v 2.625000 -1.286552 -0.503187
v -2.500000 -0.688487 -0.315089
v 2.500000 -0.286746 -0.793866
v -2.500000 -0.286745 -0.793866
v 2.500000 -0.688488 -0.315089
v 2.500000 -0.975754 -0.556134
v -2.500000 -0.574012 -1.034912
v 2.500000 -0.574012 -1.034912
v -2.500000 -0.975754 -0.556134
v -2.500000 -0.975754 -0.556134
v -2.500000 -0.286745 -0.793866
v -2.500000 -0.574012 -1.034912
v -2.500000 -0.688487 -0.315089
v -2.500000 -0.286745 -0.793866
v 2.500000 -0.574012 -1.034912
v -2.500000 -0.574012 -1.034912
v 2.500000 -0.286746 -0.793866
v 2.500000 -0.688488 -0.315089
v 2.500000 -0.574012 -1.034912
v 2.500000 -0.286746 -0.793866
v 2.500000 -0.975754 -0.556134
v -2.500000 -0.975754 -0.556134
v 2.500000 -0.688488 -0.315089
v -2.500000 -0.688487 -0.315089
v 2.500000 -0.975754 -0.556134
v -2.375000 -0.276974 -0.783138
v 2.375000 0.014197 -1.869805
v -2.375000 0.014197 -1.869805
v 2.375000 -0.276975 -0.783138
v 2.375000 -0.639197 -0.880195
v -2.375000 -0.348025 -1.966862
v 2.375000 -0.348025 -1.966862
v -2.375000 -0.639196 -0.880195
v -2.375000 -0.639196 -0.880195
v -2.375000 0.014197 -1.869805
v -2.375000 -0.348025 -1.966862
v -2.375000 -0.276974 -0.783138
v -2.375000 0.014197 -1.869805
v 2.375000 -0.348025 -1.966862
v -2.375000 -0.348025 -1.966862
v 2.375000 0.014197 -1.869805
v 2.375000 -0.276975 -0.783138
v 2.375000 -0.348025 -1.966862
v 2.375000 0.014197 -1.869805
v 2.375000 -0.639197 -0.880195
v -2.375000 -0.639196 -0.880195
v 2.375000 -0.276975 -0.783138
v -2.375000 -0.276974 -0.783138
v 2.375000 -0.639197 -0.880195
v 3.000000 7.500000 0.000001
v -3.000000 7.000000 0.000001
v 3.000000 7.000000 0.000001
v -3.000000 7.500000 0.000001
v -3.000000 7.500000 -1.999999
v 3.000000 7.000000 -1.999999
v -3.000000 7.000000 -1.999999
v 3.000000 7.500000 -1.999999
v 3.000000 7.500000 -1.999999
v 3.000000 7.000000 0.000001
v 3.000000 7.000000 -1.999999
v 3.000000 7.500000 0.000001
v 3.000000 7.000000 0.000001
v -3.000000 7.000000 -1.999999
v 3.000000 7.000000 -1.999999
v -3.000000 7.000000 0.000001
v -3.000000 7.500000 0.000001
v -3.000000 7.000000 -1.999999
v -3.000000 7.000000 0.000001
v -3.000000 7.500000 -1.999999
v 3.000000 7.500000 -1.999999
v -3.000000 7.500000 0.000001
v 3.000000 7.500000 0.000001
v -3.000000 7.500000 -1.999999
v 2.625000 7.033294 -0.150801
v -2.625000 6.563448 -0.321812
v 2.625000 6.563448 -0.321812
v -2.625000 7.033294 -0.150801
v -2.625000 7.161552 -0.503186
v 2.625000 6.691706 -0.674196
v -2.625000 6.691706 -0.674196
v 2.625000 7.161552 -0.503186
v 2.625000 7.161552 -0.503186
v 2.625000 6.563448 -0.321812
v 2.625000 6.691706 -0.674196
v 2.625000 7.033294 -0.150801
v 2.625000 6.563448 -0.321812
v -2.625000 6.691706 -0.674196
v 2.625000 6.691706 -0.674196
v -2.625000 6.563448 -0.321812
v -2.625000 7.033294 -0.150801
v -2.625000 6.691706 -0.674196
v -2.625000 6.563448 -0.321812
v -2.625000 7.161552 -0.503186
v 2.625000 7.161552 -0.503186
v -2.625000 7.033294 -0.150801
v 2.625000 7.033294 -0.150801
v -2.625000 7.161552 -0.503186
v 2.500000 6.563488 -0.315087
v -2.500000 6.161746 -0.793865
v 2.500000 6.161746 -0.793865
v -2.500000 6.563488 -0.315087
v -2.500000 6.850754 -0.556133
v 2.500000 6.449012 -1.034911
v -2.500000 6.449012 -1.034911
v 2.500000 6.850754 -0.556133
v 2.500000 6.850754 -0.556133
v 2.500000 6.161746 -0.793865
v 2.500000 6.449012 -1.034911
v 2.500000 6.563488 -0.315087
v 2.500000 6.161746 -0.793865
v -2.500000 6.449012 -1.034911
v 2.500000 6.449012 -1.034911
v -2.500000 6.161746 -0.793865
v -2.500000 6.563488 -0.315087
v -2.500000 6.449012 -1.034911
v -2.500000 6.161746 -0.793865
v -2.500000 6.850754 -0.556133
v 2.500000 6.850754 -0.556133
v -2.500000 6.563488 -0.315087
v 2.500000 6.563488 -0.315087
v -2.500000 6.850754 -0.556133
v 2.375000 6.151974 -0.783137
v -2.375000 5.860805 -1.869804
v 2.375000 5.860805 -1.869804
v -2.375000 6.151974 -0.783137
v -2.375000 6.514196 -0.880194
v 2.375000 6.223026 -1.966861
v -2.375000 6.223026 -1.966861
v 2.375000 6.514196 -0.880194
v 2.375000 6.514196 -0.880194
v 2.375000 5.860805 -1.869804
v 2.375000 6.223026 -1.966861
v 2.375000 6.151974 -0.783137
v 2.375000 5.860805 -1.869804
v -2.375000 6.223026 -1.966861
v 2.375000 6.223026 -1.966861
v -2.375000 5.860805 -1.869804
v -2.375000 6.151974 -0.783137
v -2.375000 6.223026 -1.966861
v -2.375000 5.860805 -1.869804
v -2.375000 6.514196 -0.880194
v 2.375000 6.514196 -0.880194
v -2.375000 6.151974 -0.783137
v 2.375000 6.151974 -0.783137
v -2.375000 6.514196 -0.880194
vt 0.925781 0.710938
vt 0.902344 0.300781
vt 0.925781 0.300781
vt 0.902344 0.710938
vt 0.875000 0.300781
vt 0.875000 0.710938
vt 0.472656 0.410156
vt 0.371094 0.000000
vt 0.472656 0.000000
vt 0.371094 0.410156
vt 0.824219 0.710938
vt 0.851562 0.812500
vt 0.824219 0.812500
vt 0.851562 0.710938
vt 0.000000 0.296875
vt 0.097656 0.703125
vt 0.000000 0.703125
vt 0.097656 0.296875
vt 0.902344 0.812500
vt 0.875000 0.812500
vt 0.851562 0.300781
vt 0.824219 0.300781
vt 0.570312 0.410156
vt 0.570312 0.000000
vt 0.671875 0.410156
vt 0.671875 0.000000
vt 0.769531 0.906250
vt 0.746094 0.804688
vt 0.769531 0.804688
vt 0.746094 0.906250
vt 0.187500 0.296875
vt 0.000000 0.000000
vt 0.187500 0.000000
vt 0.371094 0.296875
vt 0.023438 0.703125
vt 0.042969 1.000000
vt 0.023438 1.000000
vt 0.042969 0.703125
vt 0.582031 0.898438
vt 0.601562 0.710938
vt 0.601562 0.898438
vt 0.582031 0.710938
vt 0.062500 1.000000
vt 0.062500 0.703125
vt 0.566406 0.898438
vt 0.566406 0.710938
vt 0.199219 0.699219
vt 0.199219 0.296875
vt 0.097656 0.699219
vt 0.671875 0.402344
vt 0.671875 0.804688
vt 0.769531 0.402344
vt 0.960938 0.703125
vt 0.945312 0.300781
vt 0.960938 0.300781
vt 0.945312 0.703125
vt 0.671875 0.710938
vt 0.652344 0.812500
vt 0.652344 0.710938
vt 0.671875 0.812500
vt 0.980469 0.000000
vt 1.000000 0.402344
vt 0.980469 0.402344
vt 1.000000 0.000000
vt 0.367188 0.773438
vt 0.347656 0.875000
vt 0.347656 0.773438
vt 0.367188 0.875000
vt 0.769531 0.000000
vt 0.296875 0.699219
vt 0.296875 0.296875
vt 0.980469 0.703125
vt 0.980469 0.300781
vt 0.316406 0.832031
vt 0.296875 0.929688
vt 0.296875 0.832031
vt 0.316406 0.929688
vt 0.925781 0.703125
vt 0.652344 0.910156
vt 0.671875 0.910156
vt 0.820312 0.781250
vt 0.769531 0.835938
vt 0.769531 0.781250
vt 0.820312 0.835938
vt 0.296875 0.773438
vt 0.347656 0.832031
vt 0.746094 0.855469
vt 0.695312 0.804688
vt 0.695312 0.855469
vt 0.652344 0.765625
vt 0.601562 0.824219
vt 0.601562 0.765625
vt 0.652344 0.824219
vt 0.652344 0.875000
vt 0.601562 0.875000
vt 0.933594 0.300781
vt 0.957031 0.000000
vt 0.957031 0.300781
vt 0.933594 0.000000
vt 0.671875 0.906250
vt 0.695312 0.906250
vt 0.769531 0.300781
vt 0.871094 0.000000
vt 0.871094 0.300781
vt 0.824219 0.910156
vt 0.851562 0.910156
vt 0.570312 0.710938
vt 0.132812 0.953125
vt 0.160156 0.695312
vt 0.160156 0.953125
vt 0.132812 0.695312
vt 0.210938 0.960938
vt 0.234375 0.699219
vt 0.234375 0.960938
vt 0.210938 0.699219
vt 0.335938 0.910156
vt 0.316406 0.886719
vt 0.335938 0.886719
vt 0.316406 0.910156
vt 0.390625 0.976562
vt 0.410156 0.710938
vt 0.410156 0.976562
vt 0.390625 0.710938
vt 0.714844 0.910156
vt 0.695312 0.886719
vt 0.714844 0.886719
vt 0.695312 0.910156
vt 0.371094 0.976562
vt 0.371094 0.710938
vt 0.128906 0.949219
vt 0.160156 0.699219
vt 0.160156 0.949219
vt 0.128906 0.699219
vt 0.902344 0.250000
vt 0.902344 0.000000
vt 0.933594 0.250000
vt 0.714844 0.855469
vt 0.429688 0.960938
vt 0.445312 0.710938
vt 0.445312 0.960938
vt 0.429688 0.710938
vt 0.886719 0.281250
vt 0.871094 0.250000
vt 0.886719 0.250000
vt 0.871094 0.281250
vt 0.410156 0.960938
vt 0.128906 0.945312
vt 0.160156 0.703125
vt 0.160156 0.945312
vt 0.128906 0.703125
vt 0.769531 0.539062
vt 0.824219 0.539062
vt 0.789062 0.894531
vt 0.769531 0.894531
vt 0.789062 0.835938
vt 0.527344 0.949219
vt 0.546875 0.710938
vt 0.546875 0.949219
vt 0.527344 0.710938
vt 0.335938 0.832031
vt 0.492188 0.949219
vt 0.507812 0.710938
vt 0.507812 0.949219
vt 0.492188 0.710938
vt 0.187500 1.000000
vt 0.210938 1.000000
vt 0.187500 0.699219
vt 0.160156 1.000000
vt 0.875000 0.910156
vt 0.902344 0.910156
vt 0.472656 0.710938
vt 0.285156 0.699219
vt 0.261719 0.960938
vt 0.261719 0.699219
vt 0.285156 0.960938
vt 0.000000 0.968750
vt 0.023438 0.968750
vt 0.621094 0.898438
vt 0.621094 0.875000
vt 0.082031 0.703125
vt 0.062500 0.968750
vt 0.082031 0.968750
vt 0.640625 0.898438
vt 0.640625 0.875000
vt 0.925781 0.968750
vt 0.945312 0.968750
vt 0.726562 0.042969
vt 0.695312 0.296875
vt 0.695312 0.042969
vt 0.726562 0.296875
vt 0.097656 0.949219
vt 0.367188 0.906250
vt 0.347656 0.906250
vt 0.464844 0.710938
vt 0.464844 0.960938
vt 0.734375 0.886719
vt 0.734375 0.855469
vt 0.472656 0.960938
vt 0.492188 0.960938
vt 0.355469 0.535156
vt 0.355469 0.773438
vt 0.296875 0.535156
vt 0.355469 0.296875
vt 0.808594 0.894531
vt 0.808594 0.835938
vt 0.824219 0.894531
vt 0.824219 0.835938
vt 0.566406 0.949219
vn 0.000000 -0.000000 1.000000
vn 0.000000 0.000000 -1.000000
vn 1.000000 -0.000000 0.000000
vn 0.000000 -1.000000 -0.000000
vn -1.000000 -0.000000 0.000000
vn 0.000000 1.000000 0.000000
vn 0.939700 -0.000000 0.342000
vn -0.939700 0.000000 -0.342000
vn 0.342000 0.000000 -0.939700
vn -0.342000 -0.000000 0.939700
vn -0.939700 -0.000000 0.342000
vn 0.939700 0.000000 -0.342000
vn 0.342000 -0.000000 0.939700
vn -0.342000 0.000000 -0.939700
vn 0.000000 0.342000 0.939700
vn -0.000000 -0.342000 -0.939700
vn 0.000000 0.939700 -0.342000
vn -0.000000 -0.939700 0.342000
vn 0.000000 0.766000 0.642800
vn -0.000000 -0.766000 -0.642800
vn 0.000000 0.642800 -0.766000
vn -0.000000 -0.642800 0.766000
vn 0.000000 0.965900 0.258800
vn -0.000000 -0.965900 -0.258800
vn 0.000000 0.258800 -0.965900
vn -0.000000 -0.258800 0.965900
vn 0.000000 -0.342000 0.939700
vn 0.000000 0.342000 -0.939700
vn 0.000000 -0.939700 -0.342000
vn 0.000000 0.939700 0.342000
vn 0.000000 -0.766000 0.642800
vn 0.000000 0.766000 -0.642800
vn 0.000000 -0.642800 -0.766000
vn 0.000000 0.642800 0.766000
vn 0.000000 -0.965900 0.258800
vn 0.000000 0.965900 -0.258800
vn 0.000000 -0.258800 -0.965900
vn 0.000000 0.258800 0.965900
usemtl Material.001
s 1
f 1/1/1 2/2/1 3/3/1
f 1/1/1 4/4/1 2/2/1
f 5/5/2 6/4/2 7/6/2
f 5/5/2 8/2/2 6/4/2
f 9/7/3 10/8/3 11/9/3
f 9/7/3 12/10/3 10/8/3
f 13/11/4 14/12/4 15/13/4
f 13/11/4 16/14/4 14/12/4
f 17/15/5 18/16/5 19/17/5
f 17/15/5 20/18/5 18/16/5
f 21/19/6 22/6/6 23/4/6
f 21/19/6 24/20/6 22/6/6
f 25/6/1 26/21/1 27/5/1
f 25/6/1 28/14/1 26/21/1
f 29/22/2 30/14/2 31/11/2
f 29/22/2 32/21/2 30/14/2
f 33/23/3 34/9/3 35/24/3
f 33/23/3 36/7/3 34/9/3
f 37/14/4 38/20/4 39/12/4
f 37/14/4 40/6/4 38/20/4
f 41/24/5 42/25/5 43/23/5
f 41/24/5 44/26/5 42/25/5
f 45/27/6 46/28/6 47/29/6
f 45/27/6 48/30/6 46/28/6
f 49/31/1 50/32/1 51/33/1
f 49/31/1 52/15/1 50/32/1
f 53/34/2 54/33/2 55/8/2
f 53/34/2 56/31/2 54/33/2
f 57/35/3 58/36/3 59/37/3
f 57/35/3 60/38/3 58/36/3
f 61/39/4 62/40/4 63/41/4
f 61/39/4 64/42/4 62/40/4
f 65/38/5 66/43/5 67/36/5
f 65/38/5 68/44/5 66/43/5
f 69/42/6 70/45/6 71/46/6
f 69/42/6 72/39/6 70/45/6
f 73/47/7 74/18/7 75/48/7
f 73/47/7 76/49/7 74/18/7
f 77/50/8 78/29/8 79/51/8
f 77/50/8 80/52/8 78/29/8
f 81/53/9 82/54/9 83/55/9
f 81/53/9 84/56/9 82/54/9
f 85/57/4 86/58/4 87/59/4
f 85/57/4 88/60/4 86/58/4
f 89/61/10 90/62/10 91/63/10
f 89/61/10 92/64/10 90/62/10
f 93/65/6 94/66/6 95/67/6
f 93/65/6 96/68/6 94/66/6
f 97/26/11 98/52/11 99/50/11
f 97/26/11 100/69/11 98/52/11
f 101/70/12 102/48/12 103/71/12
f 101/70/12 104/47/12 102/48/12
f 105/72/13 106/55/13 107/73/13
f 105/72/13 108/53/13 106/55/13
f 109/74/4 110/75/4 111/76/4
f 109/74/4 112/77/4 110/75/4
f 113/56/14 114/3/14 115/54/14
f 113/56/14 116/78/14 114/3/14
f 117/79/6 118/60/6 119/80/6
f 117/79/6 120/58/6 118/60/6
f 121/81/1 122/82/1 123/83/1
f 121/81/1 124/84/1 122/82/1
f 125/67/2 126/76/2 127/85/2
f 125/67/2 128/86/2 126/76/2
f 129/87/3 130/88/3 131/28/3
f 129/87/3 132/89/3 130/88/3
f 133/90/4 134/91/4 135/92/4
f 133/90/4 136/93/4 134/91/4
f 137/91/5 138/94/5 139/95/5
f 137/91/5 140/93/5 138/94/5
f 141/59/6 142/92/6 143/40/6
f 141/59/6 144/90/6 142/92/6
f 145/96/1 146/97/1 147/98/1
f 145/96/1 148/99/1 146/97/1
f 149/98/2 150/61/2 151/73/2
f 149/98/2 152/97/2 150/61/2
f 153/100/5 154/88/5 155/101/5
f 153/100/5 156/51/5 154/88/5
f 157/102/6 158/103/6 159/104/6
f 157/102/6 160/69/6 158/103/6
f 161/105/3 162/12/3 163/106/3
f 161/105/3 164/13/3 162/12/3
f 165/107/4 166/25/4 167/57/4
f 165/107/4 168/23/4 166/25/4
f 169/108/15 170/109/15 171/110/15
f 169/108/15 172/111/15 170/109/15
f 173/112/16 174/113/16 175/114/16
f 173/112/16 176/115/16 174/113/16
f 177/116/5 178/117/5 179/118/5
f 177/116/5 180/119/5 178/117/5
f 181/120/17 182/121/17 183/122/17
f 181/120/17 184/123/17 182/121/17
f 185/124/3 186/125/3 187/126/3
f 185/124/3 188/127/3 186/125/3
f 189/128/18 190/123/18 191/120/18
f 189/128/18 192/129/18 190/123/18
f 193/130/19 194/131/19 195/132/19
f 193/130/19 196/133/19 194/131/19
f 197/99/20 198/134/20 199/135/20
f 197/99/20 200/136/20 198/134/20
f 201/126/5 202/89/5 203/137/5
f 201/126/5 204/125/5 202/89/5
f 205/138/21 206/139/21 207/140/21
f 205/138/21 208/141/21 206/139/21
f 209/142/3 210/143/3 211/144/3
f 209/142/3 212/145/3 210/143/3
f 213/146/22 214/141/22 215/138/22
f 213/146/22 216/121/22 214/141/22
f 217/147/23 218/148/23 219/149/23
f 217/147/23 220/150/23 218/148/23
f 221/151/24 222/22/24 223/152/24
f 221/151/24 224/102/24 222/22/24
f 225/82/5 226/153/5 227/154/5
f 225/82/5 228/155/5 226/153/5
f 229/156/25 230/157/25 231/158/25
f 229/156/25 232/159/25 230/157/25
f 233/118/3 234/74/3 235/160/3
f 233/118/3 236/117/3 234/74/3
f 237/161/26 238/162/26 239/163/26
f 237/161/26 240/164/26 238/162/26
f 241/165/1 242/115/1 243/166/1
f 241/165/1 244/167/1 242/115/1
f 245/167/2 246/168/2 247/131/2
f 245/167/2 248/165/2 246/168/2
f 249/169/3 250/19/3 251/170/3
f 249/169/3 252/20/3 250/19/3
f 253/7/4 254/129/4 255/10/4
f 253/7/4 256/171/4 254/129/4
f 257/20/5 258/106/5 259/12/5
f 257/20/5 260/169/5 258/106/5
f 261/171/6 262/23/6 263/107/6
f 261/171/6 264/7/6 262/23/6
f 265/172/27 266/173/27 267/174/27
f 265/172/27 268/175/27 266/173/27
f 269/35/28 270/176/28 271/17/28
f 269/35/28 272/177/28 270/176/28
f 273/95/3 274/178/3 275/41/3
f 273/95/3 276/179/3 274/178/3
f 277/180/29 278/181/29 279/44/29
f 277/180/29 280/182/29 278/181/29
f 281/179/5 282/183/5 283/178/5
f 281/179/5 284/184/5 282/183/5
f 285/185/30 286/56/30 287/186/30
f 285/185/30 288/78/30 286/56/30
f 289/187/31 290/188/31 291/189/31
f 289/187/31 292/190/31 290/188/31
f 293/133/32 294/191/32 295/49/32
f 293/133/32 296/130/32 294/191/32
f 297/192/3 298/66/3 299/68/3
f 297/192/3 300/193/3 298/66/3
f 301/194/33 302/140/33 303/139/33
f 301/194/33 304/195/33 302/140/33
f 305/196/5 306/137/5 307/197/5
f 305/196/5 308/126/5 306/137/5
f 309/164/34 310/198/34 311/171/34
f 309/164/34 312/199/34 310/198/34
f 313/85/35 314/200/35 315/201/35
f 313/85/35 316/202/35 314/200/35
f 317/202/36 318/203/36 319/200/36
f 317/202/36 320/71/36 318/203/36
f 321/204/3 322/155/3 323/205/3
f 321/204/3 324/153/3 322/155/3
f 325/159/37 326/163/37 327/162/37
f 325/159/37 328/156/37 326/163/37
f 329/205/5 330/206/5 331/204/5
f 329/205/5 332/207/5 330/206/5
f 333/158/38 334/46/38 335/208/38
f 333/158/38 336/157/38 334/46/38
