# Blender v2.78 (sub 0) OBJ File: ''
# www.blender.org
mtllib log_fire.mtl
o CUBE_cube
v 0.810549 -0.001436 0.389229
v 0.810549 0.145215 0.389229
v 0.667459 -0.001436 0.421352
v 0.667459 0.145215 0.421352
v 0.778427 -0.001436 0.246139
v 0.778427 0.145215 0.246139
v 0.635336 -0.001436 0.278262
v 0.635336 0.145215 0.278262
v 0.745993 0.244951 0.084877
v 0.745993 0.391602 0.084877
v 0.621839 0.244951 0.006823
v 0.621839 0.391602 0.006823
v 0.824047 0.244951 -0.039277
v 0.824047 0.391602 -0.039277
v 0.699893 0.244951 -0.117331
v 0.699893 0.391602 -0.117331
v -0.755767 0.244951 0.087468
v -0.755767 0.391602 0.087468
v -0.860275 0.244951 -0.015415
v -0.860275 0.391602 -0.015415
v -0.652884 0.244951 -0.017039
v -0.652884 0.391602 -0.017039
v -0.757392 0.244951 -0.119922
v -0.757392 0.391602 -0.119922
v -0.574105 0.000069 0.267774
v -0.574105 0.146720 0.267774
v -0.570602 0.000069 0.121164
v -0.570602 0.146720 0.121164
v -0.427495 0.000069 0.271277
v -0.427495 0.146720 0.271277
v -0.423992 0.000069 0.124667
v -0.423992 0.146720 0.124667
v -0.763318 0.000069 0.252208
v -0.763318 0.146720 0.252208
v -0.732020 0.000069 0.108935
v -0.732020 0.146720 0.108935
v -0.620045 0.000069 0.283506
v -0.620045 0.146720 0.283506
v -0.588747 0.000069 0.140233
v -0.588747 0.146720 0.140233
v -0.625931 0.284834 0.041383
v -0.631141 0.520628 -0.041528
v -0.637057 0.201778 -0.194125
v -0.642267 0.437572 -0.277036
v 0.637208 0.297402 -0.002255
v 0.631997 0.533196 -0.085166
v 0.626081 0.214346 -0.237762
v 0.620871 0.450140 -0.320673
v -0.641481 0.246386 0.297902
v -0.641481 0.496386 0.297902
v -0.609397 0.246386 0.049998
v -0.609397 0.496386 0.049998
v 0.609397 0.246386 0.479243
v 0.609397 0.496386 0.479243
v 0.641481 0.246386 0.231339
v 0.641481 0.496386 0.231339
v -0.898218 -0.003614 -0.201719
v -0.898218 0.246386 -0.201719
v -0.906117 -0.003614 -0.451594
v -0.906117 0.246386 -0.451594
v 0.906117 -0.003614 -0.258759
v 0.906117 0.246386 -0.258759
v 0.898218 -0.003614 -0.508635
v 0.898218 0.246386 -0.508635
v -0.633527 -0.003614 0.527307
v -0.633527 0.246386 0.527307
v -0.629861 -0.003614 0.277362
v -0.629861 0.246386 0.277362
v 0.629861 -0.003614 0.565129
v 0.629861 0.246386 0.565129
v 0.633527 -0.003614 0.315184
v 0.633527 0.246386 0.315184
v -0.905039 -0.003614 0.106062
v -0.905039 0.246386 0.106062
v -0.899801 -0.003614 -0.143883
v -0.899801 0.246386 -0.143883
v 0.899801 -0.003614 0.143883
v 0.899801 0.246386 0.143883
v 0.905039 -0.003614 -0.106062
v 0.905039 0.246386 -0.106062
vt 0.1953 0.9112
vt 0.2296 0.9473
vt 0.1953 0.9469
vt 0.0495 0.9467
vt 0.0147 0.9109
vt 0.0495 0.9109
vt 0.3199 0.9469
vt 0.2857 0.9116
vt 0.3199 0.9112
vt 0.1399 0.9467
vt 0.1050 0.9110
vt 0.1399 0.9110
vt 0.9125 0.6473
vt 0.9483 0.6115
vt 0.9483 0.6473
vt 0.9483 0.6765
vt 0.9125 0.7123
vt 0.9125 0.6765
vt 0.4077 0.9475
vt 0.3760 0.9124
vt 0.4077 0.9118
vt 0.8583 0.9854
vt 0.8277 0.9496
vt 0.8583 0.9496
vt 0.4370 0.9118
vt 0.4688 0.9481
vt 0.4370 0.9475
vt 0.9234 0.9854
vt 0.8928 0.9496
vt 0.9234 0.9496
vt 0.8277 0.9203
vt 0.8635 0.8846
vt 0.8635 0.9204
vt 0.9286 0.8196
vt 0.8928 0.8554
vt 0.8928 0.8196
vt 0.5255 0.9475
vt 0.4981 0.9126
vt 0.5255 0.9118
vt 0.9838 0.9212
vt 0.9579 0.8854
vt 0.9838 0.8855
vt 0.9579 0.8196
vt 0.9853 0.8562
vt 0.9579 0.8553
vt 0.9580 0.3527
vt 0.9838 0.3885
vt 0.9580 0.3885
vt 0.8635 0.8553
vt 0.8277 0.8196
vt 0.8635 0.8196
vt 0.8277 0.3885
vt 0.8635 0.3527
vt 0.8635 0.3885
vt 0.9286 0.3527
vt 0.8928 0.3885
vt 0.8928 0.3527
vt 0.5567 0.9100
vt 0.5924 0.9457
vt 0.5567 0.9458
vt 0.7373 0.9455
vt 0.7731 0.9098
vt 0.7731 0.9455
vt 0.6470 0.9100
vt 0.6828 0.9458
vt 0.6470 0.9457
vt 0.9483 0.7773
vt 0.9125 0.7415
vt 0.9483 0.7415
vt 0.9483 0.0504
vt 0.9125 0.0146
vt 0.9483 0.0146
vt 0.9125 0.2099
vt 0.9476 0.2457
vt 0.9125 0.2457
vt 0.9125 0.0796
vt 0.9480 0.1155
vt 0.9125 0.1153
vt 0.9476 0.3107
vt 0.9125 0.2749
vt 0.9476 0.2749
vt 0.9125 0.1450
vt 0.9480 0.1805
vt 0.9125 0.1807
vt 0.9125 0.4815
vt 0.9483 0.5173
vt 0.9125 0.5173
vt 0.9125 0.5465
vt 0.9483 0.5823
vt 0.9125 0.5823
vt 0.1660 0.8817
vt 0.1050 0.8207
vt 0.1660 0.8208
vt 0.7080 0.8807
vt 0.6470 0.8199
vt 0.7080 0.8198
vt 0.4367 0.8825
vt 0.3760 0.8216
vt 0.4367 0.8216
vt 0.5270 0.8825
vt 0.4663 0.8216
vt 0.5270 0.8216
vt 0.2563 0.8819
vt 0.1953 0.8210
vt 0.2563 0.8210
vt 0.3467 0.8819
vt 0.2857 0.8210
vt 0.3467 0.8210
vt 0.5567 0.8198
vt 0.6177 0.8807
vt 0.5567 0.8807
vt 0.0147 0.8207
vt 0.0757 0.8817
vt 0.0147 0.8817
vt 0.7373 0.4137
vt 0.7984 0.3527
vt 0.7984 0.4137
vt 0.7984 0.8196
vt 0.7373 0.8805
vt 0.7373 0.8196
vt 0.2296 0.9116
vt 0.0147 0.9467
vt 0.2857 0.9473
vt 0.1050 0.9467
vt 0.9125 0.6115
vt 0.9483 0.7123
vt 0.3760 0.9481
vt 0.8277 0.9854
vt 0.4688 0.9124
vt 0.8928 0.9854
vt 0.8277 0.8846
vt 0.9286 0.8553
vt 0.4981 0.9483
vt 0.9579 0.9212
vt 0.9853 0.8205
vt 0.9838 0.3527
vt 0.8277 0.8554
vt 0.8277 0.3527
vt 0.9286 0.3885
vt 0.5924 0.9100
vt 0.7373 0.9098
vt 0.6828 0.9101
vt 0.9125 0.7773
vt 0.9125 0.0504
vt 0.9476 0.2099
vt 0.9480 0.0798
vt 0.9125 0.3107
vt 0.9480 0.1448
vt 0.9483 0.4815
vt 0.9483 0.5465
vt 0.1050 0.8816
vt 0.6470 0.8808
vt 0.3760 0.8825
vt 0.4663 0.8825
vt 0.1953 0.8819
vt 0.2857 0.8819
vt 0.6177 0.8198
vt 0.0757 0.8207
vt 0.7373 0.3527
vt 0.7984 0.8805
vt 0.8249 0.7897
vt 0.8832 0.4815
vt 0.8832 0.7877
vt 0.8249 0.3208
vt 0.8832 0.0166
vt 0.8832 0.3228
vt 0.7373 0.0154
vt 0.7956 0.3227
vt 0.7373 0.3235
vt 0.7373 0.7896
vt 0.7956 0.4823
vt 0.7956 0.7904
vt 0.0147 0.7915
vt 0.0757 0.4839
vt 0.0757 0.7913
vt 0.1660 0.4841
vt 0.1050 0.7913
vt 0.1050 0.4839
vt 0.4663 0.4842
vt 0.5274 0.7914
vt 0.4663 0.7923
vt 0.4370 0.4842
vt 0.3760 0.7914
vt 0.3760 0.4833
vt 0.6470 0.4520
vt 0.7080 0.0149
vt 0.7080 0.4523
vt 0.5567 0.4523
vt 0.6177 0.0146
vt 0.6177 0.4520
vt 0.1953 0.0146
vt 0.2564 0.4547
vt 0.1953 0.4547
vt 0.3467 0.4547
vt 0.2857 0.0146
vt 0.3467 0.0146
vt 0.2564 0.4840
vt 0.1953 0.7916
vt 0.1953 0.4839
vt 0.2857 0.7917
vt 0.3467 0.4839
vt 0.3467 0.7916
vt 0.6177 0.7896
vt 0.5567 0.4824
vt 0.6177 0.4815
vt 0.7080 0.4824
vt 0.6470 0.7896
vt 0.6470 0.4815
vt 0.4663 0.4539
vt 0.5274 0.0148
vt 0.5274 0.4541
vt 0.3760 0.4541
vt 0.4370 0.0146
vt 0.4370 0.4539
vt 0.1660 0.4547
vt 0.1050 0.0146
vt 0.1660 0.0146
vt 0.0757 0.0146
vt 0.0147 0.4547
vt 0.0147 0.0146
vt 0.8249 0.4835
vt 0.8249 0.0146
vt 0.7956 0.0146
vt 0.7373 0.4815
vt 0.0147 0.4841
vt 0.1660 0.7915
vt 0.5274 0.4833
vt 0.4370 0.7923
vt 0.6470 0.0146
vt 0.5567 0.0149
vt 0.2564 0.0146
vt 0.2857 0.4547
vt 0.2564 0.7917
vt 0.2857 0.4840
vt 0.5567 0.7905
vt 0.7080 0.7905
vt 0.4663 0.0146
vt 0.3760 0.0148
vt 0.1050 0.4546
vt 0.0757 0.4546
vn 0.2190 0.0000 0.9757
vn -0.9757 0.0000 0.2190
vn -0.2190 0.0000 -0.9757
vn 0.9757 0.0000 -0.2190
vn 0.0000 -1.0000 0.0000
vn 0.0000 1.0000 0.0000
vn -0.5322 0.0000 0.8466
vn -0.8466 0.0000 -0.5322
vn 0.5322 0.0000 -0.8466
vn 0.8466 0.0000 0.5322
vn -0.7015 0.0000 0.7126
vn -0.7126 0.0000 -0.7015
vn 0.7015 0.0000 -0.7126
vn 0.7126 0.0000 0.7015
vn -0.9997 0.0000 -0.0239
vn 0.0239 0.0000 -0.9997
vn 0.9997 0.0000 0.0239
vn -0.0239 0.0000 0.9997
vn -0.9770 0.0000 -0.2134
vn 0.2134 0.0000 -0.9770
vn 0.9770 0.0000 0.2134
vn -0.2134 0.0000 0.9770
vn -0.9988 -0.0049 0.0489
vn 0.9988 0.0049 -0.0489
vn -0.9917 0.0000 -0.1284
vn 0.9917 0.0000 0.1284
vn -0.9995 0.0000 0.0316
vn 0.9995 0.0000 -0.0316
vn -0.9999 0.0000 -0.0147
vn 0.9999 0.0000 0.0147
vn -0.9998 0.0000 -0.0210
vn 0.9998 0.0000 0.0210
vn -0.0293 -0.3321 -0.9428
vn 0.0293 0.3321 0.9428
vn 0.0208 -0.9432 0.3316
vn -0.0208 0.9432 -0.3316
vn 0.1435 0.0000 -0.9897
vn -0.1435 0.0000 0.9897
vn -0.0316 0.0000 -0.9995
vn 0.0316 0.0000 0.9995
vn 0.0299 0.0000 -0.9996
vn -0.0299 0.0000 0.9996
vn 0.0210 0.0000 -0.9998
vn -0.0210 0.0000 0.9998
usemtl Material.001
s off
f 2/1/1 3/2/1 1/3/1
f 4/4/2 7/5/2 3/6/2
f 8/7/3 5/8/3 7/9/3
f 6/10/4 1/11/4 5/12/4
f 7/13/5 1/14/5 3/15/5
f 4/16/6 6/17/6 8/18/6
f 10/19/7 11/20/7 9/21/7
f 12/22/8 15/23/8 11/24/8
f 16/25/9 13/26/9 15/27/9
f 14/28/10 9/29/10 13/30/10
f 15/31/5 9/32/5 11/33/5
f 12/34/6 14/35/6 16/36/6
f 18/37/11 19/38/11 17/39/11
f 20/40/12 23/41/12 19/42/12
f 24/43/13 21/44/13 23/45/13
f 22/46/14 17/47/14 21/48/14
f 23/49/5 17/50/5 19/51/5
f 24/52/6 18/53/6 22/54/6
f 26/55/15 27/56/15 25/57/15
f 28/58/16 31/59/16 27/60/16
f 32/61/17 29/62/17 31/63/17
f 30/64/18 25/65/18 29/66/18
f 31/67/5 25/68/5 27/69/5
f 28/70/6 30/71/6 32/72/6
f 34/73/19 35/74/19 33/75/19
f 36/76/20 39/77/20 35/78/20
f 40/79/21 37/80/21 39/81/21
f 38/82/22 33/83/22 37/84/22
f 39/85/5 33/86/5 35/87/5
f 36/88/6 38/89/6 40/90/6
f 42/91/23 43/92/23 41/93/23
f 48/94/24 45/95/24 47/96/24
f 50/97/25 51/98/25 49/99/25
f 56/100/26 53/101/26 55/102/26
f 58/103/27 59/104/27 57/105/27
f 64/106/28 61/107/28 63/108/28
f 66/109/29 67/110/29 65/111/29
f 72/112/30 69/113/30 71/114/30
f 74/115/31 75/116/31 73/117/31
f 80/118/32 77/119/32 79/120/32
f 2/1/1 4/121/1 3/2/1
f 4/4/2 8/122/2 7/5/2
f 8/7/3 6/123/3 5/8/3
f 6/10/4 2/124/4 1/11/4
f 7/13/5 5/125/5 1/14/5
f 4/16/6 2/126/6 6/17/6
f 10/19/7 12/127/7 11/20/7
f 12/22/8 16/128/8 15/23/8
f 16/25/9 14/129/9 13/26/9
f 14/28/10 10/130/10 9/29/10
f 15/31/5 13/131/5 9/32/5
f 12/34/6 10/132/6 14/35/6
f 18/37/11 20/133/11 19/38/11
f 20/40/12 24/134/12 23/41/12
f 24/43/13 22/135/13 21/44/13
f 22/46/14 18/136/14 17/47/14
f 23/49/5 21/137/5 17/50/5
f 24/52/6 20/138/6 18/53/6
f 26/55/15 28/139/15 27/56/15
f 28/58/16 32/140/16 31/59/16
f 32/61/17 30/141/17 29/62/17
f 30/64/18 26/142/18 25/65/18
f 31/67/5 29/143/5 25/68/5
f 28/70/6 26/144/6 30/71/6
f 34/73/19 36/145/19 35/74/19
f 36/76/20 40/146/20 39/77/20
f 40/79/21 38/147/21 37/80/21
f 38/82/22 34/148/22 33/83/22
f 39/85/5 37/149/5 33/86/5
f 36/88/6 34/150/6 38/89/6
f 42/91/23 44/151/23 43/92/23
f 48/94/24 46/152/24 45/95/24
f 50/97/25 52/153/25 51/98/25
f 56/100/26 54/154/26 53/101/26
f 58/103/27 60/155/27 59/104/27
f 64/106/28 62/156/28 61/107/28
f 66/109/29 68/157/29 67/110/29
f 72/112/30 70/158/30 69/113/30
f 74/115/31 76/159/31 75/116/31
f 80/118/32 78/160/32 77/119/32
usemtl Material.002
f 44/161/33 47/162/33 43/163/33
f 46/164/34 41/165/34 45/166/34
f 47/167/35 41/168/35 43/169/35
f 48/170/36 42/171/36 46/172/36
f 52/173/37 55/174/37 51/175/37
f 54/176/38 49/177/38 53/178/38
f 55/179/5 49/180/5 51/181/5
f 56/182/6 50/183/6 54/184/6
f 60/185/39 63/186/39 59/187/39
f 62/188/40 57/189/40 61/190/40
f 63/191/5 57/192/5 59/193/5
f 60/194/6 62/195/6 64/196/6
f 68/197/41 71/198/41 67/199/41
f 70/200/42 65/201/42 69/202/42
f 71/203/5 65/204/5 67/205/5
f 72/206/6 66/207/6 70/208/6
f 76/209/43 79/210/43 75/211/43
f 78/212/44 73/213/44 77/214/44
f 79/215/5 73/216/5 75/217/5
f 80/218/6 74/219/6 78/220/6
f 44/161/33 48/221/33 47/162/33
f 46/164/34 42/222/34 41/165/34
f 47/167/35 45/223/35 41/168/35
f 48/170/36 44/224/36 42/171/36
f 52/173/37 56/225/37 55/174/37
f 54/176/38 50/226/38 49/177/38
f 55/179/5 53/227/5 49/180/5
f 56/182/6 52/228/6 50/183/6
f 60/185/39 64/229/39 63/186/39
f 62/188/40 58/230/40 57/189/40
f 63/191/5 61/231/5 57/192/5
f 60/194/6 58/232/6 62/195/6
f 68/197/41 72/233/41 71/198/41
f 70/200/42 66/234/42 65/201/42
f 71/203/5 69/235/5 65/204/5
f 72/206/6 68/236/6 66/207/6
f 76/209/43 80/237/43 79/210/43
f 78/212/44 74/238/44 73/213/44
f 79/215/5 77/239/5 73/216/5
f 80/218/6 76/240/6 74/219/6
