# Blender v2.78 (sub 0) OBJ File: ''
# www.blender.org
mtllib plinth.mtl
o Cube
v 1.000000 0.000000 -1.000000
v 1.000000 0.000000 1.000000
v -1.000000 0.000000 1.000000
v -1.000000 0.000000 -1.000000
v 0.904253 0.300000 -0.904252
v 0.904252 0.300000 0.904253
v -0.904253 0.300000 0.904253
v -0.904253 0.300000 -0.904253
v 0.897921 0.347636 -0.897920
v 0.897920 0.347636 0.897922
v -0.897921 0.347636 -0.897921
v -0.897921 0.347636 0.897921
vt 0.5091 0.0149
vt 0.0148 0.5104
vt 0.0148 0.0149
vt 0.7353 0.5133
vt 0.7471 0.9598
vt 0.7353 0.9614
vt 0.5506 0.9614
vt 0.6281 0.4896
vt 0.6281 0.9851
vt 0.6578 0.9851
vt 0.6578 0.4896
vt 0.8662 0.9851
vt 0.7886 0.5133
vt 0.8662 0.4896
vt 0.9852 0.4896
vt 0.9076 0.9614
vt 0.9076 0.5133
vt 0.9826 0.0149
vt 0.5388 0.4598
vt 0.5388 0.0149
vt 0.5506 0.5133
vt 0.5388 0.9598
vt 0.5388 0.5149
vt 0.7886 0.9614
vt 0.7768 0.5149
vt 0.8958 0.9598
vt 0.8958 0.5149
vt 0.5091 0.5104
vt 0.7471 0.5149
vt 0.9852 0.9851
vt 0.9826 0.4598
vt 0.7768 0.9598
vn 0.0000 -1.0000 0.0000
vn -0.0000 0.1318 0.9913
vn 0.9527 0.3040 0.0000
vn -0.0000 0.3040 0.9527
vn -0.9527 0.3040 -0.0000
vn 0.0000 0.3040 -0.9527
vn 0.0000 1.0000 -0.0000
vn 0.9913 0.1318 0.0000
vn -0.9913 0.1318 -0.0000
vn 0.0000 0.1318 -0.9913
usemtl Material
s off
f 2/1/1 4/2/1 1/3/1
f 6/4/2 12/5/2 7/6/2
f 5/7/3 2/8/3 1/9/3
f 6/4/4 3/10/4 2/11/4
f 3/12/5 8/13/5 4/14/5
f 1/15/6 8/16/6 5/17/6
f 9/18/7 12/19/7 10/20/7
f 6/21/8 9/22/8 10/23/8
f 7/24/9 11/25/9 8/13/9
f 5/17/10 11/26/10 9/27/10
f 2/1/1 3/28/1 4/2/1
f 6/4/2 10/29/2 12/5/2
f 5/7/3 6/21/3 2/8/3
f 6/4/4 7/6/4 3/10/4
f 3/12/5 7/24/5 8/13/5
f 1/15/6 4/30/6 8/16/6
f 9/18/7 11/31/7 12/19/7
f 6/21/8 5/7/8 9/22/8
f 7/24/9 12/32/9 11/25/9
f 5/17/10 8/16/10 11/26/10
