# Blender v2.78 (sub 5) OBJ File: ''
# www.blender.org
mtllib sim.mtl
o Cone
v 0.000000 2.000000 0.000000
v 0.000000 0.000000 -1.000000
v 0.866025 0.000000 -0.500000
v 0.000000 -2.000000 0.000000
v 0.866025 0.000000 0.500000
v -0.000000 0.000000 1.000000
v -0.866025 0.000000 0.500000
v -0.866025 0.000000 -0.500000
vn 0.4588 0.3974 -0.7947
vn 0.9177 0.3974 0.0000
vn 0.4588 0.3974 0.7947
vn -0.4588 0.3974 0.7947
vn -0.9177 0.3974 0.0000
vn -0.4588 0.3974 -0.7947
vn 0.4588 -0.3974 -0.7947
vn 0.9177 -0.3974 0.0000
vn 0.4588 -0.3974 0.7947
vn -0.4588 -0.3974 0.7947
vn -0.9177 -0.3974 0.0000
vn -0.4588 -0.3974 -0.7947
vn 0.0000 1.0000 0.0000
usemtl None
s off
f 2//1 1//1 3//1
f 3//2 1//2 5//2
f 5//3 1//3 6//3
f 6//4 1//4 7//4
f 7//5 1//5 8//5
f 8//6 1//6 2//6
f 2//7 3//7 4//7
f 3//8 5//8 4//8
f 5//9 6//9 4//9
f 6//10 7//10 4//10
f 7//11 8//11 4//11
f 8//12 2//12 4//12
f 2//13 8//13 7//13 6//13 5//13 3//13
