# Blender v2.76 (sub 0) OBJ File: 'fridge.blend'
# www.blender.org
mtllib fridge_body.mtl
o Cube
v 0.600000 0.000000 -1.000000
v 0.600000 0.000000 1.000000
v -1.000000 0.000000 1.000000
v -1.000000 0.000000 -1.000000
v 0.600001 4.000000 -0.999999
v 0.599999 4.000000 1.000001
v -1.000000 4.000000 1.000000
v -1.000000 4.000000 -1.000000
v -0.451525 0.000000 1.000000
v -0.451525 0.000000 -1.000000
v -0.451525 4.000000 1.000000
v -0.451525 4.000000 -1.000000
v 0.600000 0.000000 0.773767
v -1.000000 0.000000 0.773766
v 0.599999 4.000000 0.773767
v -1.000000 4.000000 0.773766
v 0.600000 0.000000 -0.788971
v -1.000000 0.000000 -0.788971
v 0.599999 4.000000 -0.788970
v -1.000000 4.000000 -0.788971
v 0.600000 0.045360 -1.000000
v 0.600000 0.045360 1.000000
v -1.000000 0.045360 1.000000
v -1.000000 0.045360 -1.000000
v 0.600000 0.000000 0.774279
v -1.000000 0.000000 0.774279
v 0.599999 4.000000 0.774280
v -1.000000 4.000000 0.774279
v 0.600000 0.045360 0.774279
v -1.000000 0.045360 0.774279
v -1.000000 0.000000 -0.788193
v -1.000000 4.000000 -0.788193
v -1.000000 0.045360 -0.788193
v 0.600000 0.000000 -0.788193
v 0.600000 4.000000 -0.788192
v 0.600000 0.045360 -0.788193
v 0.599999 3.938758 0.774280
v -1.000000 3.938758 0.774279
v -1.000000 3.938758 -0.788193
v 0.600000 3.938758 -0.788192
v -0.451525 1.999932 1.000000
v -0.451525 1.999932 -1.000000
v 0.600000 2.000000 -1.000000
v 0.600000 2.000000 1.000000
v -1.000000 2.000000 1.000000
v -1.000000 2.000000 -1.000000
v 0.600000 2.000000 0.773767
v -1.000000 2.000000 0.773766
v 0.600000 2.000000 -0.788970
v -1.000000 2.000000 -0.788971
v -1.000000 2.000000 0.774279
v -1.000000 2.000000 -0.788193
vt 0.733247 0.500000
vt 0.942746 0.500000
vt 0.942746 0.528215
vt 0.941406 0.722656
vt 0.941406 0.750000
vt 0.734375 0.750000
vt 0.523748 0.000000
vt 0.733247 0.000000
vt 0.733247 0.250000
vt 0.027733 0.500000
vt 0.000000 0.500000
vt 0.000000 0.250000
vt 0.209499 1.000000
vt 0.000000 1.000000
vt 0.000000 0.750000
vt 0.261874 0.250009
vt 0.261874 0.000000
vt 0.418998 0.750000
vt 0.418998 1.000000
vt 0.972368 0.500000
vt 0.942746 0.250000
vt 1.000000 0.250000
vt 1.000000 0.500000
vt 0.523748 0.500000
vt 0.733247 0.528215
vt 0.289062 0.496094
vt 0.289062 0.300781
vt 0.500000 0.300781
vt 0.261874 0.500000
vt 0.232319 0.500000
vt 0.232319 0.250000
vt 0.941406 0.527344
vt 0.734375 0.722656
vt 0.733247 0.723524
vt 0.942746 0.723524
vt 0.942746 0.750000
vt 0.734375 0.527344
vt 0.734375 0.500000
vt 0.523748 0.723524
vt 0.733247 0.750000
vt 0.427017 0.500000
vt 0.432956 0.500000
vt 0.432956 0.695309
vt 0.937832 0.950000
vt 0.733247 0.950000
vt 0.734375 0.753906
vt 0.427017 0.695309
vt 0.418998 0.695309
vt 0.519531 0.250000
vt 0.027733 0.250000
vt 0.027733 0.000000
vt 0.232319 0.000000
vt 1.000000 0.000000
vt 0.972368 0.250000
vt 0.942746 0.000000
vt 0.418998 0.500000
vt 0.209499 0.750000
vt 0.000000 0.000000
vt 0.523748 0.250000
vt 0.519531 0.000000
vt 0.523748 0.528215
vt 0.500000 0.496094
vt 0.941406 0.500000
vt 0.523748 0.750000
vt 0.937500 0.753906
vt 0.519531 0.500000
vt 0.972368 0.000000
vt 0.209499 0.500000
vn 0.000000 -1.000000 0.000000
vn -0.000000 0.000000 1.000000
vn -1.000000 -0.000000 -0.000000
vn 0.000000 0.000000 -1.000000
vn 1.000000 0.000000 0.000000
usemtl Material.009
s off
f 2/1/1 3/2/1 26/3/1
f 27/4/1 6/5/1 7/6/1
f 6/7/2 7/8/2 45/9/2
f 32/10/3 8/11/3 46/12/3
f 1/13/4 4/14/4 46/15/4
f 42/16/5 12/17/5 11/7/5
f 48/18/4 16/19/4 15/13/4
f 19/2/2 20/1/2 50/9/2
f 2/20/5 13/2/5 47/21/5
f 49/22/5 17/23/5 1/20/5
f 22/24/1 23/1/1 30/25/1
f 36/26/1 29/27/1 30/28/1
f 7/29/3 28/30/3 51/31/3
f 35/32/1 27/4/1 28/33/1
f 34/34/1 25/25/1 26/3/1
f 34/34/1 31/35/1 4/36/1
f 35/32/1 32/37/1 8/38/1
f 36/39/1 33/34/1 24/40/1
f 34/41/5 36/42/5 29/43/5
f 51/31/3 28/30/3 32/10/3
f 40/44/1 37/45/1 38/46/1
f 37/41/5 40/47/5 35/48/5
f 10/29/5 42/16/5 41/49/5
f 51/31/3 52/50/3 31/51/3
f 45/16/3 51/31/3 26/52/3
f 19/53/5 49/22/5 43/54/5
f 44/54/5 47/21/5 15/55/5
f 49/21/2 50/9/2 18/8/2
f 14/56/4 48/18/4 47/57/4
f 43/57/4 46/15/4 8/11/4
f 52/50/3 46/12/3 4/58/3
f 44/59/2 45/9/2 3/1/2
f 25/25/1 2/1/1 26/3/1
f 28/33/1 27/4/1 7/6/1
f 44/59/2 6/7/2 45/9/2
f 52/50/3 32/10/3 46/12/3
f 43/57/4 1/13/4 46/15/4
f 41/49/5 42/16/5 11/60/5
f 47/57/4 48/18/4 15/13/4
f 49/21/2 19/2/2 50/9/2
f 44/54/5 2/20/5 47/21/5
f 43/54/5 49/22/5 1/20/5
f 29/61/1 22/24/1 30/25/1
f 33/62/1 36/26/1 30/28/1
f 45/16/3 7/29/3 51/31/3
f 32/37/1 35/32/1 28/33/1
f 31/35/1 34/34/1 26/3/1
f 1/40/1 34/34/1 4/36/1
f 5/63/1 35/32/1 8/38/1
f 21/64/1 36/39/1 24/40/1
f 25/47/5 34/41/5 29/43/5
f 52/50/3 51/31/3 32/10/3
f 39/65/1 40/44/1 38/46/1
f 27/56/5 37/41/5 35/48/5
f 9/66/5 10/29/5 41/49/5
f 26/52/3 51/31/3 31/51/3
f 3/17/3 45/16/3 26/52/3
f 5/67/5 19/53/5 43/54/5
f 6/67/5 44/54/5 15/55/5
f 17/55/2 49/21/2 18/8/2
f 13/68/4 14/56/4 47/57/4
f 5/68/4 43/57/4 8/11/4
f 31/51/3 52/50/3 4/58/3
f 2/24/2 44/59/2 3/1/2
