# Blender v2.75 (sub 0) OBJ File: 'Cap.blend'
# www.blender.org
mtllib Body.mtl
o New002
v 0.625000 0.000000 0.505889
v -0.687500 0.000000 0.505889
v 0.625000 0.000000 -0.502453
v -0.687500 0.000000 -0.502453
v 0.602641 0.044720 0.505889
v -0.652146 0.035354 0.505889
v 0.602641 0.044720 -0.502453
v -0.652146 0.035354 -0.502453
v 0.750000 0.000000 -0.562500
v 0.750000 0.000000 -0.500000
v 0.687500 0.000000 -0.500000
v 0.687500 0.000000 -0.562500
v 0.750000 2.000000 -0.562500
v 0.750000 2.000000 -0.500000
v 0.687500 2.000000 -0.500000
v 0.687500 2.000000 -0.562500
v 0.687500 0.000000 0.500000
v 0.687500 0.000000 0.687500
v 0.625000 0.000000 0.687500
v 0.625000 0.000000 0.500000
v 0.687500 2.000000 0.500000
v 0.687500 2.000000 0.687500
v 0.625000 2.000000 0.687500
v 0.625000 2.000000 0.500000
v 0.687500 0.000000 -0.687500
v 0.687500 0.000000 -0.500000
v 0.625000 0.000000 -0.500000
v 0.625000 0.000000 -0.687500
v 0.687500 2.000000 -0.687500
v 0.687500 2.000000 -0.500000
v 0.625000 2.000000 -0.500000
v 0.625000 2.000000 -0.687500
v 0.687500 2.000000 -0.687500
v 0.687500 2.000000 0.687500
v 0.625000 2.000000 0.687500
v 0.625000 2.000000 -0.687500
v 0.687500 3.000000 -0.687500
v 0.687500 3.000000 0.687500
v 0.625000 3.000000 0.687500
v 0.625000 3.000000 -0.687500
v -0.687500 0.000000 -0.562500
v -0.687500 0.000000 0.562500
v -0.750000 0.000000 0.562500
v -0.750000 0.000000 -0.562500
v -0.687500 3.000000 -0.562500
v -0.687500 3.000000 0.562500
v -0.750000 3.000000 0.562500
v -0.750000 3.000000 -0.562500
v 0.750000 2.000000 -0.562500
v 0.750000 2.000000 0.562500
v 0.687500 2.000000 0.562500
v 0.687500 2.000000 -0.562500
v 0.750000 3.000000 -0.562500
v 0.750000 3.000000 0.562500
v 0.687500 3.000000 0.562500
v 0.687500 3.000000 -0.562500
v 0.437500 0.000000 -0.812500
v 0.437500 0.000000 -0.750000
v -0.437500 0.000000 -0.750000
v -0.437500 0.000000 -0.812500
v 0.437500 3.000000 -0.812500
v 0.437500 3.000000 -0.750000
v -0.437500 3.000000 -0.750000
v -0.437500 3.000000 -0.812500
v 0.562500 0.000000 -0.750000
v 0.562500 0.000000 -0.687500
v -0.562500 0.000000 -0.687500
v -0.562500 0.000000 -0.750000
v 0.562500 3.000000 -0.750000
v 0.562500 3.000000 -0.687500
v -0.562500 3.000000 -0.687500
v -0.562500 3.000000 -0.750000
v 0.812500 2.000000 -0.375000
v 0.812500 2.000000 0.375000
v 0.750000 2.000000 0.375000
v 0.750000 2.000000 -0.375000
v 0.812500 3.000000 -0.375000
v 0.812500 3.000000 0.375000
v 0.750000 3.000000 0.375000
v 0.750000 3.000000 -0.375000
v 0.375000 0.000000 0.750000
v 0.375000 0.000000 0.812500
v -0.437500 0.000000 0.812500
v -0.437500 0.000000 0.750000
v 0.375000 3.000000 0.750000
v 0.375000 3.000000 0.812500
v -0.437500 3.000000 0.812500
v -0.437500 3.000000 0.750000
v 0.500000 0.000000 0.687500
v 0.500000 0.000000 0.750000
v -0.562500 0.000000 0.750000
v -0.562500 0.000000 0.687500
v 0.500000 3.000000 0.687500
v 0.500000 3.000000 0.750000
v -0.562500 3.000000 0.750000
v -0.562500 3.000000 0.687500
v 0.625000 0.000000 -0.687500
v 0.625000 0.000000 0.687500
v -0.687500 0.000000 0.687500
v -0.687500 0.000000 -0.687500
v 0.625000 3.000000 -0.687500
v 0.625000 3.000000 0.687500
v -0.687500 3.000000 0.687500
v -0.687500 3.000000 -0.687500
v 0.625000 3.000000 0.505889
v 0.625000 0.000000 0.505889
v -0.687500 3.000000 0.505889
v -0.687500 0.000000 0.505889
v 0.625000 0.000000 -0.502453
v 0.625000 3.000000 -0.502453
v -0.687500 3.000000 -0.502453
v -0.687500 0.000000 -0.502453
v 0.596133 0.028867 -0.658633
v 0.596133 0.028867 0.658633
v -0.658633 0.028867 0.658633
v -0.658633 0.028867 -0.658633
v 0.596133 2.971133 -0.658633
v 0.596133 2.971133 0.658633
v -0.658633 2.971133 0.658633
v -0.658633 2.971133 -0.658633
v 0.602641 2.955280 0.505889
v 0.602641 0.044720 0.505889
v -0.652146 2.964646 0.505889
v -0.652146 0.035354 0.505889
v 0.602641 0.044720 -0.502453
v 0.602641 2.955280 -0.502453
v -0.652146 2.964646 -0.502453
v -0.652146 0.035354 -0.502453
v -0.750000 0.000000 -0.437500
v -0.750000 0.000000 0.437500
v -0.812500 0.000000 0.437500
v -0.812500 0.000000 -0.437500
v -0.750000 3.000000 -0.437500
v -0.750000 3.000000 0.437500
v -0.812500 3.000000 0.437500
v -0.812500 3.000000 -0.437500
v 0.750000 0.000000 0.500000
v 0.750000 0.000000 0.562500
v 0.687500 0.000000 0.562500
v 0.687500 0.000000 0.500000
v 0.750000 2.000000 0.500000
v 0.750000 2.000000 0.562500
v 0.687500 2.000000 0.562500
v 0.687500 2.000000 0.500000
vt 0.867188 0.625000
vt 0.867188 0.726562
vt 0.734375 0.726562
vt 0.968750 0.734375
vt 0.867188 0.734375
vt 0.867188 0.609375
vt 0.734375 0.625000
vt 0.968750 0.609375
vt 0.988281 0.910156
vt 0.980469 0.910156
vt 0.980469 0.707031
vt 0.992188 0.507812
vt 1.000000 0.507812
vt 1.000000 0.707031
vt 0.644531 0.296875
vt 0.652344 0.296875
vt 0.652344 0.304688
vt 0.988281 0.707031
vt 0.980469 0.507812
vt 0.976562 0.707031
vt 0.976562 0.507812
vt 0.660156 0.296875
vt 0.664062 0.296875
vt 0.664062 0.304688
vt 0.929688 0.304688
vt 0.949219 0.304688
vt 0.949219 0.507812
vt 0.988281 0.304688
vt 0.992188 0.304688
vt 0.847656 0.277344
vt 0.847656 0.296875
vt 0.843750 0.296875
vt 0.156250 0.808594
vt 0.140625 0.808594
vt 0.140625 0.609375
vt 0.976562 0.937500
vt 0.968750 0.937500
vt 0.863281 0.277344
vt 0.863281 0.296875
vt 0.855469 0.296875
vt 0.105469 0.609375
vt 0.121094 0.609375
vt 0.121094 0.808594
vt 0.988281 0.000000
vt 0.996094 0.000000
vt 0.996094 0.203125
vt 0.855469 0.277344
vt 0.929688 0.507812
vt 0.910156 0.507812
vt 0.910156 0.304688
vt 0.976562 0.203125
vt 0.968750 0.203125
vt 0.968750 0.000000
vt 0.843750 0.277344
vt 0.835938 0.296875
vt 0.835938 0.277344
vt 0.835938 0.140625
vt 0.937500 0.140625
vt 0.875000 0.609375
vt 0.867188 0.507812
vt 0.714844 0.808594
vt 0.714844 0.949219
vt 0.710938 0.949219
vt 0.835938 0.000000
vt 0.937500 0.000000
vt 0.855469 0.609375
vt 0.847656 0.609375
vt 0.847656 0.507812
vt 0.722656 0.808594
vt 0.722656 0.949219
vt 0.156250 0.304688
vt 0.273438 0.304688
vt 0.273438 0.609375
vt 0.960938 0.000000
vt 0.968750 0.304688
vt 0.136719 0.863281
vt 0.136719 0.976562
vt 0.128906 0.976562
vt 0.386719 0.609375
vt 0.132812 0.609375
vt 0.132812 0.304688
vt 0.730469 0.808594
vt 0.730469 0.925781
vt 0.722656 0.925781
vt 0.867188 0.847656
vt 0.886719 0.609375
vt 0.878906 0.609375
vt 0.878906 0.507812
vt 0.742188 0.886719
vt 0.742188 1.000000
vt 0.734375 1.000000
vt 0.867188 0.960938
vt 0.968750 0.847656
vt 0.859375 0.609375
vt 0.855469 0.507812
vt 0.128906 0.863281
vt 0.121094 0.976562
vt 0.960938 0.609375
vt 0.960938 0.304688
vt 0.000000 0.609375
vt 0.089844 0.609375
vt 0.089844 0.910156
vt 0.898438 0.507812
vt 0.906250 0.507812
vt 0.906250 0.593750
vt 0.957031 0.609375
vt 0.949219 0.609375
vt 0.835938 0.609375
vt 0.746094 0.609375
vt 0.746094 0.304688
vt 0.910156 0.593750
vt 0.406250 0.906250
vt 0.398438 0.906250
vt 0.398438 0.601562
vt 0.531250 0.000000
vt 0.644531 0.000000
vt 0.644531 0.304688
vt 0.746094 0.886719
vt 0.753906 0.886719
vt 0.753906 1.000000
vt 0.945312 0.304688
vt 0.937500 0.304688
vt 0.113281 0.609375
vt 0.000000 0.304688
vt 0.746094 1.000000
vt 0.710938 0.910156
vt 0.632812 0.910156
vt 0.632812 0.808594
vt 0.859375 0.507812
vt 0.949219 0.582031
vt 0.941406 0.582031
vt 0.398438 0.910156
vt 0.324219 0.910156
vt 0.324219 0.808594
vt 0.875000 0.507812
vt 0.941406 0.507812
vt 0.937500 0.582031
vt 0.957031 0.304688
vt 0.242188 0.609375
vt 0.324219 0.609375
vt 0.917969 0.507812
vt 0.917969 0.589844
vt 0.949219 0.000000
vt 0.242188 0.910156
vt 0.156250 0.910156
vt 0.156250 0.609375
vt 0.925781 0.507812
vt 0.925781 0.589844
vt 0.957031 0.000000
vt 0.640625 0.304688
vt 0.757812 0.886719
vt 0.765625 0.886719
vt 0.765625 0.992188
vt 0.945312 0.000000
vt 0.640625 0.609375
vt 0.531250 0.609375
vt 0.531250 0.304688
vt 0.757812 0.992188
vt 0.113281 0.304688
vt 0.140625 0.304688
vt 0.140625 0.000000
vt 0.863281 0.867188
vt 0.863281 0.886719
vt 0.738281 0.886719
vt 0.019531 0.304688
vt 0.000000 0.000000
vt 0.406250 0.304688
vt 0.273438 0.000000
vt 0.867188 0.746094
vt 0.734375 0.746094
vt 0.121094 0.304688
vt 0.019531 0.000000
vt 0.863281 0.750000
vt 0.863281 0.769531
vt 0.738281 0.769531
vt 0.121094 0.000000
vt 0.863281 0.765625
vt 0.738281 0.867188
vt 0.390625 0.304688
vt 0.406250 0.601562
vt 0.531250 0.597656
vt 0.406250 0.597656
vt 0.406250 0.296875
vt 0.140625 0.863281
vt 0.121094 0.863281
vt 0.125000 0.734375
vt 0.105469 0.906250
vt 0.089844 0.906250
vt 0.531250 0.296875
vt 0.406250 0.000000
vt 0.140625 0.734375
vt 0.105469 0.812500
vt 0.121094 0.937500
vt 0.746094 0.296875
vt 0.140625 0.937500
vt 0.156250 0.812500
vt 0.523438 0.890625
vt 0.507812 0.894531
vt 0.507812 0.597656
vt 0.492188 0.894531
vt 0.492188 0.597656
vt 0.632812 0.937500
vt 0.531250 0.937500
vt 0.531250 0.808594
vt 0.734375 0.914062
vt 0.730469 0.914062
vt 0.386719 0.304688
vt 0.390625 0.308594
vt 0.390625 0.601562
vt 0.996094 0.304688
vt 0.996094 0.300781
vt 0.996094 0.003906
vt 0.492188 0.898438
vt 0.406250 0.898438
vt 0.976562 0.304688
vt 0.976562 0.609375
vt 0.890625 0.507812
vt 0.890625 0.593750
vt 0.886719 0.593750
vt 0.835938 0.304688
vt 0.746094 0.000000
vt 0.531250 0.898438
vt 0.527344 0.898438
vt 0.527344 0.597656
vt 0.898438 0.593750
vt 0.988281 0.203125
vt 0.980469 0.203125
vt 0.980469 0.000000
vt 1.000000 0.304688
vt 0.671875 0.296875
vt 0.671875 0.304688
vt 0.988281 0.507812
vt 0.980469 0.304688
vt 0.976562 0.910156
vt 0.660156 0.304688
vt 0.992188 0.707031
vt 0.976562 0.734375
vt 0.105469 0.808594
vt 0.976562 0.000000
vt 0.937500 0.277344
vt 0.710938 0.808594
vt 0.886719 0.507812
vt 0.734375 0.886719
vt 0.968750 0.960938
vt 0.000000 0.910156
vt 0.398438 0.808594
vt 0.937500 0.507812
vt 0.910156 0.589844
vt 0.753906 0.992188
vt 0.734375 0.609375
vt 0.738281 0.750000
vt 0.738281 0.765625
vt 0.105469 0.937500
vt 0.156250 0.937500
vt 0.523438 0.597656
vt 0.734375 0.808594
vn 0.000000 -1.000000 0.000000
vn -0.007500 1.000000 0.000000
vn 1.000000 0.000000 0.000000
vn 0.000000 0.000000 1.000000
vn 0.000000 1.000000 0.000000
vn -1.000000 0.000000 0.000000
vn 0.000000 0.000000 -1.000000
vn -0.999100 0.000000 0.041600
vn -0.007400 -0.994900 -0.100700
vn 0.999100 0.000000 0.042400
vn 0.000000 0.999100 -0.041500
vn 0.000000 0.999100 0.042400
vn -0.007400 -0.994700 0.102900
vn -0.999100 0.000000 -0.042600
vn 0.999100 0.000000 -0.041500
vn -0.007500 -1.000000 0.000000
vn 0.894400 -0.447200 0.000000
vn 0.000000 -0.999100 -0.041500
vn -0.007400 0.994900 -0.100700
vn -0.007400 0.994700 0.102900
vn 0.000000 -0.999100 0.042400
usemtl Material.003
s off
f 2/1/1 4/2/1 3/3/1
f 8/4/2 6/5/2 5/6/2
f 1/7/1 2/1/1 3/3/1
f 7/8/2 8/4/2 5/6/2
f 10/9/3 9/10/3 13/11/3
f 11/12/4 10/13/4 14/14/4
f 14/15/5 13/16/5 16/17/5
f 12/18/6 11/11/6 15/19/6
f 9/11/7 12/20/7 16/21/7
f 11/22/1 12/23/1 9/24/1
f 18/25/3 17/26/3 21/27/3
f 19/28/4 18/29/4 22/12/4
f 22/30/5 21/31/5 24/32/5
f 20/33/6 19/34/6 23/35/6
f 17/36/7 20/37/7 24/4/7
f 19/38/1 20/39/1 17/40/1
f 26/41/3 25/42/3 29/43/3
f 27/44/4 26/45/4 30/46/4
f 30/47/5 29/40/5 32/31/5
f 28/48/6 27/49/6 31/50/6
f 25/51/7 28/52/7 32/53/7
f 27/54/1 28/32/1 25/55/1
f 34/56/3 33/57/3 37/58/3
f 35/59/4 34/6/4 38/60/4
f 38/61/5 37/62/5 40/63/5
f 36/57/6 35/64/6 39/65/6
f 33/66/7 36/67/7 40/68/7
f 35/69/1 36/70/1 33/62/1
f 42/71/3 41/72/3 45/73/3
f 43/74/4 42/53/4 46/75/4
f 46/76/5 45/77/5 48/78/5
f 44/79/6 43/73/6 47/72/6
f 41/35/7 44/80/7 48/81/7
f 43/82/1 44/83/1 41/84/1
f 50/85/3 49/5/3 53/4/3
f 51/86/4 50/87/4 54/88/4
f 54/89/5 53/90/5 56/91/5
f 52/92/6 51/85/6 55/93/6
f 49/94/7 52/66/7 56/95/7
f 51/96/1 52/78/1 49/97/1
f 58/8/3 57/98/3 61/99/3
f 59/100/4 58/101/4 62/102/4
f 62/103/5 61/104/5 64/105/5
f 60/106/6 59/107/6 63/26/6
f 57/108/7 60/109/7 64/110/7
f 59/104/1 60/49/1 57/111/1
f 66/112/3 65/113/3 69/114/3
f 67/115/4 66/116/4 70/117/4
f 70/118/5 69/119/5 72/120/5
f 68/121/6 67/122/6 71/65/6
f 65/123/7 68/100/7 72/124/7
f 67/89/1 68/118/1 65/125/1
f 74/126/3 73/127/3 77/128/3
f 75/6/4 74/94/4 78/129/4
f 78/27/5 77/130/5 80/131/5
f 76/132/6 75/133/6 79/134/6
f 73/87/7 76/59/7 80/135/7
f 75/136/1 76/131/1 73/137/1
f 82/98/3 81/106/3 85/138/3
f 83/139/4 82/140/4 86/133/4
f 86/49/5 85/141/5 88/142/5
f 84/138/6 83/26/6 87/143/6
f 81/144/7 84/145/7 88/146/7
f 83/141/1 84/147/1 81/148/1
f 90/99/3 89/138/3 93/149/3
f 91/150/4 90/110/4 94/109/4
f 94/151/5 93/152/5 96/153/5
f 92/26/6 91/121/6 95/154/6
f 89/155/7 92/156/7 96/157/7
f 91/119/1 92/151/1 89/158/1
f 109/159/3 97/81/3 101/80/3
f 99/72/4 98/160/4 102/161/4
f 110/162/5 101/163/5 104/164/5
f 108/165/6 99/124/6 103/166/6
f 97/167/7 100/72/7 104/168/7
f 112/2/1 100/169/1 97/170/1
f 99/6/1 108/1/1 106/7/1
f 112/171/6 108/165/6 107/172/6
f 102/173/5 105/174/5 107/175/5
f 98/160/3 106/71/3 105/146/3
f 100/160/6 112/171/6 111/176/6
f 105/177/5 110/162/5 111/178/5
f 113/179/8 125/167/8 126/180/8
f 114/181/7 115/182/7 119/183/7
f 117/184/9 126/185/9 127/186/9
f 115/187/10 124/188/10 123/101/10
f 116/189/4 113/183/4 117/190/4
f 113/35/11 116/191/11 128/186/11
f 124/192/12 115/43/12 114/193/12
f 124/194/3 128/15/3 127/116/3
f 123/195/13 121/34/13 118/196/13
f 122/197/14 114/198/14 118/199/14
f 128/198/15 116/200/15 120/201/15
f 126/202/16 121/203/16 123/204/16
f 105/205/17 121/206/17 126/82/17
f 106/207/7 122/208/7 121/209/7
f 110/210/4 126/211/4 125/212/4
f 130/213/3 129/214/3 133/182/3
f 131/75/4 130/215/4 134/216/4
f 134/217/5 133/218/5 136/219/5
f 132/220/6 131/110/6 135/221/6
f 129/222/7 132/223/7 136/224/7
f 131/103/1 132/225/1 129/218/1
f 138/226/3 137/227/3 141/228/3
f 139/29/4 138/229/4 142/13/4
f 142/23/5 141/230/5 144/231/5
f 140/232/6 139/19/6 143/233/6
f 137/10/7 140/234/7 144/20/7
f 139/16/1 140/22/1 137/235/1
f 14/18/3 10/9/3 13/11/3
f 15/236/4 11/12/4 14/14/4
f 15/117/5 14/15/5 16/17/5
f 16/232/6 12/18/6 15/19/6
f 13/19/7 9/11/7 16/21/7
f 10/235/1 11/22/1 9/24/1
f 22/48/3 18/25/3 21/27/3
f 23/232/4 19/28/4 22/12/4
f 23/54/5 22/30/5 24/32/5
f 24/146/6 20/33/6 23/35/6
f 21/237/7 17/36/7 24/4/7
f 18/47/1 19/38/1 17/40/1
f 30/238/3 26/41/3 29/43/3
f 31/226/4 27/44/4 30/46/4
f 31/30/5 30/47/5 32/31/5
f 32/25/6 28/48/6 31/50/6
f 29/239/7 25/51/7 32/53/7
f 26/56/1 27/54/1 25/55/1
f 38/240/3 34/56/3 37/58/3
f 39/135/4 35/59/4 38/60/4
f 39/241/5 38/61/5 40/63/5
f 40/58/6 36/57/6 39/65/6
f 37/95/7 33/66/7 40/68/7
f 34/61/1 35/69/1 33/62/1
f 46/146/3 42/71/3 45/73/3
f 47/99/4 43/74/4 46/75/4
f 47/96/5 46/76/5 48/78/5
f 48/207/6 44/79/6 47/72/6
f 45/160/7 41/35/7 48/81/7
f 42/69/1 43/82/1 41/84/1
f 54/93/3 50/85/3 53/4/3
f 55/242/4 51/86/4 54/88/4
f 55/243/5 54/89/5 56/91/5
f 56/244/6 52/92/6 55/93/6
f 53/129/7 49/94/7 56/95/7
f 50/185/1 51/96/1 49/97/1
f 62/75/3 58/8/3 61/99/3
f 63/245/4 59/100/4 62/102/4
f 63/225/5 62/103/5 64/105/5
f 64/138/6 60/106/6 63/26/6
f 61/220/7 57/108/7 64/110/7
f 58/105/1 59/104/1 57/111/1
f 70/180/3 66/112/3 69/114/3
f 71/157/4 67/115/4 70/117/4
f 71/125/5 70/118/5 72/120/5
f 72/154/6 68/121/6 71/65/6
f 69/159/7 65/123/7 72/124/7
f 66/90/1 67/89/1 65/125/1
f 78/241/3 74/126/3 77/128/3
f 79/60/4 75/6/4 78/129/4
f 79/136/5 78/27/5 80/131/5
f 80/246/6 76/132/6 79/134/6
f 77/88/7 73/87/7 80/135/7
f 74/247/1 75/136/1 73/137/1
f 86/99/3 82/98/3 85/138/3
f 87/144/4 83/139/4 86/133/4
f 87/248/5 86/49/5 88/142/5
f 88/149/6 84/138/6 87/143/6
f 85/139/7 81/144/7 88/146/7
f 82/142/1 83/141/1 81/148/1
f 94/74/3 90/99/3 93/149/3
f 95/155/4 91/150/4 94/109/4
f 95/158/5 94/151/5 96/153/5
f 96/143/6 92/26/6 95/154/6
f 93/150/7 89/155/7 96/157/7
f 90/249/1 91/119/1 89/158/1
f 110/123/3 109/159/3 101/80/3
f 103/168/4 99/72/4 102/161/4
f 111/178/5 110/162/5 104/164/5
f 107/172/6 108/165/6 103/166/6
f 101/190/7 97/167/7 104/168/7
f 109/3/1 112/2/1 97/170/1
f 98/250/1 99/6/1 106/7/1
f 111/176/6 112/171/6 107/172/6
f 103/251/5 102/173/5 107/175/5
f 102/35/3 98/160/3 105/146/3
f 104/161/6 100/160/6 111/176/6
f 107/252/5 105/177/5 111/178/5
f 117/209/8 113/179/8 126/180/8
f 118/189/7 114/181/7 119/183/7
f 120/191/18 117/184/18 127/186/18
f 119/41/10 115/187/10 123/101/10
f 120/115/4 116/189/4 117/190/4
f 125/42/19 113/35/19 128/186/19
f 122/253/20 124/192/20 114/193/20
f 123/221/3 124/194/3 127/116/3
f 119/254/21 123/195/21 118/196/21
f 121/255/14 122/197/14 118/199/14
f 127/199/15 128/198/15 120/201/15
f 127/128/16 126/202/16 123/204/16
f 110/256/17 105/205/17 126/82/17
f 105/79/7 106/207/7 121/209/7
f 109/45/4 110/210/4 125/212/4
f 134/201/3 130/213/3 133/182/3
f 135/8/4 131/75/4 134/216/4
f 135/242/5 134/217/5 136/219/5
f 136/64/6 132/220/6 135/221/6
f 133/181/7 129/222/7 136/224/7
f 130/217/1 131/103/1 129/218/1
f 142/44/3 138/226/3 141/228/3
f 143/12/4 139/29/4 142/13/4
f 143/24/5 142/23/5 144/231/5
f 144/28/6 140/232/6 143/233/6
f 141/11/7 137/10/7 144/20/7
f 138/17/1 139/16/1 137/235/1
