# Blender v2.79 (sub 1) OBJ File: ''
# www.blender.org
mtllib effect_regen.mtl
o Cube.001
v 1.000000 -1.000001 4.000000
v -0.270000 -0.270000 -0.000000
v 0.270000 -0.270000 -0.000000
v 0.270000 0.270000 0.000000
v -1.000000 0.999999 4.000000
v 0.999999 0.999999 4.000000
v -1.000000 -1.000001 4.000000
v -0.270000 0.270000 0.000000
v 0.000000 1.894310 4.477937
v 0.000000 -1.894310 4.477937
v 0.000000 0.200000 0.000000
v 0.000000 -0.200000 0.000000
v 1.894310 -0.000000 4.477937
v -1.894310 0.000000 4.477937
v 0.200000 -0.000000 0.000000
v -0.200000 -0.000000 0.000000
v -0.000000 -0.000000 3.141903
v 0.000000 -0.000000 0.000000
v 0.000000 -0.000000 3.141903
v 0.000000 0.000000 0.000000
vt 0.000000 0.000000
vt 0.000000 0.000000
vt 0.000000 0.000000
vt 0.000000 0.000000
vt 0.000000 0.000000
vt 0.000000 0.000000
vt 0.000000 0.000000
vt 0.000000 0.000000
vt 0.000000 0.000000
vt 0.000000 0.000000
vt 0.000000 0.000000
vt 0.000000 0.000000
vt 0.034070 0.009307
vt 0.507874 0.472608
vt 0.472167 0.473317
vt 0.459507 0.498514
vt 0.999901 0.985016
vt 0.000099 0.985016
vt 0.984840 0.000099
vt 0.491931 0.510615
vn 1.0000 0.0000 0.0000
vn -0.0000 -1.0000 0.0000
vn 0.0000 -0.9838 -0.1795
vn 0.0000 0.9838 -0.1795
vn 0.9838 0.0000 -0.1795
vn -0.9838 0.0000 -0.1795
usemtl Material.001
s off
f 19/1/1 12/2/1 20/3/1
f 17/4/2 16/5/2 18/6/2
f 17/4/2 15/7/2 13/8/2
f 19/1/1 11/9/1 9/10/1
f 19/1/1 10/11/1 12/2/1
f 17/4/2 14/12/2 16/5/2
f 17/4/2 18/6/2 15/7/2
f 19/1/1 20/3/1 11/9/1
s 1
f 1/13/3 2/14/3 3/15/3
f 4/16/4 5/17/4 6/18/4
f 4/16/5 1/13/5 3/15/5
f 5/17/6 2/14/6 7/19/6
f 1/13/3 7/19/3 2/14/3
f 4/16/4 8/20/4 5/17/4
f 4/16/5 6/18/5 1/13/5
f 5/17/6 8/20/6 2/14/6
