# Blender v2.79 (sub 1) OBJ File: ''
# www.blender.org
mtllib dalek_mid.mtl
o dalek_mid
v -0.250000 0.900000 -0.312500
v -0.250000 0.900000 0.437500
v -0.250000 1.212500 0.437500
v -0.250000 1.212500 -0.312500
v 0.437500 0.900000 0.437500
v 0.437500 0.900000 -0.312500
v 0.437500 1.212500 -0.312500
v 0.437500 1.212500 0.437500
v 0.343750 1.071875 -0.343750
v 0.343750 1.071875 -0.281250
v 0.343750 1.196875 -0.281250
v 0.343750 1.196875 -0.343750
v 0.406250 1.071875 -0.281250
v 0.406250 1.071875 -0.343750
v 0.406250 1.196875 -0.343750
v 0.406250 1.196875 -0.281250
v -0.031250 1.071875 -0.343750
v -0.031250 1.071875 -0.281250
v -0.031250 1.196875 -0.281250
v -0.031250 1.196875 -0.343750
v 0.218750 1.071875 -0.281250
v 0.218750 1.071875 -0.343750
v 0.218750 1.196875 -0.343750
v 0.218750 1.196875 -0.281250
v 0.406250 1.009375 0.093750
v 0.406250 1.009375 0.156250
v 0.406250 1.196875 0.156250
v 0.406250 1.196875 0.093750
v 0.468750 1.009375 0.156250
v 0.468750 1.009375 0.093750
v 0.468750 1.196875 0.093750
v 0.468750 1.196875 0.156250
v 0.250000 1.134375 -0.343750
v 0.250000 1.134375 -0.281250
v 0.250000 1.196875 -0.281250
v 0.250000 1.196875 -0.343750
v 0.312500 1.134375 -0.281250
v 0.312500 1.134375 -0.343750
v 0.312500 1.196875 -0.343750
v 0.312500 1.196875 -0.281250
v -0.093750 1.009375 0.406250
v -0.093750 1.009375 0.468750
v -0.093750 1.196875 0.468750
v -0.093750 1.196875 0.406250
v -0.031250 1.009375 0.468750
v -0.031250 1.009375 0.406250
v -0.031250 1.196875 0.406250
v -0.031250 1.196875 0.468750
v 0.218750 1.009375 0.406250
v 0.218750 1.009375 0.468750
v 0.218750 1.196875 0.468750
v 0.218750 1.196875 0.406250
v 0.281250 1.009375 0.468750
v 0.281250 1.009375 0.406250
v 0.281250 1.196875 0.406250
v 0.281250 1.196875 0.468750
v 0.031250 1.009375 0.406250
v 0.031250 1.009375 0.468750
v 0.031250 1.196875 0.468750
v 0.031250 1.196875 0.406250
v 0.156250 1.009375 0.468750
v 0.156250 1.009375 0.406250
v 0.156250 1.196875 0.406250
v 0.156250 1.196875 0.468750
v -0.218750 1.009375 0.406250
v -0.218750 1.009375 0.468750
v -0.218750 1.196875 0.468750
v -0.218750 1.196875 0.406250
v -0.156250 1.009375 0.468750
v -0.156250 1.009375 0.406250
v -0.156250 1.196875 0.406250
v -0.156250 1.196875 0.468750
v -0.218750 1.071875 -0.343750
v -0.218750 1.071875 -0.281250
v -0.218750 1.196875 -0.281250
v -0.218750 1.196875 -0.343750
v -0.156250 1.071875 -0.281250
v -0.156250 1.071875 -0.343750
v -0.156250 1.196875 -0.343750
v -0.156250 1.196875 -0.281250
v -0.125000 1.134375 -0.343750
v -0.125000 1.134375 -0.281250
v -0.125000 1.196875 -0.281250
v -0.125000 1.196875 -0.343750
v -0.062500 1.134375 -0.281250
v -0.062500 1.134375 -0.343750
v -0.062500 1.196875 -0.343750
v -0.062500 1.196875 -0.281250
v 0.343750 1.009375 0.406250
v 0.343750 1.009375 0.468750
v 0.343750 1.196875 0.468750
v 0.343750 1.196875 0.406250
v 0.406250 1.009375 0.468750
v 0.406250 1.009375 0.406250
v 0.406250 1.196875 0.406250
v 0.406250 1.196875 0.468750
v 0.406250 1.009375 0.343750
v 0.406250 1.009375 0.406250
v 0.406250 1.196875 0.406250
v 0.406250 1.196875 0.343750
v 0.468750 1.009375 0.406250
v 0.468750 1.009375 0.343750
v 0.468750 1.196875 0.343750
v 0.468750 1.196875 0.406250
v -0.281250 1.009375 0.343750
v -0.281250 1.009375 0.406250
v -0.281250 1.196875 0.406250
v -0.281250 1.196875 0.343750
v -0.218750 1.009375 0.406250
v -0.218750 1.009375 0.343750
v -0.218750 1.196875 0.343750
v -0.218750 1.196875 0.406250
v 0.406250 1.009375 0.218750
v 0.406250 1.009375 0.281250
v 0.406250 1.196875 0.281250
v 0.406250 1.196875 0.218750
v 0.468750 1.009375 0.281250
v 0.468750 1.009375 0.218750
v 0.468750 1.196875 0.218750
v 0.468750 1.196875 0.281250
v 0.406250 1.009375 -0.031250
v 0.406250 1.009375 0.031250
v 0.406250 1.196875 0.031250
v 0.406250 1.196875 -0.031250
v 0.468750 1.009375 0.031250
v 0.468750 1.009375 -0.031250
v 0.468750 1.196875 -0.031250
v 0.468750 1.196875 0.031250
v 0.406250 1.009375 -0.156250
v 0.406250 1.009375 -0.093750
v 0.406250 1.196875 -0.093750
v 0.406250 1.196875 -0.156250
v 0.468750 1.009375 -0.093750
v 0.468750 1.009375 -0.156250
v 0.468750 1.196875 -0.156250
v 0.468750 1.196875 -0.093750
v 0.406250 1.009375 -0.281250
v 0.406250 1.009375 -0.218750
v 0.406250 1.196875 -0.218750
v 0.406250 1.196875 -0.281250
v 0.468750 1.009375 -0.218750
v 0.468750 1.009375 -0.281250
v 0.468750 1.196875 -0.281250
v 0.468750 1.196875 -0.218750
v -0.281250 1.009375 -0.281250
v -0.281250 1.009375 -0.218750
v -0.281250 1.196875 -0.218750
v -0.281250 1.196875 -0.281250
v -0.218750 1.009375 -0.218750
v -0.218750 1.009375 -0.281250
v -0.218750 1.196875 -0.281250
v -0.218750 1.196875 -0.218750
v -0.281250 1.009375 -0.156250
v -0.281250 1.009375 -0.093750
v -0.281250 1.196875 -0.093750
v -0.281250 1.196875 -0.156250
v -0.218750 1.009375 -0.093750
v -0.218750 1.009375 -0.156250
v -0.218750 1.196875 -0.156250
v -0.218750 1.196875 -0.093750
v -0.281250 1.009375 -0.031250
v -0.281250 1.009375 0.031250
v -0.281250 1.196875 0.031250
v -0.281250 1.196875 -0.031250
v -0.218750 1.009375 0.031250
v -0.218750 1.009375 -0.031250
v -0.218750 1.196875 -0.031250
v -0.218750 1.196875 0.031250
v -0.281250 1.009375 0.093750
v -0.281250 1.009375 0.156250
v -0.281250 1.196875 0.156250
v -0.281250 1.196875 0.093750
v -0.218750 1.009375 0.156250
v -0.218750 1.009375 0.093750
v -0.218750 1.196875 0.093750
v -0.218750 1.196875 0.156250
v -0.281250 1.009375 0.218750
v -0.281250 1.009375 0.281250
v -0.281250 1.196875 0.281250
v -0.281250 1.196875 0.218750
v -0.218750 1.009375 0.281250
v -0.218750 1.009375 0.218750
v -0.218750 1.196875 0.218750
v -0.218750 1.196875 0.281250
v 0.375000 1.337500 -0.250000
v -0.187500 1.337500 -0.250000
v -0.187500 1.400000 -0.250000
v 0.375000 1.400000 -0.250000
v -0.187500 1.337500 0.375000
v 0.375000 1.337500 0.375000
v 0.375000 1.400000 0.375000
v -0.187500 1.400000 0.375000
v 0.375000 1.212500 -0.250000
v -0.187500 1.212500 -0.250000
v -0.187500 1.275000 -0.250000
v 0.375000 1.275000 -0.250000
v -0.187500 1.212500 0.375000
v 0.375000 1.212500 0.375000
v 0.375000 1.275000 0.375000
v -0.187500 1.275000 0.375000
v 0.312500 1.150000 -0.187500
v -0.125000 1.150000 -0.187500
v -0.125000 1.462500 -0.187500
v 0.312500 1.462500 -0.187500
v -0.125000 1.150000 0.312500
v 0.312500 1.150000 0.312500
v 0.312500 1.462500 0.312500
v -0.125000 1.462500 0.312500
vt 0.078571 0.357143
vt 0.164286 0.357143
vt 0.164286 0.392857
vt 0.078571 0.392857
vt 0.242857 0.357143
vt 0.328571 0.357143
vt 0.328571 0.392857
vt 0.242857 0.392857
vt 0.164286 0.471429
vt 0.078571 0.471429
vt 0.164286 0.392857
vt 0.250000 0.392857
vt 0.250000 0.471429
vt 0.164286 0.471429
vt 0.000000 0.357143
vt 0.000000 0.392857
vt 0.007143 0.528571
vt 0.014286 0.528571
vt 0.014286 0.542857
vt 0.007143 0.542857
vt 0.021429 0.528571
vt 0.028571 0.528571
vt 0.028571 0.542857
vt 0.021429 0.542857
vt 0.014286 0.550000
vt 0.007143 0.550000
vt 0.014286 0.542857
vt 0.021429 0.542857
vt 0.021429 0.550000
vt 0.014286 0.550000
vt 0.000000 0.528571
vt 0.000000 0.542857
vt 0.085714 0.507143
vt 0.092857 0.507143
vt 0.092857 0.521429
vt 0.085714 0.521429
vt 0.121429 0.507143
vt 0.128571 0.507143
vt 0.128571 0.521429
vt 0.121429 0.521429
vt 0.092857 0.550000
vt 0.085714 0.550000
vt 0.092857 0.521429
vt 0.100000 0.521429
vt 0.100000 0.550000
vt 0.092857 0.550000
vt 0.057143 0.507143
vt 0.057143 0.521429
vt 0.150000 0.521429
vt 0.157143 0.521429
vt 0.157143 0.542857
vt 0.150000 0.542857
vt 0.164286 0.521429
vt 0.171429 0.521429
vt 0.171429 0.542857
vt 0.164286 0.542857
vt 0.157143 0.550000
vt 0.150000 0.550000
vt 0.157143 0.542857
vt 0.164286 0.542857
vt 0.164286 0.550000
vt 0.157143 0.550000
vt 0.142857 0.521429
vt 0.142857 0.542857
vt 0.035714 0.535714
vt 0.042857 0.535714
vt 0.042857 0.542857
vt 0.035714 0.542857
vt 0.050000 0.535714
vt 0.057143 0.535714
vt 0.057143 0.542857
vt 0.050000 0.542857
vt 0.042857 0.550000
vt 0.035714 0.550000
vt 0.042857 0.542857
vt 0.050000 0.542857
vt 0.050000 0.550000
vt 0.042857 0.550000
vt 0.028571 0.535714
vt 0.028571 0.542857
vt 0.235714 0.521429
vt 0.242857 0.521429
vt 0.242857 0.542857
vt 0.235714 0.542857
vt 0.250000 0.521429
vt 0.257143 0.521429
vt 0.257143 0.542857
vt 0.250000 0.542857
vt 0.242857 0.550000
vt 0.235714 0.550000
vt 0.242857 0.542857
vt 0.250000 0.542857
vt 0.250000 0.550000
vt 0.242857 0.550000
vt 0.228571 0.521429
vt 0.228571 0.542857
vt 0.235714 0.521429
vt 0.242857 0.521429
vt 0.242857 0.542857
vt 0.235714 0.542857
vt 0.250000 0.521429
vt 0.257143 0.521429
vt 0.257143 0.542857
vt 0.250000 0.542857
vt 0.242857 0.550000
vt 0.235714 0.550000
vt 0.242857 0.542857
vt 0.250000 0.542857
vt 0.250000 0.550000
vt 0.242857 0.550000
vt 0.228571 0.521429
vt 0.228571 0.542857
vt 0.200000 0.514286
vt 0.207143 0.514286
vt 0.207143 0.535714
vt 0.200000 0.535714
vt 0.221429 0.514286
vt 0.228571 0.514286
vt 0.228571 0.535714
vt 0.221429 0.535714
vt 0.207143 0.550000
vt 0.200000 0.550000
vt 0.207143 0.535714
vt 0.214286 0.535714
vt 0.214286 0.550000
vt 0.207143 0.550000
vt 0.185714 0.514286
vt 0.185714 0.535714
vt 0.235714 0.521429
vt 0.242857 0.521429
vt 0.242857 0.542857
vt 0.235714 0.542857
vt 0.250000 0.521429
vt 0.257143 0.521429
vt 0.257143 0.542857
vt 0.250000 0.542857
vt 0.242857 0.550000
vt 0.235714 0.550000
vt 0.242857 0.542857
vt 0.250000 0.542857
vt 0.250000 0.550000
vt 0.242857 0.550000
vt 0.228571 0.521429
vt 0.228571 0.542857
vt 0.007143 0.528571
vt 0.014286 0.528571
vt 0.014286 0.542857
vt 0.007143 0.542857
vt 0.021429 0.528571
vt 0.028571 0.528571
vt 0.028571 0.542857
vt 0.021429 0.542857
vt 0.014286 0.550000
vt 0.007143 0.550000
vt 0.014286 0.542857
vt 0.021429 0.542857
vt 0.021429 0.550000
vt 0.014286 0.550000
vt 0.000000 0.528571
vt 0.000000 0.542857
vt 0.035714 0.535714
vt 0.042857 0.535714
vt 0.042857 0.542857
vt 0.035714 0.542857
vt 0.050000 0.535714
vt 0.057143 0.535714
vt 0.057143 0.542857
vt 0.050000 0.542857
vt 0.042857 0.550000
vt 0.035714 0.550000
vt 0.042857 0.542857
vt 0.050000 0.542857
vt 0.050000 0.550000
vt 0.042857 0.550000
vt 0.028571 0.535714
vt 0.028571 0.542857
vt 0.235714 0.521429
vt 0.242857 0.521429
vt 0.242857 0.542857
vt 0.235714 0.542857
vt 0.250000 0.521429
vt 0.257143 0.521429
vt 0.257143 0.542857
vt 0.250000 0.542857
vt 0.242857 0.550000
vt 0.235714 0.550000
vt 0.242857 0.542857
vt 0.250000 0.542857
vt 0.250000 0.550000
vt 0.242857 0.550000
vt 0.228571 0.521429
vt 0.228571 0.542857
vt 0.150000 0.521429
vt 0.157143 0.521429
vt 0.157143 0.542857
vt 0.150000 0.542857
vt 0.164286 0.521429
vt 0.171429 0.521429
vt 0.171429 0.542857
vt 0.164286 0.542857
vt 0.157143 0.550000
vt 0.150000 0.550000
vt 0.157143 0.542857
vt 0.164286 0.542857
vt 0.164286 0.550000
vt 0.157143 0.550000
vt 0.142857 0.521429
vt 0.142857 0.542857
vt 0.150000 0.521429
vt 0.157143 0.521429
vt 0.157143 0.542857
vt 0.150000 0.542857
vt 0.164286 0.521429
vt 0.171429 0.521429
vt 0.171429 0.542857
vt 0.164286 0.542857
vt 0.157143 0.550000
vt 0.150000 0.550000
vt 0.157143 0.542857
vt 0.164286 0.542857
vt 0.164286 0.550000
vt 0.157143 0.550000
vt 0.142857 0.521429
vt 0.142857 0.542857
vt 0.150000 0.521429
vt 0.157143 0.521429
vt 0.157143 0.542857
vt 0.150000 0.542857
vt 0.164286 0.521429
vt 0.171429 0.521429
vt 0.171429 0.542857
vt 0.164286 0.542857
vt 0.157143 0.550000
vt 0.150000 0.550000
vt 0.157143 0.542857
vt 0.164286 0.542857
vt 0.164286 0.550000
vt 0.157143 0.550000
vt 0.142857 0.521429
vt 0.142857 0.542857
vt 0.150000 0.521429
vt 0.157143 0.521429
vt 0.157143 0.542857
vt 0.150000 0.542857
vt 0.164286 0.521429
vt 0.171429 0.521429
vt 0.171429 0.542857
vt 0.164286 0.542857
vt 0.157143 0.550000
vt 0.150000 0.550000
vt 0.157143 0.542857
vt 0.164286 0.542857
vt 0.164286 0.550000
vt 0.157143 0.550000
vt 0.142857 0.521429
vt 0.142857 0.542857
vt 0.150000 0.521429
vt 0.157143 0.521429
vt 0.157143 0.542857
vt 0.150000 0.542857
vt 0.164286 0.521429
vt 0.171429 0.521429
vt 0.171429 0.542857
vt 0.164286 0.542857
vt 0.157143 0.550000
vt 0.150000 0.550000
vt 0.157143 0.542857
vt 0.164286 0.542857
vt 0.164286 0.550000
vt 0.157143 0.550000
vt 0.142857 0.521429
vt 0.142857 0.542857
vt 0.150000 0.521429
vt 0.157143 0.521429
vt 0.157143 0.542857
vt 0.150000 0.542857
vt 0.164286 0.521429
vt 0.171429 0.521429
vt 0.171429 0.542857
vt 0.164286 0.542857
vt 0.157143 0.550000
vt 0.150000 0.550000
vt 0.157143 0.542857
vt 0.164286 0.542857
vt 0.164286 0.550000
vt 0.157143 0.550000
vt 0.142857 0.521429
vt 0.142857 0.542857
vt 0.150000 0.521429
vt 0.157143 0.521429
vt 0.157143 0.542857
vt 0.150000 0.542857
vt 0.164286 0.521429
vt 0.171429 0.521429
vt 0.171429 0.542857
vt 0.164286 0.542857
vt 0.157143 0.550000
vt 0.150000 0.550000
vt 0.157143 0.542857
vt 0.164286 0.542857
vt 0.164286 0.550000
vt 0.157143 0.550000
vt 0.142857 0.521429
vt 0.142857 0.542857
vt 0.150000 0.521429
vt 0.157143 0.521429
vt 0.157143 0.542857
vt 0.150000 0.542857
vt 0.164286 0.521429
vt 0.171429 0.521429
vt 0.171429 0.542857
vt 0.164286 0.542857
vt 0.157143 0.550000
vt 0.150000 0.550000
vt 0.157143 0.542857
vt 0.164286 0.542857
vt 0.164286 0.550000
vt 0.157143 0.550000
vt 0.142857 0.521429
vt 0.142857 0.542857
vt 0.150000 0.521429
vt 0.157143 0.521429
vt 0.157143 0.542857
vt 0.150000 0.542857
vt 0.164286 0.521429
vt 0.171429 0.521429
vt 0.171429 0.542857
vt 0.164286 0.542857
vt 0.157143 0.550000
vt 0.150000 0.550000
vt 0.157143 0.542857
vt 0.164286 0.542857
vt 0.164286 0.550000
vt 0.157143 0.550000
vt 0.142857 0.521429
vt 0.142857 0.542857
vt 0.150000 0.521429
vt 0.157143 0.521429
vt 0.157143 0.542857
vt 0.150000 0.542857
vt 0.164286 0.521429
vt 0.171429 0.521429
vt 0.171429 0.542857
vt 0.164286 0.542857
vt 0.157143 0.550000
vt 0.150000 0.550000
vt 0.157143 0.542857
vt 0.164286 0.542857
vt 0.164286 0.550000
vt 0.157143 0.550000
vt 0.142857 0.521429
vt 0.142857 0.542857
vt 0.150000 0.521429
vt 0.157143 0.521429
vt 0.157143 0.542857
vt 0.150000 0.542857
vt 0.164286 0.521429
vt 0.171429 0.521429
vt 0.171429 0.542857
vt 0.164286 0.542857
vt 0.157143 0.550000
vt 0.150000 0.550000
vt 0.157143 0.542857
vt 0.164286 0.542857
vt 0.164286 0.550000
vt 0.157143 0.550000
vt 0.142857 0.521429
vt 0.142857 0.542857
vt 0.350000 0.842857
vt 0.414286 0.842857
vt 0.414286 0.850000
vt 0.350000 0.850000
vt 0.485714 0.842857
vt 0.550000 0.842857
vt 0.550000 0.850000
vt 0.485714 0.850000
vt 0.414286 0.921429
vt 0.350000 0.921429
vt 0.414286 0.850000
vt 0.478571 0.850000
vt 0.478571 0.921429
vt 0.414286 0.921429
vt 0.278571 0.842857
vt 0.278571 0.850000
vt 0.350000 0.764286
vt 0.414286 0.764286
vt 0.414286 0.771429
vt 0.350000 0.771429
vt 0.485714 0.764286
vt 0.550000 0.764286
vt 0.550000 0.771429
vt 0.485714 0.771429
vt 0.414286 0.842857
vt 0.350000 0.842857
vt 0.414286 0.771429
vt 0.478571 0.771429
vt 0.478571 0.842857
vt 0.414286 0.842857
vt 0.278571 0.764286
vt 0.278571 0.771429
vt 0.057143 0.721429
vt 0.107143 0.721429
vt 0.107143 0.757143
vt 0.057143 0.757143
vt 0.164286 0.721429
vt 0.214286 0.721429
vt 0.214286 0.757143
vt 0.164286 0.757143
vt 0.107143 0.814286
vt 0.057143 0.814286
vt 0.107143 0.757143
vt 0.157143 0.757143
vt 0.157143 0.814286
vt 0.107143 0.814286
vt 0.000000 0.721429
vt 0.000000 0.757143
vn -1.0000 0.0000 0.0000
vn 1.0000 0.0000 0.0000
vn 0.0000 1.0000 0.0000
vn 0.0000 -1.0000 -0.0000
vn 0.0000 0.0000 -1.0000
vn 0.0000 -0.0000 1.0000
usemtl None
s off
f 1/1/1 2/2/1 3/3/1 4/4/1
f 5/5/2 6/6/2 7/7/2 8/8/2
f 4/4/3 3/3/3 8/9/3 7/10/3
f 6/11/4 5/12/4 2/13/4 1/14/4
f 6/15/5 1/1/5 4/4/5 7/16/5
f 2/2/6 5/5/6 8/8/6 3/3/6
f 9/17/1 10/18/1 11/19/1 12/20/1
f 13/21/2 14/22/2 15/23/2 16/24/2
f 12/20/3 11/19/3 16/25/3 15/26/3
f 14/27/4 13/28/4 10/29/4 9/30/4
f 14/31/5 9/17/5 12/20/5 15/32/5
f 10/18/6 13/21/6 16/24/6 11/19/6
f 17/33/1 18/34/1 19/35/1 20/36/1
f 21/37/2 22/38/2 23/39/2 24/40/2
f 20/36/3 19/35/3 24/41/3 23/42/3
f 22/43/4 21/44/4 18/45/4 17/46/4
f 22/47/5 17/33/5 20/36/5 23/48/5
f 18/34/6 21/37/6 24/40/6 19/35/6
f 25/49/1 26/50/1 27/51/1 28/52/1
f 29/53/2 30/54/2 31/55/2 32/56/2
f 28/52/3 27/51/3 32/57/3 31/58/3
f 30/59/4 29/60/4 26/61/4 25/62/4
f 30/63/5 25/49/5 28/52/5 31/64/5
f 26/50/6 29/53/6 32/56/6 27/51/6
f 33/65/1 34/66/1 35/67/1 36/68/1
f 37/69/2 38/70/2 39/71/2 40/72/2
f 36/68/3 35/67/3 40/73/3 39/74/3
f 38/75/4 37/76/4 34/77/4 33/78/4
f 38/79/5 33/65/5 36/68/5 39/80/5
f 34/66/6 37/69/6 40/72/6 35/67/6
f 41/81/1 42/82/1 43/83/1 44/84/1
f 45/85/2 46/86/2 47/87/2 48/88/2
f 44/84/3 43/83/3 48/89/3 47/90/3
f 46/91/4 45/92/4 42/93/4 41/94/4
f 46/95/5 41/81/5 44/84/5 47/96/5
f 42/82/6 45/85/6 48/88/6 43/83/6
f 49/97/1 50/98/1 51/99/1 52/100/1
f 53/101/2 54/102/2 55/103/2 56/104/2
f 52/100/3 51/99/3 56/105/3 55/106/3
f 54/107/4 53/108/4 50/109/4 49/110/4
f 54/111/5 49/97/5 52/100/5 55/112/5
f 50/98/6 53/101/6 56/104/6 51/99/6
f 57/113/1 58/114/1 59/115/1 60/116/1
f 61/117/2 62/118/2 63/119/2 64/120/2
f 60/116/3 59/115/3 64/121/3 63/122/3
f 62/123/4 61/124/4 58/125/4 57/126/4
f 62/127/5 57/113/5 60/116/5 63/128/5
f 58/114/6 61/117/6 64/120/6 59/115/6
f 65/129/1 66/130/1 67/131/1 68/132/1
f 69/133/2 70/134/2 71/135/2 72/136/2
f 68/132/3 67/131/3 72/137/3 71/138/3
f 70/139/4 69/140/4 66/141/4 65/142/4
f 70/143/5 65/129/5 68/132/5 71/144/5
f 66/130/6 69/133/6 72/136/6 67/131/6
f 73/145/1 74/146/1 75/147/1 76/148/1
f 77/149/2 78/150/2 79/151/2 80/152/2
f 76/148/3 75/147/3 80/153/3 79/154/3
f 78/155/4 77/156/4 74/157/4 73/158/4
f 78/159/5 73/145/5 76/148/5 79/160/5
f 74/146/6 77/149/6 80/152/6 75/147/6
f 81/161/1 82/162/1 83/163/1 84/164/1
f 85/165/2 86/166/2 87/167/2 88/168/2
f 84/164/3 83/163/3 88/169/3 87/170/3
f 86/171/4 85/172/4 82/173/4 81/174/4
f 86/175/5 81/161/5 84/164/5 87/176/5
f 82/162/6 85/165/6 88/168/6 83/163/6
f 89/177/1 90/178/1 91/179/1 92/180/1
f 93/181/2 94/182/2 95/183/2 96/184/2
f 92/180/3 91/179/3 96/185/3 95/186/3
f 94/187/4 93/188/4 90/189/4 89/190/4
f 94/191/5 89/177/5 92/180/5 95/192/5
f 90/178/6 93/181/6 96/184/6 91/179/6
f 97/193/1 98/194/1 99/195/1 100/196/1
f 101/197/2 102/198/2 103/199/2 104/200/2
f 100/196/3 99/195/3 104/201/3 103/202/3
f 102/203/4 101/204/4 98/205/4 97/206/4
f 102/207/5 97/193/5 100/196/5 103/208/5
f 98/194/6 101/197/6 104/200/6 99/195/6
f 105/209/1 106/210/1 107/211/1 108/212/1
f 109/213/2 110/214/2 111/215/2 112/216/2
f 108/212/3 107/211/3 112/217/3 111/218/3
f 110/219/4 109/220/4 106/221/4 105/222/4
f 110/223/5 105/209/5 108/212/5 111/224/5
f 106/210/6 109/213/6 112/216/6 107/211/6
f 113/225/1 114/226/1 115/227/1 116/228/1
f 117/229/2 118/230/2 119/231/2 120/232/2
f 116/228/3 115/227/3 120/233/3 119/234/3
f 118/235/4 117/236/4 114/237/4 113/238/4
f 118/239/5 113/225/5 116/228/5 119/240/5
f 114/226/6 117/229/6 120/232/6 115/227/6
f 121/241/1 122/242/1 123/243/1 124/244/1
f 125/245/2 126/246/2 127/247/2 128/248/2
f 124/244/3 123/243/3 128/249/3 127/250/3
f 126/251/4 125/252/4 122/253/4 121/254/4
f 126/255/5 121/241/5 124/244/5 127/256/5
f 122/242/6 125/245/6 128/248/6 123/243/6
f 129/257/1 130/258/1 131/259/1 132/260/1
f 133/261/2 134/262/2 135/263/2 136/264/2
f 132/260/3 131/259/3 136/265/3 135/266/3
f 134/267/4 133/268/4 130/269/4 129/270/4
f 134/271/5 129/257/5 132/260/5 135/272/5
f 130/258/6 133/261/6 136/264/6 131/259/6
f 137/273/1 138/274/1 139/275/1 140/276/1
f 141/277/2 142/278/2 143/279/2 144/280/2
f 140/276/3 139/275/3 144/281/3 143/282/3
f 142/283/4 141/284/4 138/285/4 137/286/4
f 142/287/5 137/273/5 140/276/5 143/288/5
f 138/274/6 141/277/6 144/280/6 139/275/6
f 145/289/1 146/290/1 147/291/1 148/292/1
f 149/293/2 150/294/2 151/295/2 152/296/2
f 148/292/3 147/291/3 152/297/3 151/298/3
f 150/299/4 149/300/4 146/301/4 145/302/4
f 150/303/5 145/289/5 148/292/5 151/304/5
f 146/290/6 149/293/6 152/296/6 147/291/6
f 153/305/1 154/306/1 155/307/1 156/308/1
f 157/309/2 158/310/2 159/311/2 160/312/2
f 156/308/3 155/307/3 160/313/3 159/314/3
f 158/315/4 157/316/4 154/317/4 153/318/4
f 158/319/5 153/305/5 156/308/5 159/320/5
f 154/306/6 157/309/6 160/312/6 155/307/6
f 161/321/1 162/322/1 163/323/1 164/324/1
f 165/325/2 166/326/2 167/327/2 168/328/2
f 164/324/3 163/323/3 168/329/3 167/330/3
f 166/331/4 165/332/4 162/333/4 161/334/4
f 166/335/5 161/321/5 164/324/5 167/336/5
f 162/322/6 165/325/6 168/328/6 163/323/6
f 169/337/1 170/338/1 171/339/1 172/340/1
f 173/341/2 174/342/2 175/343/2 176/344/2
f 172/340/3 171/339/3 176/345/3 175/346/3
f 174/347/4 173/348/4 170/349/4 169/350/4
f 174/351/5 169/337/5 172/340/5 175/352/5
f 170/338/6 173/341/6 176/344/6 171/339/6
f 177/353/1 178/354/1 179/355/1 180/356/1
f 181/357/2 182/358/2 183/359/2 184/360/2
f 180/356/3 179/355/3 184/361/3 183/362/3
f 182/363/4 181/364/4 178/365/4 177/366/4
f 182/367/5 177/353/5 180/356/5 183/368/5
f 178/354/6 181/357/6 184/360/6 179/355/6
f 185/369/5 186/370/5 187/371/5 188/372/5
f 189/373/6 190/374/6 191/375/6 192/376/6
f 188/372/3 187/371/3 192/377/3 191/378/3
f 190/379/4 189/380/4 186/381/4 185/382/4
f 190/383/2 185/369/2 188/372/2 191/384/2
f 186/370/1 189/373/1 192/376/1 187/371/1
f 193/385/5 194/386/5 195/387/5 196/388/5
f 197/389/6 198/390/6 199/391/6 200/392/6
f 196/388/3 195/387/3 200/393/3 199/394/3
f 198/395/4 197/396/4 194/397/4 193/398/4
f 198/399/2 193/385/2 196/388/2 199/400/2
f 194/386/1 197/389/1 200/392/1 195/387/1
f 201/401/5 202/402/5 203/403/5 204/404/5
f 205/405/6 206/406/6 207/407/6 208/408/6
f 204/404/3 203/403/3 208/409/3 207/410/3
f 206/411/4 205/412/4 202/413/4 201/414/4
f 206/415/2 201/401/2 204/404/2 207/416/2
f 202/402/1 205/405/1 208/408/1 203/403/1
