# Blender v2.76 (sub 0) OBJ File: 'tardis05.blend'
# www.blender.org
mtllib tardis_door.mtl
o door_door_mesh
v -0.829545 2.375650 0.073924
v -1.310872 2.375650 0.073924
v -0.829545 1.668875 0.073924
v -1.310872 1.668875 0.073924
v -0.355828 3.097328 0.073924
v -0.792412 3.097328 0.073924
v -0.355828 2.390551 0.073924
v -0.792412 2.390551 0.073924
v -0.829545 3.099709 0.073924
v -1.310872 3.099709 0.073924
v -0.829545 2.392933 0.073924
v -1.310872 2.392933 0.073924
v -1.355445 3.099709 0.073924
v -1.813592 3.099709 0.073924
v -1.355445 2.392933 0.073924
v -1.813592 2.392933 0.073924
v -1.355445 2.377312 0.073924
v -1.813592 2.377312 0.073924
v -1.355445 1.670536 0.073924
v -1.813592 1.670536 0.073924
v -0.355828 2.377312 0.073924
v -0.792412 2.377312 0.073924
v -0.355828 1.670536 0.073924
v -0.792412 1.670536 0.073924
v -0.360570 2.429779 0.058437
v -0.360570 2.429779 0.084547
v -1.812738 2.429779 0.084547
v -1.812738 2.429779 0.058437
v -1.812738 2.351139 0.058437
v -1.812738 2.351139 0.084547
v -0.360570 2.351139 0.058437
v -0.360570 2.351139 0.084547
v -0.856790 3.096439 0.058437
v -0.856790 3.096439 0.101195
v -0.856790 1.681154 0.101195
v -0.856790 1.681154 0.058437
v -0.769781 1.681154 0.058437
v -0.769781 1.681154 0.101195
v -0.769781 3.096439 0.058437
v -0.769781 3.096439 0.101195
v -1.380217 3.096439 0.058437
v -1.380217 3.096439 0.101195
v -1.380217 1.681154 0.101195
v -1.380217 1.681154 0.058437
v -1.293208 1.681154 0.058437
v -1.293208 1.681154 0.101195
v -1.293208 3.096439 0.058437
v -1.293208 3.096439 0.101195
v -0.363298 3.178398 0.101279
v -0.363298 3.096439 0.058437
v -0.363298 3.096439 0.101279
v -0.363298 3.178398 0.058437
v -1.809968 3.096439 0.101279
v -1.809968 3.178398 0.101279
v -1.809968 3.096439 0.058437
v -1.809968 3.178398 0.058437
v -0.363298 1.681154 0.101279
v -0.363298 1.599197 0.058437
v -0.363298 1.599197 0.101279
v -0.363298 1.681154 0.058437
v -1.809968 1.599197 0.101279
v -1.809968 1.681154 0.101279
v -1.809968 1.599197 0.058437
v -1.809968 1.681154 0.058437
v -0.287157 1.681154 0.058437
v -0.287157 1.599197 0.058437
v -0.287157 1.681154 0.101279
v -0.287157 1.599197 0.101279
v -1.890116 1.681154 0.058437
v -1.890116 1.599197 0.058437
v -1.890116 1.681154 0.101279
v -1.890116 1.599197 0.101279
v -0.287157 3.178398 0.058437
v -0.287157 3.096439 0.058437
v -0.287157 3.178398 0.101279
v -0.287157 3.096439 0.101279
v -1.890116 3.178398 0.058437
v -1.890116 3.096439 0.058437
v -1.890116 3.178398 0.101279
v -1.890116 3.096439 0.101279
v -0.181389 3.270271 0.125406
v -0.181389 3.373798 0.125406
v -0.181389 3.373798 -0.018699
v -1.985756 3.373798 0.125406
v -1.985756 3.373798 -0.018699
v -1.985756 3.270271 0.125406
v -0.181389 1.409317 0.116588
v -0.181389 1.538591 0.116588
v -0.181389 1.538591 -0.018699
v -1.985756 1.538591 0.116588
v -1.985756 1.538591 -0.018699
v -1.985756 1.409317 0.116588
v -0.181389 -0.232360 0.116588
v -0.181389 -0.103087 0.116588
v -0.181389 -0.103087 -0.018699
v -1.985756 -0.103087 0.116588
v -1.985756 -0.103087 -0.018699
v -1.985756 -0.232360 0.116588
v -0.181389 -1.949785 0.116588
v -0.181389 -1.820511 0.116588
v -0.181389 -1.820511 -0.018699
v -1.985756 -1.820511 0.116588
v -1.985756 -1.820511 -0.018699
v -1.985756 -1.949785 0.116588
v -0.181389 -3.600098 0.125406
v -0.181389 -3.496569 0.125406
v -0.181389 -3.600098 -0.018699
v -0.181389 -3.496569 -0.018699
v -1.985756 -3.496569 0.125406
v -1.985756 -3.496569 -0.018699
v -2.103920 -3.496569 -0.018699
v -2.103920 -3.496569 0.125406
v -0.031741 3.373207 0.038942
v -0.031741 -3.600098 0.038942
v -0.031741 3.373207 0.125406
v -0.031741 -3.600098 0.125406
v -0.181547 3.373207 0.038942
v -0.181547 -3.600098 0.038942
v -0.181547 3.373207 0.125406
v -0.181547 -3.600098 0.125406
v -1.985756 3.373207 -0.018699
v -1.985756 -3.600098 -0.018699
v -1.985756 3.373207 0.125406
v -1.985756 -3.600098 0.125406
v -2.103920 3.373207 -0.018699
v -2.103513 -3.600098 -0.018699
v -2.103920 3.373207 0.125406
v -2.103513 -3.600098 0.125406
v -0.030960 3.373207 -0.104197
v -0.030960 -3.600098 -0.104197
v -0.030960 3.373207 0.073516
v -0.030960 -3.600098 0.073516
v -2.104007 3.373207 -0.104197
v -2.104007 -3.600098 -0.104197
v -2.104007 3.373207 0.073516
v -2.104007 -3.600098 0.073516
v -0.181389 1.409317 0.001860
v -1.985756 1.409317 0.001860
v -0.181389 -0.232360 0.001860
v -1.985756 -0.232360 0.001860
v -0.181389 -1.949785 0.001860
v -1.985756 -1.949785 0.001860
v -0.181389 3.270271 0.028395
v -1.985756 3.270271 0.028395
v -2.077979 0.553086 0.258072
v -2.077979 0.859203 0.258072
v -2.077979 0.553086 0.184100
v -2.077979 0.859203 0.184100
v -2.004007 0.553086 0.258072
v -2.004007 0.859203 0.258072
v -2.004007 0.553086 0.184100
v -2.004007 0.859203 0.184100
v -2.077979 0.859860 0.183442
v -2.077979 0.933832 0.183442
v -2.077979 0.859860 0.109470
v -2.077979 0.933832 0.109470
v -2.004007 0.859860 0.183442
v -2.004007 0.933832 0.183442
v -2.004007 0.859860 0.109470
v -2.004007 0.933832 0.109470
v -2.077979 0.478456 0.183442
v -2.077979 0.552429 0.183442
v -2.077979 0.478456 0.109470
v -2.077979 0.552429 0.109470
v -2.004007 0.478456 0.183442
v -2.004007 0.552429 0.183442
v -2.004007 0.478456 0.109470
v -2.004007 0.552429 0.109470
vt 0.865234 0.230469
vt 0.865234 0.248047
vt 0.873047 0.248047
vt 0.855469 0.230469
vt 0.855469 0.248047
vt 0.863281 0.248047
vt 0.886719 0.167969
vt 0.886719 0.185547
vt 0.894531 0.185547
vt 0.876953 0.167969
vt 0.876953 0.185547
vt 0.884766 0.185547
vt 0.908203 0.167969
vt 0.908203 0.185547
vt 0.916016 0.185547
vt 0.896484 0.167969
vt 0.896484 0.185547
vt 0.904297 0.185547
vt 0.832031 0.857422
vt 0.832031 0.855469
vt 0.792969 0.855469
vt 0.832031 0.839844
vt 0.792969 0.839844
vt 0.792969 0.841797
vt 0.832031 0.833984
vt 0.792969 0.833984
vt 0.792969 0.837891
vt 0.832031 0.849609
vt 0.792969 0.849609
vt 0.792969 0.853516
vt 0.832031 0.847656
vt 0.832031 0.845703
vt 0.792969 0.845703
vt 0.363281 0.876953
vt 0.361328 0.876953
vt 0.361328 0.916016
vt 0.357422 0.876953
vt 0.355469 0.876953
vt 0.355469 0.916016
vt 0.371094 0.876953
vt 0.371094 0.916016
vt 0.373047 0.916016
vt 0.365234 0.876953
vt 0.365234 0.916016
vt 0.369141 0.916016
vt 0.339844 0.876953
vt 0.339844 0.916016
vt 0.341797 0.916016
vt 0.333984 0.876953
vt 0.333984 0.916016
vt 0.337891 0.916016
vt 0.349609 0.876953
vt 0.349609 0.916016
vt 0.353516 0.916016
vt 0.347656 0.876953
vt 0.345703 0.876953
vt 0.345703 0.916016
vt 0.404297 0.876953
vt 0.402344 0.876953
vt 0.402344 0.916016
vt 0.396484 0.876953
vt 0.396484 0.916016
vt 0.400391 0.916016
vt 0.416016 0.876953
vt 0.412109 0.876953
vt 0.412109 0.916016
vt 0.408203 0.876953
vt 0.408203 0.916016
vt 0.410156 0.916016
vt 0.384766 0.876953
vt 0.380859 0.876953
vt 0.380859 0.916016
vt 0.376953 0.876953
vt 0.376953 0.916016
vt 0.378906 0.916016
vt 0.814453 0.861328
vt 0.814453 0.863281
vt 0.816406 0.863281
vt 0.818359 0.861328
vt 0.818359 0.863281
vt 0.822266 0.863281
vt 0.839844 0.236328
vt 0.839844 0.238281
vt 0.841797 0.238281
vt 0.394531 0.876953
vt 0.392578 0.876953
vt 0.392578 0.916016
vt 0.833984 0.236328
vt 0.833984 0.238281
vt 0.837891 0.238281
vt 0.386719 0.876953
vt 0.386719 0.916016
vt 0.388672 0.916016
vt 0.027344 0.833984
vt 0.027344 0.873047
vt 0.029297 0.873047
vt 0.839844 0.230469
vt 0.839844 0.232422
vt 0.841797 0.232422
vt 0.833984 0.230469
vt 0.833984 0.232422
vt 0.837891 0.232422
vt 0.025391 0.833984
vt 0.021484 0.833984
vt 0.021484 0.873047
vt 0.849609 0.236328
vt 0.849609 0.238281
vt 0.853516 0.238281
vt 0.041016 0.833984
vt 0.037109 0.833984
vt 0.037109 0.873047
vt 0.845703 0.236328
vt 0.845703 0.238281
vt 0.847656 0.238281
vt 0.033203 0.833984
vt 0.033203 0.873047
vt 0.035156 0.873047
vt 0.005859 0.833984
vt 0.005859 0.873047
vt 0.009766 0.873047
vt 0.849609 0.230469
vt 0.849609 0.232422
vt 0.853516 0.232422
vt 0.001953 0.833984
vt 0.001953 0.873047
vt 0.003906 0.873047
vt 0.845703 0.230469
vt 0.845703 0.232422
vt 0.847656 0.232422
vt 0.017578 0.833984
vt 0.017578 0.873047
vt 0.019531 0.873047
vt 0.839844 0.246094
vt 0.839844 0.248047
vt 0.841797 0.248047
vt 0.011719 0.833984
vt 0.011719 0.873047
vt 0.013672 0.873047
vt 0.068359 0.833984
vt 0.068359 0.873047
vt 0.072266 0.873047
vt 0.064453 0.833984
vt 0.064453 0.873047
vt 0.066406 0.873047
vt 0.080078 0.833984
vt 0.080078 0.873047
vt 0.082031 0.873047
vt 0.074219 0.833984
vt 0.074219 0.873047
vt 0.076172 0.873047
vt 0.048828 0.833984
vt 0.048828 0.873047
vt 0.050781 0.873047
vt 0.939453 0.667969
vt 0.939453 0.832031
vt 0.941406 0.832031
vt 0.833984 0.246094
vt 0.833984 0.248047
vt 0.837891 0.248047
vt 0.832031 0.955078
vt 0.667969 0.955078
vt 0.667969 0.957031
vt 0.839844 0.240234
vt 0.839844 0.244141
vt 0.841797 0.244141
vt 0.833984 0.240234
vt 0.833984 0.244141
vt 0.837891 0.244141
vt 0.849609 0.246094
vt 0.849609 0.248047
vt 0.853516 0.248047
vt 0.943359 0.001953
vt 0.943359 0.166016
vt 0.947266 0.166016
vt 0.166016 0.958984
vt 0.001953 0.958984
vt 0.001953 0.962891
vt 0.845703 0.246094
vt 0.845703 0.248047
vt 0.847656 0.248047
vt 0.849609 0.240234
vt 0.849609 0.244141
vt 0.853516 0.244141
vt 0.042969 0.833984
vt 0.042969 0.873047
vt 0.044922 0.873047
vt 0.058594 0.833984
vt 0.058594 0.873047
vt 0.060547 0.873047
vt 0.845703 0.240234
vt 0.845703 0.244141
vt 0.847656 0.244141
vt 0.861328 0.214844
vt 0.861328 0.216797
vt 0.863281 0.216797
vt 0.855469 0.214844
vt 0.855469 0.216797
vt 0.857422 0.216797
vt 0.861328 0.208984
vt 0.861328 0.212891
vt 0.863281 0.212891
vt 0.855469 0.208984
vt 0.855469 0.212891
vt 0.857422 0.212891
vt 0.943359 0.167969
vt 0.943359 0.332031
vt 0.947266 0.332031
vt 0.332031 0.958984
vt 0.167969 0.958984
vt 0.167969 0.962891
vt 0.943359 0.333984
vt 0.943359 0.498047
vt 0.947266 0.498047
vt 0.871094 0.214844
vt 0.871094 0.216797
vt 0.873047 0.216797
vt 0.498047 0.958984
vt 0.333984 0.958984
vt 0.333984 0.962891
vt 0.869141 0.214844
vt 0.865234 0.214844
vt 0.865234 0.216797
vt 0.871094 0.208984
vt 0.871094 0.212891
vt 0.873047 0.212891
vt 0.052734 0.833984
vt 0.052734 0.873047
vt 0.056641 0.873047
vt 0.865234 0.208984
vt 0.865234 0.212891
vt 0.869141 0.212891
vt 0.927734 0.833984
vt 0.927734 0.916016
vt 0.931641 0.916016
vt 0.498047 0.667969
vt 0.333984 0.667969
vt 0.333984 0.748047
vt 0.943359 0.501953
vt 0.943359 0.666016
vt 0.947266 0.666016
vt 0.332031 0.751953
vt 0.167969 0.751953
vt 0.167969 0.832031
vt 0.943359 0.667969
vt 0.943359 0.832031
vt 0.947266 0.832031
vt 0.029297 0.876953
vt 0.027344 0.876953
vt 0.027344 0.916016
vt 0.025391 0.876953
vt 0.021484 0.876953
vt 0.021484 0.916016
vt 0.041016 0.876953
vt 0.037109 0.876953
vt 0.037109 0.916016
vt 0.035156 0.876953
vt 0.033203 0.876953
vt 0.033203 0.916016
vt 0.777344 0.458984
vt 0.777344 0.466797
vt 0.779297 0.466797
vt 0.771484 0.458984
vt 0.771484 0.466797
vt 0.775391 0.466797
vt 0.787109 0.458984
vt 0.787109 0.466797
vt 0.791016 0.466797
vt 0.783203 0.458984
vt 0.783203 0.466797
vt 0.785156 0.466797
vt 0.861328 0.224609
vt 0.861328 0.228516
vt 0.863281 0.228516
vt 0.855469 0.224609
vt 0.855469 0.228516
vt 0.857422 0.228516
vt 0.861328 0.220703
vt 0.861328 0.222656
vt 0.863281 0.222656
vt 0.855469 0.220703
vt 0.855469 0.222656
vt 0.857422 0.222656
vt 0.871094 0.224609
vt 0.871094 0.228516
vt 0.873047 0.228516
vt 0.865234 0.224609
vt 0.865234 0.228516
vt 0.869141 0.228516
vt 0.871094 0.220703
vt 0.871094 0.222656
vt 0.873047 0.222656
vt 0.865234 0.220703
vt 0.865234 0.222656
vt 0.869141 0.222656
vt 0.839844 0.214844
vt 0.839844 0.216797
vt 0.841797 0.216797
vt 0.833984 0.214844
vt 0.833984 0.216797
vt 0.837891 0.216797
vt 0.839844 0.208984
vt 0.839844 0.212891
vt 0.841797 0.212891
vt 0.833984 0.208984
vt 0.833984 0.212891
vt 0.837891 0.212891
vt 0.849609 0.214844
vt 0.849609 0.216797
vt 0.853516 0.216797
vt 0.845703 0.214844
vt 0.845703 0.216797
vt 0.847656 0.216797
vt 0.873047 0.230469
vt 0.863281 0.230469
vt 0.894531 0.167969
vt 0.884766 0.167969
vt 0.916016 0.167969
vt 0.904297 0.167969
vt 0.792969 0.857422
vt 0.832031 0.841797
vt 0.832031 0.837891
vt 0.832031 0.853516
vt 0.792969 0.847656
vt 0.363281 0.916016
vt 0.357422 0.916016
vt 0.373047 0.876953
vt 0.369141 0.876953
vt 0.341797 0.876953
vt 0.337891 0.876953
vt 0.353516 0.876953
vt 0.347656 0.916016
vt 0.404297 0.916016
vt 0.400391 0.876953
vt 0.416016 0.916016
vt 0.410156 0.876953
vt 0.384766 0.916016
vt 0.378906 0.876953
vt 0.816406 0.861328
vt 0.822266 0.861328
vt 0.841797 0.236328
vt 0.394531 0.916016
vt 0.837891 0.236328
vt 0.388672 0.876953
vt 0.029297 0.833984
vt 0.841797 0.230469
vt 0.837891 0.230469
vt 0.025391 0.873047
vt 0.853516 0.236328
vt 0.041016 0.873047
vt 0.847656 0.236328
vt 0.035156 0.833984
vt 0.009766 0.833984
vt 0.853516 0.230469
vt 0.003906 0.833984
vt 0.847656 0.230469
vt 0.019531 0.833984
vt 0.841797 0.246094
vt 0.013672 0.833984
vt 0.072266 0.833984
vt 0.066406 0.833984
vt 0.082031 0.833984
vt 0.076172 0.833984
vt 0.050781 0.833984
vt 0.941406 0.667969
vt 0.837891 0.246094
vt 0.832031 0.957031
vt 0.841797 0.240234
vt 0.837891 0.240234
vt 0.853516 0.246094
vt 0.947266 0.001953
vt 0.166016 0.962891
vt 0.847656 0.246094
vt 0.853516 0.240234
vt 0.044922 0.833984
vt 0.060547 0.833984
vt 0.847656 0.240234
vt 0.863281 0.214844
vt 0.857422 0.214844
vt 0.863281 0.208984
vt 0.857422 0.208984
vt 0.947266 0.167969
vt 0.332031 0.962891
vt 0.947266 0.333984
vt 0.873047 0.214844
vt 0.498047 0.962891
vt 0.869141 0.216797
vt 0.873047 0.208984
vt 0.056641 0.833984
vt 0.869141 0.208984
vt 0.931641 0.833984
vt 0.498047 0.748047
vt 0.947266 0.501953
vt 0.332031 0.832031
vt 0.947266 0.667969
vt 0.029297 0.916016
vt 0.025391 0.916016
vt 0.041016 0.916016
vt 0.035156 0.916016
vt 0.779297 0.458984
vt 0.775391 0.458984
vt 0.791016 0.458984
vt 0.785156 0.458984
vt 0.863281 0.224609
vt 0.857422 0.224609
vt 0.863281 0.220703
vt 0.857422 0.220703
vt 0.873047 0.224609
vt 0.869141 0.224609
vt 0.873047 0.220703
vt 0.869141 0.220703
vt 0.841797 0.214844
vt 0.837891 0.214844
vt 0.841797 0.208984
vt 0.837891 0.208984
vt 0.853516 0.214844
vt 0.847656 0.214844
vn 0.000000 0.000000 1.000000
vn -1.000000 0.000000 0.000000
vn 0.000000 0.000000 -1.000000
vn 1.000000 0.000000 0.000000
vn 0.000000 -1.000000 0.000000
vn 0.000000 1.000000 0.000000
vn -1.000000 -0.003900 0.000000
usemtl Material.002
s off
f 7/1/1 5/2/1 6/3/1
f 15/4/1 13/5/1 14/6/1
f 19/7/1 17/8/1 18/9/1
f 3/10/1 1/11/1 2/12/1
f 11/13/1 9/14/1 10/15/1
f 23/16/1 21/17/1 22/18/1
f 34/19/2 33/20/2 36/21/2
f 74/22/3 65/23/3 60/24/3
f 26/25/1 27/26/1 30/27/1
f 34/28/1 35/29/1 38/30/1
f 51/31/2 50/32/2 60/33/2
f 62/34/4 64/35/4 55/36/4
f 64/37/3 69/38/3 78/39/3
f 51/40/1 57/41/1 67/42/1
f 65/43/4 74/44/4 76/45/4
f 29/46/5 31/47/5 32/48/5
f 45/49/4 47/50/4 48/51/4
f 37/52/4 39/53/4 40/54/4
f 26/55/6 25/56/6 28/57/6
f 53/58/1 80/59/1 71/60/1
f 42/61/1 43/62/1 46/63/1
f 42/64/2 41/65/2 44/66/2
f 78/67/2 69/68/2 71/69/2
f 52/70/3 50/71/3 55/72/3
f 55/73/5 50/74/5 51/75/5
f 73/76/6 52/77/6 49/78/6
f 49/79/1 51/80/1 76/81/1
f 56/82/3 55/83/3 78/84/3
f 54/85/1 53/86/1 51/87/1
f 78/88/5 55/89/5 53/90/5
f 52/91/6 56/92/6 54/93/6
f 63/94/5 58/95/5 59/96/5
f 56/97/6 77/98/6 79/99/6
f 58/100/5 66/101/5 68/102/5
f 60/103/3 58/104/3 63/105/3
f 67/106/4 68/107/4 66/108/4
f 62/109/1 61/110/1 59/111/1
f 75/112/4 76/113/4 74/114/4
f 98/115/1 93/116/1 94/117/1
f 90/118/6 88/119/6 89/120/6
f 79/121/1 80/122/1 53/123/1
f 92/124/1 87/125/1 88/126/1
f 77/127/2 78/128/2 80/129/2
f 104/130/1 99/131/1 100/132/1
f 73/133/3 74/134/3 50/135/3
f 124/136/1 105/137/1 106/138/1
f 84/139/6 82/140/6 83/141/6
f 86/142/1 81/143/1 82/144/1
f 96/145/6 94/146/6 95/147/6
f 122/148/5 107/149/5 105/150/5
f 109/151/6 106/152/6 108/153/6
f 125/154/2 111/155/2 112/156/2
f 57/157/1 59/158/1 68/159/1
f 127/160/1 112/161/1 109/162/1
f 70/163/5 63/164/5 61/165/5
f 64/166/6 69/167/6 71/168/6
f 69/169/2 70/170/2 72/171/2
f 123/172/4 109/173/4 110/174/4
f 121/175/3 110/176/3 111/177/3
f 64/178/3 63/179/3 70/180/3
f 65/181/6 60/182/6 57/183/6
f 60/184/6 64/185/6 62/186/6
f 102/187/6 100/188/6 101/189/6
f 71/190/1 72/191/1 61/192/1
f 106/193/4 105/194/4 107/195/4
f 65/196/3 66/197/3 58/198/3
f 50/199/5 74/200/5 76/201/5
f 113/202/6 117/203/6 119/204/6
f 115/205/4 116/206/4 114/207/4
f 119/208/1 120/209/1 116/210/1
f 113/211/3 114/212/3 118/213/3
f 121/214/6 125/215/6 127/216/6
f 117/217/2 118/218/2 120/219/2
f 109/220/1 112/221/1 128/222/1
f 110/223/3 122/224/3 126/225/3
f 110/226/3 108/227/3 107/228/3
f 111/229/7 126/230/7 128/231/7
f 129/232/6 133/233/6 135/234/6
f 135/235/1 136/236/1 132/237/1
f 131/238/4 132/239/4 130/240/4
f 129/241/3 130/242/3 134/243/3
f 133/244/2 134/245/2 136/246/2
f 104/247/5 142/248/5 141/249/5
f 98/250/5 140/251/5 139/252/5
f 92/253/5 138/254/5 137/255/5
f 86/256/5 144/257/5 143/258/5
f 148/259/2 147/260/2 145/261/2
f 152/262/3 151/263/3 147/264/3
f 150/265/4 149/266/4 151/267/4
f 146/268/1 145/269/1 149/270/1
f 147/271/5 151/272/5 149/273/5
f 152/274/6 148/275/6 146/276/6
f 156/277/2 155/278/2 153/279/2
f 160/280/3 159/281/3 155/282/3
f 158/283/4 157/284/4 159/285/4
f 154/286/1 153/287/1 157/288/1
f 155/289/5 159/290/5 157/291/5
f 160/292/6 156/293/6 154/294/6
f 164/295/2 163/296/2 161/297/2
f 168/298/3 167/299/3 163/300/3
f 166/301/4 165/302/4 167/303/4
f 162/304/1 161/305/1 165/306/1
f 163/307/5 167/308/5 165/309/5
f 168/310/6 164/311/6 162/312/6
f 8/313/1 7/1/1 6/3/1
f 16/314/1 15/4/1 14/6/1
f 20/315/1 19/7/1 18/9/1
f 4/316/1 3/10/1 2/12/1
f 12/317/1 11/13/1 10/15/1
f 24/318/1 23/16/1 22/18/1
f 35/319/2 34/19/2 36/21/2
f 50/320/3 74/22/3 60/24/3
f 32/321/1 26/25/1 30/27/1
f 40/322/1 34/28/1 38/30/1
f 57/323/2 51/31/2 60/33/2
f 53/324/4 62/34/4 55/36/4
f 55/325/3 64/37/3 78/39/3
f 76/326/1 51/40/1 67/42/1
f 67/327/4 65/43/4 76/45/4
f 30/328/5 29/46/5 32/48/5
f 46/329/4 45/49/4 48/51/4
f 38/330/4 37/52/4 40/54/4
f 27/331/6 26/55/6 28/57/6
f 62/332/1 53/58/1 71/60/1
f 48/333/1 42/61/1 46/63/1
f 43/334/2 42/64/2 44/66/2
f 80/335/2 78/67/2 71/69/2
f 56/336/3 52/70/3 55/72/3
f 53/337/5 55/73/5 51/75/5
f 75/338/6 73/76/6 49/78/6
f 75/339/1 49/79/1 76/81/1
f 77/340/3 56/82/3 78/84/3
f 49/341/1 54/85/1 51/87/1
f 80/342/5 78/88/5 53/90/5
f 49/343/6 52/91/6 54/93/6
f 61/344/5 63/94/5 59/96/5
f 54/345/6 56/97/6 79/99/6
f 59/346/5 58/100/5 68/102/5
f 64/347/3 60/103/3 63/105/3
f 65/348/4 67/106/4 66/108/4
f 57/349/1 62/109/1 59/111/1
f 73/350/4 75/112/4 74/114/4
f 96/351/1 98/115/1 94/117/1
f 91/352/6 90/118/6 89/120/6
f 54/353/1 79/121/1 53/123/1
f 90/354/1 92/124/1 88/126/1
f 79/355/2 77/127/2 80/129/2
f 102/356/1 104/130/1 100/132/1
f 52/357/3 73/133/3 50/135/3
f 109/358/1 124/136/1 106/138/1
f 85/359/6 84/139/6 83/141/6
f 84/360/1 86/142/1 82/144/1
f 97/361/6 96/145/6 95/147/6
f 124/362/5 122/148/5 105/150/5
f 110/363/6 109/151/6 108/153/6
f 127/364/2 125/154/2 112/156/2
f 67/365/1 57/157/1 68/159/1
f 123/366/1 127/160/1 109/162/1
f 72/367/5 70/163/5 61/165/5
f 62/368/6 64/166/6 71/168/6
f 71/369/2 69/169/2 72/171/2
f 121/370/4 123/172/4 110/174/4
f 125/371/3 121/175/3 111/177/3
f 69/372/3 64/178/3 70/180/3
f 67/373/6 65/181/6 57/183/6
f 57/374/6 60/184/6 62/186/6
f 103/375/6 102/187/6 101/189/6
f 62/376/1 71/190/1 61/192/1
f 108/377/4 106/193/4 107/195/4
f 60/378/3 65/196/3 58/198/3
f 51/379/5 50/199/5 76/201/5
f 115/380/6 113/202/6 119/204/6
f 113/381/4 115/205/4 114/207/4
f 115/382/1 119/208/1 116/210/1
f 117/383/3 113/211/3 118/213/3
f 123/384/6 121/214/6 127/216/6
f 119/385/2 117/217/2 120/219/2
f 124/386/1 109/220/1 128/222/1
f 111/387/3 110/223/3 126/225/3
f 122/388/3 110/226/3 107/228/3
f 112/389/7 111/229/7 128/231/7
f 131/390/6 129/232/6 135/234/6
f 131/391/1 135/235/1 132/237/1
f 129/392/4 131/238/4 130/240/4
f 133/393/3 129/241/3 134/243/3
f 135/394/2 133/244/2 136/246/2
f 99/395/5 104/247/5 141/249/5
f 93/396/5 98/250/5 139/252/5
f 87/397/5 92/253/5 137/255/5
f 81/398/5 86/256/5 143/258/5
f 146/399/2 148/259/2 145/261/2
f 148/400/3 152/262/3 147/264/3
f 152/401/4 150/265/4 151/267/4
f 150/402/1 146/268/1 149/270/1
f 145/403/5 147/271/5 149/273/5
f 150/404/6 152/274/6 146/276/6
f 154/405/2 156/277/2 153/279/2
f 156/406/3 160/280/3 155/282/3
f 160/407/4 158/283/4 159/285/4
f 158/408/1 154/286/1 157/288/1
f 153/409/5 155/289/5 157/291/5
f 158/410/6 160/292/6 154/294/6
f 162/411/2 164/295/2 161/297/2
f 164/412/3 168/298/3 163/300/3
f 168/413/4 166/301/4 167/303/4
f 166/414/1 162/304/1 165/306/1
f 161/415/5 163/307/5 165/309/5
f 166/416/6 168/310/6 162/312/6
